<?xml version="1.0" standalone="no"?>
<!DOCTYPE svg PUBLIC "-//W3C//DTD SVG 20010904//EN"
 "http://www.w3.org/TR/2001/REC-SVG-20010904/DTD/svg10.dtd">
<svg version="1.0" xmlns="http://www.w3.org/2000/svg"
 width="700.000000pt" height="700.000000pt" viewBox="0 0 700.000000 700.000000"
 preserveAspectRatio="xMidYMid meet">
<metadata>
Created by potrace 1.14, written by Peter Selinger 2001-2017
</metadata>
<g transform="translate(0.000000,700.000000) scale(0.100000,-0.100000)"
fill="#000000" stroke="none">
<path d="M2695 6850 c-183 -20 -387 -75 -436 -116 -8 -8 -20 -14 -26 -14 -14
0 -105 -68 -155 -115 -21 -20 -89 -100 -151 -178 -226 -281 -313 -337 -611
-392 -100 -18 -170 -44 -236 -89 -125 -84 -176 -183 -186 -360 -8 -139 -36
-227 -97 -308 -9 -12 -35 -50 -57 -83 -48 -75 -127 -155 -228 -232 -130 -98
-175 -141 -233 -219 -72 -97 -149 -274 -165 -379 -3 -22 -8 -43 -10 -46 -10
-17 -19 -159 -18 -289 2 -172 27 -305 83 -435 4 -11 16 -37 24 -58 16 -36 16
-39 -8 -93 -28 -63 -72 -198 -81 -247 -21 -121 -26 -365 -9 -457 4 -19 8 -46
10 -60 22 -140 73 -271 157 -396 57 -87 103 -133 236 -236 126 -98 189 -162
249 -253 25 -38 49 -72 53 -75 39 -31 88 -200 96 -336 5 -99 16 -142 50 -195
70 -112 200 -189 384 -229 121 -27 235 -62 293 -91 77 -38 169 -127 290 -279
50 -63 114 -139 141 -169 121 -128 264 -202 476 -245 118 -24 144 -26 325 -31
128 -3 190 -1 249 11 99 19 222 57 304 95 l62 28 65 -34 c89 -47 178 -76 295
-95 55 -9 404 -6 450 4 14 3 47 8 74 11 60 7 188 39 242 60 178 71 307 181
464 395 69 94 195 217 255 247 66 34 260 93 306 93 31 0 140 40 210 76 153 80
224 185 243 359 15 132 89 337 155 432 59 85 93 119 228 225 124 99 166 139
226 218 55 72 123 208 151 300 25 84 28 98 43 210 9 70 10 273 1 327 -20 118
-54 232 -103 336 l-26 59 24 51 c58 125 116 315 134 442 12 82 6 241 -12 325
-3 14 -8 39 -11 55 -10 56 -66 209 -97 265 -74 132 -123 186 -283 310 -130
102 -185 158 -246 250 -27 41 -53 77 -57 80 -14 10 -49 76 -65 122 -22 67 -26
90 -31 206 -7 142 -36 208 -125 290 -65 60 -192 122 -285 138 -117 20 -243 58
-321 96 -81 39 -193 153 -339 344 -175 228 -378 335 -705 371 -97 10 -460 10
-528 0 -70 -11 -162 -41 -241 -79 l-65 -31 -90 32 c-96 35 -197 66 -249 77
-48 10 -382 13 -462 4z"/>
</g>
</svg>
