<svg width="634" height="1051" viewBox="0 0 634 1051" fill="none" xmlns="http://www.w3.org/2000/svg">
<path opacity="0.4" d="M610.742 512.992C625.055 539.133 633.002 568.309 633.931 598.13C634.465 617.58 632.862 676.436 593.61 720.765C569.145 748.388 546.104 752.326 522.351 790.957L522.054 791.404C512.028 808.239 506.581 827.424 506.258 847.039C506.106 860.297 502.281 873.251 495.213 884.447C484.702 900.795 464.78 915.889 427.814 921.676C410.934 924.2 394.758 930.213 380.308 939.337C377.042 941.455 373.716 943.781 370.391 946.406C319.44 986.678 323.954 1048.91 178.585 1050.13C158.751 1050.13 128.971 1048.37 91.5002 1026.44C54.0001 1048.37 24.2492 1050.31 4.38568 1050.1C-141.102 1048.91 -136.44 986.678 -187.39 946.406C-190.716 943.781 -194.041 941.455 -197.307 939.337C-211.757 930.213 -227.933 924.2 -244.813 921.676C-281.779 915.889 -301.702 900.795 -312.242 884.447C-319.29 873.243 -323.103 860.293 -323.258 847.039C-323.577 827.42 -329.035 808.231 -339.083 791.404L-339.351 790.957C-363.104 752.177 -386.026 748.388 -410.61 720.765C-449.892 676.436 -451.465 617.58 -450.93 598.13C-450.016 568.307 -442.069 539.127 -427.742 512.992C-442.074 486.869 -450.022 457.699 -450.93 427.884C-451.465 408.434 -449.892 349.578 -410.61 305.219C-386.144 277.596 -363.104 273.658 -339.351 235.027L-339.083 234.58C-329.035 217.764 -323.576 198.585 -323.258 178.975C-323.099 165.713 -319.286 152.754 -312.242 141.537C-301.702 125.189 -281.779 110.125 -244.813 104.308C-227.926 101.811 -211.745 95.7959 -197.307 86.6476C-194.041 84.5595 -190.716 82.2028 -187.39 79.5777C-136.44 39.3357 -140.953 -22.8917 4.38568 -24.1148C24.2492 -24.1148 54.0001 -22.3844 91.5002 -0.45867C128.971 -22.3844 158.751 -24.3236 178.585 -24.1148C324.073 -22.8917 319.44 39.3357 370.391 79.5777C373.716 82.2028 377.042 84.5595 380.308 86.6476C394.745 95.7959 410.927 101.811 427.814 104.308C464.78 110.274 484.702 125.189 495.213 141.537C502.276 152.747 506.1 165.708 506.258 178.975C506.581 198.58 512.028 217.757 522.054 234.58L522.351 235.027C545.926 273.807 569.026 277.596 593.61 305.219C632.862 349.578 634.465 408.434 633.931 427.884C633.007 457.696 625.06 486.864 610.742 512.992Z" fill="#DAA49A"/>
<path opacity="0.4" d="M6.37518 -12.375C25.6151 -12.375 51.9814 -9.86916 85.4138 9.67039L91.3521 13.1608L97.2903 9.67039C130.723 -9.86916 157.088 -12.375 176.328 -12.375H178.318C278.882 -11.5398 302.665 18.9182 327.813 51.1361C337.76 63.874 348.063 77.0595 362.879 88.7832C366.293 91.468 369.827 94.0036 373.717 96.5094C389.555 106.566 407.316 113.171 425.854 115.9C454.447 120.404 474.37 131.144 485.237 147.849C491.113 157.203 494.271 168.022 494.352 179.083C494.748 200.794 500.798 222.023 511.899 240.655L512.196 241.102C527.577 266.28 542.868 277.914 557.654 289.161C567.427 296.159 576.452 304.157 584.583 313.026C619.946 352.97 622.47 406.338 621.906 427.429C621.021 455.359 613.574 482.682 600.171 507.168L597.054 512.866L600.171 518.594C613.598 543.033 621.086 570.314 622.025 598.214C622.589 619.304 620.065 672.792 584.702 712.647C576.555 721.499 567.532 729.495 557.773 736.512C542.927 747.758 527.695 759.392 512.226 784.689L512.018 785.047C500.909 803.665 494.858 824.886 494.471 846.589C494.39 857.651 491.232 868.469 485.355 877.823C474.577 894.528 454.655 905.268 425.973 909.743C407.436 912.495 389.677 919.109 373.835 929.162C370.096 931.554 366.479 934.133 362.998 936.889C348.152 948.613 337.879 961.768 327.932 974.536C302.784 1006.75 279.001 1037.18 178.437 1038.05H176.447C157.207 1038.05 130.842 1035.54 97.4092 1016L91.4709 1012.48L85.5327 1016C52.1003 1035.54 25.734 1038.05 6.49408 1038.05H4.50497C-96.0594 1037.21 -119.842 1006.75 -144.991 974.536C-154.938 961.768 -165.24 948.613 -180.056 936.889C-183.441 934.204 -187.093 931.609 -190.894 929.162C-206.744 919.104 -224.514 912.489 -243.061 909.743C-271.625 905.268 -291.577 894.499 -302.444 877.823C-308.321 868.469 -311.477 857.651 -311.559 846.589C-311.946 824.886 -317.997 803.665 -329.107 785.047L-329.314 784.719C-344.694 759.542 -359.985 747.907 -374.772 736.661C-384.537 729.652 -393.561 721.655 -401.702 712.796C-437.064 672.852 -439.588 619.454 -439.054 598.363C-438.141 570.443 -430.684 543.133 -417.29 518.653L-414.172 512.926L-417.29 507.228C-430.688 482.739 -438.145 455.419 -439.054 427.489C-439.588 406.398 -437.064 352.91 -401.702 313.085C-393.577 304.209 -384.552 296.211 -374.772 289.22C-359.926 277.974 -344.694 266.34 -329.314 241.132L-329.107 240.804C-318.001 222.185 -311.95 200.965 -311.559 179.262C-311.477 168.201 -308.321 157.382 -302.444 148.028C-291.696 131.323 -271.743 120.584 -243.061 116.079C-224.513 113.356 -206.74 106.75 -190.894 96.6886C-187.093 94.2126 -183.441 91.6174 -180.056 88.9624C-165.21 77.2387 -154.938 64.0532 -144.991 51.3152C-119.842 19.0973 -96.0594 -11.3308 4.50497 -12.1959H6.49408M6.49408 -24.1284H4.38611C-141.101 -22.9053 -136.44 39.3229 -187.39 79.5654C-190.716 82.1906 -194.041 84.5473 -197.307 86.6355C-211.744 95.7838 -227.926 101.799 -244.813 104.296C-281.778 110.262 -301.701 125.178 -312.242 141.525C-319.286 152.742 -323.099 165.701 -323.258 178.963C-323.577 198.574 -329.035 217.754 -339.083 234.569L-339.35 235.017C-363.103 273.797 -386.025 277.586 -410.609 305.21C-449.891 349.569 -451.465 408.426 -450.93 427.876C-450.022 457.691 -442.073 486.863 -427.741 512.985C-442.068 539.121 -450.016 568.3 -450.93 598.124C-451.465 617.574 -449.891 676.431 -410.609 720.761C-386.144 748.384 -363.103 752.322 -339.35 790.954L-339.083 791.401C-329.035 808.228 -323.577 827.417 -323.258 847.037C-323.103 860.291 -319.289 873.241 -312.242 884.445C-301.701 900.793 -281.778 915.888 -244.813 921.675C-227.933 924.199 -211.757 930.212 -197.307 939.335C-194.041 941.453 -190.716 943.78 -187.39 946.405C-136.44 986.677 -140.953 1048.91 4.38611 1050.13H6.49408C26.2982 1050.13 55.3069 1047.62 91.5007 1026.44C127.694 1047.62 156.673 1050.13 176.506 1050.13H178.585C324.072 1048.91 319.44 986.677 370.391 946.405C373.716 943.78 377.042 941.453 380.308 939.335C394.758 930.212 410.934 924.199 427.814 921.675C464.78 915.888 484.702 900.793 495.213 884.445C502.281 873.248 506.106 860.295 506.258 847.037C506.581 827.422 512.028 808.236 522.054 791.401L522.351 790.954C545.926 752.173 569.025 748.384 593.61 720.761C632.862 676.431 634.465 617.574 633.931 598.124C633.002 568.303 625.055 539.127 610.742 512.985C625.06 486.857 633.007 457.689 633.931 427.876C634.465 408.426 632.862 349.569 593.61 305.21C569.144 277.586 546.104 273.648 522.351 235.017L522.054 234.569C512.028 217.746 506.581 198.569 506.258 178.963C506.1 165.697 502.276 152.735 495.213 141.525C484.702 125.178 464.78 110.113 427.814 104.296C410.927 101.799 394.745 95.7838 380.308 86.6355C377.042 84.5473 373.716 82.1906 370.391 79.5654C319.44 39.3229 323.953 -22.9053 178.585 -24.1284H176.506C156.673 -24.1284 127.694 -21.6224 91.5007 -0.471987C55.3069 -21.6224 26.1794 -24.1284 6.49408 -24.1284Z" fill="#D08B86"/>
<path opacity="0.4" d="M564.461 512.984C577.508 536.502 584.751 562.755 585.596 589.589C586.075 607.093 584.64 660.082 548.857 699.987C526.586 724.849 505.541 728.409 484.047 763.151L483.778 763.566C474.638 778.708 469.669 795.969 469.369 813.618C469.241 825.551 465.763 837.213 459.325 847.292C449.729 862.126 431.584 875.596 397.924 880.817C382.519 883.055 367.755 888.462 354.578 896.69C351.588 898.589 348.599 900.695 345.61 903.069C299.185 939.294 303.31 995.309 170.851 996.407C152.915 996.407 125.652 994.834 91.5129 975.105C57.3444 994.834 30.2307 996.555 12.145 996.407C-120.284 995.309 -116.159 939.294 -162.584 903.069C-165.573 900.695 -168.562 898.589 -171.552 896.69C-184.732 888.466 -199.494 883.06 -214.898 880.817C-248.558 875.596 -266.734 862.008 -276.329 847.292C-282.767 837.213 -286.246 825.551 -286.374 813.618C-286.66 795.967 -291.629 778.703 -300.782 763.566L-301.022 763.151C-322.515 728.409 -343.56 724.849 -365.831 699.987C-401.703 660.082 -403.049 607.093 -402.6 589.589C-401.734 562.754 -394.481 536.504 -381.435 512.984C-394.49 489.468 -401.743 463.216 -402.6 436.38C-403.049 418.875 -401.614 365.916 -365.831 325.982C-343.56 301.15 -322.515 297.59 -301.022 262.818L-300.782 262.432C-291.626 247.286 -286.656 230.012 -286.374 212.351C-286.238 200.419 -282.76 188.76 -276.329 178.677C-266.734 163.843 -248.558 150.403 -214.898 145.181C-199.492 142.928 -184.73 137.512 -171.552 129.279C-168.562 127.38 -165.573 125.303 -162.584 122.93C-116.159 86.7041 -120.284 30.6893 12.145 29.5915C30.2307 29.5915 57.3444 31.1641 91.5129 50.8938C125.652 31.1641 152.795 29.4432 170.851 29.5915C303.31 30.6893 299.185 86.7041 345.61 122.93C348.599 125.303 351.588 127.38 354.578 129.279C367.753 137.516 382.517 142.932 397.924 145.181C431.584 150.403 449.729 163.961 459.325 178.677C465.761 188.768 469.239 200.439 469.369 212.381C469.669 230.03 474.638 247.29 483.778 262.432L484.047 262.818C505.541 297.59 526.586 301.15 548.857 325.982C584.729 365.916 586.075 418.875 585.596 436.38C584.761 463.215 577.517 489.47 564.461 512.984Z" fill="url(#paint0_radial_554_982)"/>
<path opacity="0.4" d="M168.788 41.4512H170.612C261.698 42.1929 283.191 69.4 305.94 98.1791C314.909 109.72 324.475 121.618 338.076 132.239C341.066 134.672 344.533 137.016 348.03 139.271C362.558 148.398 378.851 154.402 395.86 156.894C421.569 160.9 439.475 170.394 449.101 185.139C454.346 193.374 457.163 202.901 457.232 212.643C457.571 232.365 463.128 251.651 473.345 268.569L473.644 269.044C487.754 291.889 501.774 302.422 515.495 312.598C524.328 318.843 532.493 325.971 539.859 333.871C571.815 369.474 574.087 417.212 573.609 436.082C572.78 461.025 566.03 485.422 553.909 507.288L550.77 512.955L553.909 518.651C566.03 540.517 572.78 564.914 573.609 589.857C574.087 608.697 571.815 656.405 539.859 692.038C532.508 699.953 524.342 707.083 515.495 713.311C501.923 723.517 487.903 734.079 473.823 756.865L473.525 757.34C463.292 774.253 457.724 793.541 457.382 813.267C457.313 823.018 454.497 832.555 449.251 840.8C439.625 855.634 421.719 865.04 396.01 869.045C379.001 871.537 362.707 877.541 348.18 886.668C344.682 888.893 341.335 891.267 338.226 893.7C324.624 904.321 315.178 916.219 306.09 927.76C283.341 956.54 261.847 983.717 170.761 984.488H168.937C151.569 984.488 127.744 982.233 97.5216 964.788L91.5429 961.316L85.5641 964.788C55.3416 982.233 31.5158 984.488 14.1177 984.488H12.3245C-78.7616 983.717 -100.255 956.54 -123.004 927.76C-132.122 916.219 -141.539 904.321 -155.14 893.7C-158.13 891.267 -161.597 888.893 -165.095 886.668C-179.622 877.541 -195.916 871.537 -212.925 869.045C-238.634 865.04 -256.54 855.545 -266.166 840.8C-271.412 832.555 -274.228 823.018 -274.297 813.267C-274.639 793.541 -280.206 774.253 -290.439 757.34L-290.708 756.895C-304.848 734.05 -318.838 723.517 -332.56 713.311C-341.406 707.083 -349.572 699.953 -356.923 692.038C-388.879 656.435 -391.181 608.697 -390.673 589.857C-389.844 564.914 -383.094 540.517 -370.973 518.651L-367.983 512.955L-370.973 507.288C-383.094 485.422 -389.844 461.025 -390.673 436.082C-391.181 417.212 -388.879 369.534 -356.923 333.871C-349.564 325.964 -341.4 318.835 -332.56 312.598C-318.988 302.422 -304.998 291.83 -290.708 269.044L-290.439 268.599C-280.202 251.677 -274.635 232.378 -274.297 212.643C-274.228 202.901 -271.411 193.374 -266.166 185.139C-256.54 170.305 -238.634 160.9 -212.925 156.894C-195.916 154.402 -179.622 148.398 -165.095 139.271C-161.597 137.016 -158.249 134.672 -155.14 132.239C-141.539 121.618 -132.122 109.72 -123.004 98.1791C-100.255 69.4 -78.7616 42.1929 12.3245 41.4512H14.1177C31.5158 41.4512 55.3416 43.6764 85.5641 61.1516L91.5429 64.623L97.5216 61.1516C127.744 43.6764 151.569 41.4512 168.937 41.4512M14.0579 29.5835H12.145C-120.284 30.6813 -116.159 86.697 -162.584 122.923C-165.573 125.297 -168.562 127.374 -171.552 129.272C-184.73 137.506 -199.492 142.922 -214.898 145.175C-248.558 150.397 -266.734 163.955 -276.329 178.671C-282.76 188.754 -286.238 200.414 -286.374 212.346C-286.656 230.007 -291.626 247.282 -300.782 262.428L-301.022 262.814C-322.515 297.586 -343.56 301.146 -365.831 325.979C-401.703 365.914 -403.049 418.874 -402.6 436.379C-401.743 463.215 -394.49 489.467 -381.435 512.984C-394.481 536.505 -401.734 562.755 -402.6 589.59C-403.049 607.095 -401.614 660.085 -365.831 699.99C-343.56 724.852 -322.515 728.413 -301.022 763.155C-300.931 763.287 -300.851 763.426 -300.782 763.571C-291.629 778.707 -286.66 795.971 -286.374 813.623C-286.246 825.556 -282.767 837.218 -276.329 847.297C-266.734 862.132 -248.558 875.602 -214.898 880.823C-199.494 883.067 -184.732 888.473 -171.552 896.696C-168.562 898.595 -165.573 900.702 -162.584 903.075C-116.159 939.302 -120.284 995.317 12.145 996.415H14.0579C31.9941 996.415 58.5402 994.16 91.5129 975.112C124.396 994.16 150.911 996.415 168.937 996.415H170.851C303.31 995.317 299.185 939.302 345.61 903.075C348.599 900.702 351.588 898.595 354.578 896.696C367.755 888.468 382.519 883.061 397.924 880.823C431.584 875.602 449.729 862.013 459.325 847.297C465.763 837.218 469.241 825.556 469.369 813.623C469.677 795.975 474.646 778.716 483.778 763.571L484.047 763.155C505.54 728.413 526.586 724.852 548.857 699.99C584.729 660.085 586.075 607.125 585.596 589.59C584.751 562.756 577.508 536.503 564.461 512.984C577.517 489.47 584.761 463.214 585.596 436.379C586.075 418.874 584.64 365.914 548.857 325.979C526.586 301.146 505.54 297.586 484.047 262.814L483.778 262.428C474.647 247.271 469.679 230.003 469.369 212.346C469.233 200.414 465.756 188.754 459.325 178.671C449.729 163.837 431.584 150.397 397.924 145.175C382.517 142.926 367.753 137.51 354.578 129.272C351.588 127.374 348.599 125.297 345.61 122.923C299.185 86.697 303.31 30.6813 170.851 29.5835H168.937C151.001 29.5835 124.486 31.8385 91.5129 50.8862C58.6299 31.8385 32.1137 29.5835 14.0579 29.5835Z" fill="#D08B86"/>
<path opacity="0.4" d="M91.4957 856.762C281.35 856.762 435.258 704.057 435.258 515.686C435.258 327.314 281.35 174.609 91.4957 174.609C-98.359 174.609 -252.267 327.314 -252.267 515.686C-252.267 704.057 -98.359 856.762 91.4957 856.762Z" fill="#DAA49A"/>
<path opacity="0.4" d="M91.5407 186.499C135.131 186.383 178.311 194.842 218.584 211.389C258.857 227.935 295.424 252.24 326.169 282.896C357.082 313.391 381.589 349.666 398.273 389.622C414.957 429.579 423.485 472.422 423.363 515.671C423.485 558.919 414.957 601.763 398.273 641.719C381.589 681.675 357.082 717.951 326.169 748.445C295.432 779.114 258.867 803.428 218.592 819.98C178.318 836.532 135.134 844.993 91.5407 844.872C47.9475 844.993 4.76297 836.532 -35.5115 819.98C-75.786 803.428 -112.35 779.114 -143.087 748.445C-174 717.951 -198.509 681.675 -215.192 641.719C-231.876 601.763 -240.404 558.919 -240.282 515.671C-240.404 472.422 -231.876 429.579 -215.192 389.622C-198.509 349.666 -174 313.391 -143.087 282.896C-112.343 252.24 -75.776 227.935 -35.5027 211.389C4.77048 194.842 47.9508 186.383 91.5407 186.499ZM91.5407 174.609C0.362534 174.609 -87.0816 210.541 -151.557 274.502C-216.033 338.462 -252.259 425.213 -252.267 515.671C-252.267 606.134 -216.045 692.892 -151.568 756.859C-87.0918 820.826 0.357346 856.762 91.5407 856.762C182.708 856.739 270.134 820.792 334.591 756.827C399.048 692.863 435.258 606.118 435.258 515.671C435.25 425.213 399.024 338.462 334.549 274.502C270.073 210.541 182.629 174.609 91.4507 174.609H91.5407Z" fill="#D08B86"/>
<defs>
<radialGradient id="paint0_radial_554_982" cx="0" cy="0" r="1" gradientUnits="userSpaceOnUse" gradientTransform="translate(91.4531 512.984) scale(490.646 486.953)">
<stop stop-color="#F7EBE9"/>
<stop offset="1" stop-color="#DAA49A"/>
</radialGradient>
</defs>
</svg>
