<?xml version="1.0" encoding="utf-8"?>
<!-- Generator: Adobe Illustrator 26.5.0, SVG Export Plug-In . SVG Version: 6.00 Build 0)  -->
<svg version="1.1" id="Calque_1" xmlns="http://www.w3.org/2000/svg" xmlns:xlink="http://www.w3.org/1999/xlink" x="0px" y="0px"
	 viewBox="0 0 541.4 518.9" style="enable-background:new 0 0 541.4 518.9;" xml:space="preserve">
<style type="text/css">
	.st0{fill-rule:evenodd;clip-rule:evenodd;fill:#FEFCFB;}
	.st1{fill:url(#SVGID_1_);}
</style>
<path class="st0" d="M52.4,378.8c0-0.1-0.1-0.2-0.1-0.3c0-0.1,0-0.1,0-0.2C52.3,378.5,52.4,378.6,52.4,378.8L52.4,378.8z"/>
<path class="st0" d="M52.6,375.5C52.7,375.5,52.7,375.4,52.6,375.5c0,0.1-0.1,0.2-0.1,0.3C52.5,375.7,52.6,375.6,52.6,375.5z"/>
<path class="st0" d="M52.8,375.1c0,0,0.1-0.1,0.1-0.2C52.9,375,52.8,375.1,52.8,375.1C52.8,375.2,52.8,375.2,52.8,375.1z"/>
<path class="st0" d="M54,373.8c-0.1,0.1-0.2,0.2-0.3,0.3c0.1-0.1,0.1-0.1,0.2-0.1C53.9,373.9,54,373.8,54,373.8z"/>
<path class="st0" d="M52.3,378.4c0,0.1,0.1,0.3,0.1,0.4c0-0.1,0-0.1-0.1-0.2C52.3,378.5,52.3,378.4,52.3,378.4z"/>
<path class="st0" d="M52.6,375.5C52.7,375.5,52.7,375.4,52.6,375.5c0,0.1-0.1,0.2-0.1,0.3C52.5,375.7,52.6,375.6,52.6,375.5z"/>
<path class="st0" d="M52.8,375.1c0,0,0.1-0.1,0.1-0.2C52.9,375,52.8,375.1,52.8,375.1C52.8,375.2,52.8,375.2,52.8,375.1z"/>
<path class="st0" d="M54,373.8c-0.1,0.1-0.2,0.2-0.3,0.3c0.1-0.1,0.1-0.1,0.2-0.1C53.9,373.9,54,373.8,54,373.8z"/>
<g>
	
		<linearGradient id="SVGID_1_" gradientUnits="userSpaceOnUse" x1="310.1" y1="520.2925" x2="310.1" y2="941.4074" gradientTransform="matrix(1 0 0 1 0 -448)">
		<stop  offset="0" style="stop-color:#D08B86"/>
		<stop  offset="1" style="stop-color:#DAA49A"/>
	</linearGradient>
	<path class="st1" d="M514.1,282.8c5.6,10.2,8.7,21.7,9.1,33.4c0.2,7.6-0.4,30.7-15.8,48.1c-9.6,10.8-18.7,12.4-28,27.5l-0.1,0.2
		c-3.9,6.6-6.1,14.1-6.2,21.8c-0.1,5.2-1.6,10.3-4.3,14.7c-4.1,6.4-12,12.3-26.5,14.6c-6.6,1-13,3.3-18.7,6.9
		c-1.3,0.8-2.6,1.7-3.9,2.8c-20,15.8-18.2,40.2-75.4,40.6c-7.8,0-19.5-0.7-34.2-9.3c-14.7,8.6-26.4,9.4-34.2,9.3
		c-57.2-0.5-55.3-24.9-75.4-40.6c-1.3-1-2.6-1.9-3.9-2.8c-5.7-3.6-12-5.9-18.7-6.9c-14.5-2.3-22.4-8.2-26.5-14.6
		c-2.8-4.4-4.3-9.5-4.3-14.7c-0.1-7.7-2.3-15.2-6.2-21.8l-0.1-0.2c-9.3-15.2-18.3-16.7-28-27.5c-15.4-17.4-16.1-40.4-15.8-48.1
		c0.4-11.7,3.5-23.1,9.1-33.4c-5.6-10.2-8.8-21.7-9.1-33.3c-0.2-7.6,0.4-30.7,15.8-48.1c9.6-10.8,18.7-12.4,28-27.5l0.1-0.2
		c3.9-6.6,6.1-14.1,6.2-21.8c0.1-5.2,1.6-10.3,4.3-14.7c4.1-6.4,12-12.3,26.5-14.6c6.6-1,13-3.3,18.7-6.9c1.3-0.8,2.6-1.7,3.9-2.8
		c20-15.8,18.2-40.2,75.4-40.6c7.8,0,19.5,0.7,34.2,9.3c14.7-8.6,26.4-9.4,34.2-9.3c57.2,0.5,55.4,24.9,75.4,40.6
		c1.3,1,2.6,2,3.9,2.8c5.7,3.6,12,5.9,18.7,6.9c14.5,2.3,22.4,8.2,26.5,14.6c2.8,4.4,4.3,9.5,4.3,14.7c0.1,7.7,2.3,15.2,6.2,21.8
		l0.1,0.2c9.3,15.2,18.3,16.7,28,27.5c15.4,17.4,16.1,40.4,15.8,48.1C522.9,261.1,519.7,272.6,514.1,282.8z"/>
	<path class="st0" d="M455.6,91.9c2.3,2.7,2.1,6.7-0.6,9c-50.6,44.5-86.5,123-110.7,204.1c-24.1,80.9-36,163.3-39.8,214.3
		c-1.9,0-3.2,0-6.9,0s-1.1,0-6.2,0c3.9-51.8,16.2-136.1,40.6-218c24.4-81.7,61.1-163.1,114.5-210.1C449.3,89,453.3,89.2,455.6,91.9z
		"/>
	<path class="st0" d="M441,308.9c0.4,0.1,0.7,0.3,1,0.5C441.7,309.2,441.4,309,441,308.9z"/>
	<path class="st0" d="M442.7,309.9L442.7,309.9c0,0-0.1,0-0.1-0.1C442.6,309.8,442.6,309.8,442.7,309.9z"/>
	<path class="st0" d="M443,310.1l0.1,0.1C443,310.2,443,310.1,443,310.1C442.9,310.1,442.9,310.1,443,310.1z"/>
	<path class="st0" d="M443.2,319.3c0.1-0.1,0.2-0.2,0.3-0.3C443.5,319.1,443.4,319.1,443.2,319.3
		C443.3,319.2,443.2,319.2,443.2,319.3z"/>
	<path class="st0" d="M443.5,310.7c0-0.1-0.1-0.1-0.2-0.2l0.1,0.1C443.5,310.6,443.5,310.7,443.5,310.7z"/>
	<path class="st0" d="M445,314.8c0-0.2,0-0.4,0-0.6l0,0c0-0.2-0.1-0.4-0.1-0.6s-0.1-0.4-0.2-0.6s-0.1-0.4-0.2-0.6l0,0
		c-0.1-0.1-0.1-0.3-0.2-0.5c0,0,0-0.1-0.1-0.1c0,0,0-0.1-0.1-0.1c-0.1-0.1-0.1-0.2-0.2-0.3l-0.1-0.1c0,0-0.1-0.1-0.1-0.2
		c-0.1-0.1-0.1-0.2-0.2-0.2c0,0,0,0,0-0.1l0,0c0-0.1-0.1-0.1-0.2-0.2c0-0.1-0.1-0.1-0.2-0.2c0,0,0-0.1-0.1-0.1
		c-0.1-0.1-0.1-0.1-0.2-0.2l-0.1-0.1c-0.1-0.1-0.2-0.1-0.2-0.2c0.1,0,0.1,0.1,0.1,0.1c-11.6-10.6-22.3-16.3-32.3-17.4
		c-10.4-1.2-18.9,2.6-25.6,8.7c-6.5,6-11.2,14.2-14.6,22.5c-2.7,6.6-4.6,13.6-5.9,19.9c-18.6,13-36.2,27.1-48.2,37.3
		c-2.7,2.3-3,6.3-0.7,9s6.3,3,9,0.7c11.2-9.5,27.4-22.5,44.6-34.7c25.6,10.5,44.5,7.2,57.2-3.3c12.4-10.1,17.6-25.8,18.8-37
		c0,0.1,0,0.2,0,0.2c0-0.2,0.1-0.4,0.1-0.6C445,315.2,445,315,445,314.8z M382,328.5c3-7.3,6.8-13.6,11.4-17.9
		c4.4-4.1,9.5-6.1,15.5-5.4c4,0.5,8.9,2.2,14.6,5.9c-4.7,1.4-9.5,3.4-14.4,5.7c-9.2,4.3-19,9.9-28.8,16.1
		C380.9,331.4,381.4,329.9,382,328.5z M418,342.8c-7.1,5.8-18.4,9.5-36,4.2c0.2-0.1,0.5-0.3,0.7-0.5c11-7.2,22-13.7,31.8-18.2
		c6.1-2.8,11.5-4.8,16.1-6C428.5,329.7,424.5,337.5,418,342.8z M441,308.9c0.4,0.1,0.7,0.3,1,0.5C441.7,309.2,441.4,309,441,308.9z"
		/>
	<path class="st0" d="M363.4,349.9c0-0.5,0-1,0.1-1.5C363.3,348.9,363.3,349.4,363.4,349.9z"/>
	<path class="st0" d="M369.3,355.7c-0.1,0.1-0.2,0.2-0.3,0.2c-0.5-0.2-0.9-0.4-1.4-0.6c0.4,0.1,0.8,0.2,1.2,0.3
		C368.9,355.7,369.1,355.7,369.3,355.7z"/>
	<path class="st0" d="M441,308.9c0.4,0.1,0.7,0.3,1,0.5C441.7,309.2,441.4,309,441,308.9z"/>
	<path class="st0" d="M442.7,309.9L442.7,309.9c0,0-0.1,0-0.1-0.1C442.6,309.8,442.6,309.8,442.7,309.9z"/>
	<path class="st0" d="M445,315.4L445,315.4c0,0.2,0,0.3,0,0.3c0,0.1,0,0.2,0,0.2C445,315.8,445,315.6,445,315.4z"/>
	<path class="st0" d="M327.2,345.2c-8-6.6-18.4-16.4-28.6-27.5c0-0.1,0.1-0.2,0.1-0.3c7.5-22.7,2.5-39.4-8-50.7
		c-9.9-10.7-23.9-15.7-33.9-17.2c0.1,0,0.3,0.1,0.4,0.1s0.2,0,0.2,0.1c-0.4-0.1-0.8-0.2-1.2-0.2l0,0l0,0c-0.2,0-0.4,0-0.7,0
		c-0.2,0-0.4,0-0.6,0l0,0c-0.1,0-0.1,0-0.2,0s-0.2,0-0.3,0c-0.1,0-0.2,0-0.3,0c-0.2,0-0.3,0.1-0.5,0.1c0,0,0,0-0.1,0
		s-0.2,0.1-0.2,0.1c-0.1,0-0.2,0.1-0.2,0.1c-0.1,0-0.1,0-0.1,0.1c-0.1,0-0.2,0.1-0.3,0.1c-0.1,0-0.2,0.1-0.2,0.1
		c-0.1,0.1-0.3,0.2-0.4,0.3c0,0,0,0-0.1,0c0,0,0,0-0.1,0c-0.1,0.1-0.2,0.2-0.3,0.2l-0.1,0.1c-0.1,0.1-0.2,0.1-0.2,0.2
		c-0.1,0.1-0.1,0.1-0.2,0.2c0,0-0.1,0-0.1,0.1c-0.1,0.1-0.3,0.3-0.4,0.5c-0.1,0.1-0.2,0.2-0.3,0.4c-0.1,0.2-0.2,0.4-0.3,0.5
		c0,0,0,0.1-0.1,0.1c0,0.1-0.1,0.2-0.1,0.3v0.1l0,0c0,0.1-0.1,0.1-0.1,0.2v0.1c0,0.1,0,0.1-0.1,0.2c0,0.1,0,0.1,0,0.2l0,0
		c0,0.1-0.1,0.3-0.1,0.4c-3.6,13.7-6.7,33.9-3.1,49.2c1.8,7.8,5.7,15.4,13.2,19.6c7.3,4,16.4,3.8,27,0.1
		c11.5,12.8,23.5,24.1,32.5,31.6c2.7,2.3,6.8,1.9,9-0.8C330.3,351.5,330,347.5,327.2,345.2z M281.4,275.5c6,6.5,10.2,16.2,7.2,30.7
		c-1-1.2-2-2.4-2.9-3.6c-6.8-8.5-12.8-17.2-17-25.4c-2.4-4.6-4.2-9-5.3-12.9C269.7,266.4,276.4,270.1,281.4,275.5z M262,255.8
		c0-0.2,0-0.4,0-0.6c0,0.3,0,0.6,0,0.9C262,256,262,255.9,262,255.8z M265.7,312c-3.1-1.7-5.5-5.2-6.9-11.3
		c-1.2-5-1.5-10.9-1.1-17.1c4.7,9,11.1,18.1,18,26.9c0.6,0.7,1.2,1.4,1.7,2.2C271.6,314,267.9,313.3,265.7,312z"/>
	<path class="st0" d="M494,218.2L494,218.2v-0.1c0-0.1,0-0.2,0-0.3v-0.1c0-0.1,0-0.1,0-0.2v-0.1c0,0,0-0.1,0-0.2s0-0.1,0-0.2v-0.1
		l0,0c0-0.1-0.1-0.3-0.1-0.4v-0.1v-0.1c0-0.1,0-0.1-0.1-0.2c0-0.1,0-0.1-0.1-0.2l0,0c0-0.1-0.1-0.2-0.1-0.3l0,0
		c0-0.1-0.1-0.2-0.1-0.2c-0.2-0.3-0.4-0.6-0.6-0.9c-0.1-0.1-0.2-0.2-0.2-0.3l0,0c-0.1-0.1-0.2-0.2-0.2-0.2l-0.1-0.1l-0.1-0.1
		l-0.1-0.1c-0.1-0.1-0.1-0.1-0.2-0.2s-0.2-0.2-0.3-0.2c0,0,0,0-0.1,0s-0.1-0.1-0.2-0.1c-11.8-8-23-12-33.4-12.6
		c-10.5-0.6-19.7,2.1-27.5,6.7c-14.2,8.4-23.5,22.8-27.9,34.6c-23.5,13.2-46.5,28-62.1,38.8c-2.9,2-3.6,6-1.6,8.9s6,3.6,8.9,1.6
		c14.4-9.9,35.1-23.3,56.5-35.6c27.7,15.6,49.2,14,64.7,3.7c14.8-9.9,22.6-26.8,25.3-39.2v0.1c0-0.2,0.1-0.4,0.1-0.5
		s0.1-0.3,0.1-0.5c0,0,0,0,0-0.1V219c0-0.2,0-0.4,0-0.5C494,218.5,494,218.4,494,218.2z M489.9,212.6c0.1,0,0.1,0,0.2,0.1
		c-0.2-0.1-0.3-0.1-0.5-0.2C489.6,212.5,489.7,212.6,489.9,212.6z M436.5,218.3c5.8-3.4,12.6-5.4,20.2-5c1.9,0.1,3.9,0.4,5.9,0.8
		c-1.4,0.4-2.9,0.9-4.4,1.4c-10.8,3.5-23,9-35.6,15.4C426.4,226,431.1,221.6,436.5,218.3z M461.4,248.8c-9.4,6.3-23.5,9.1-44.2-0.5
		c2.2-1.2,4.4-2.4,6.6-3.5c14-7.3,27.3-13.4,38.5-17c5.6-1.8,10.5-3,14.5-3.5c0.9-0.1,1.8-0.2,2.6-0.2
		C476.2,233,470.3,242.8,461.4,248.8z M485.3,224.6L485.3,224.6c0.6,0.2,1.2,0.4,1.8,0.4C486.4,224.9,485.8,224.8,485.3,224.6z
		 M493.1,221.8c0.2-0.3,0.3-0.6,0.4-0.9v-0.1C493.5,221.1,493.3,221.5,493.1,221.8z"/>
	<path class="st0" d="M490,212.7c-0.2-0.1-0.3-0.1-0.5-0.2c0.1,0,0.2,0.1,0.3,0.1C489.9,212.6,490,212.7,490,212.7z"/>
	<path class="st0" d="M493.4,215.9L493.4,215.9c0,0-0.1-0.1-0.1-0.2C493.3,215.8,493.4,215.8,493.4,215.9z"/>
	<path class="st0" d="M299.7,128.5c0-0.1,0-0.1,0.1-0.2c-0.1,0.2-0.1,0.4-0.1,0.6C299.7,128.8,299.7,128.6,299.7,128.5z"/>
	<path class="st0" d="M300.2,127.3c0,0,0-0.1,0.1-0.1c-0.1,0.1-0.1,0.2-0.1,0.3c0,0,0,0.1-0.1,0.1l0,0
		C300.1,127.5,300.1,127.4,300.2,127.3z"/>
	<path class="st0" d="M300.7,126.4c0.1-0.1,0.2-0.2,0.3-0.4C300.9,126.1,300.8,126.3,300.7,126.4s-0.2,0.2-0.2,0.4
		C300.5,126.7,300.6,126.5,300.7,126.4z"/>
	<path class="st0" d="M301.7,125.3c0.1-0.1,0.2-0.2,0.3-0.2C301.9,125.1,301.8,125.2,301.7,125.3L301.7,125.3z"/>
	<path class="st0" d="M534.3,129.5c0-0.2,0-0.4-0.1-0.6c0-0.1,0-0.2,0-0.3v-0.1c0-0.2-0.1-0.3-0.1-0.5v-0.1c0-0.1-0.1-0.2-0.1-0.3
		v-0.1c-0.1-0.1-0.1-0.3-0.2-0.4c0,0,0,0,0-0.1s-0.1-0.2-0.1-0.2c0-0.1-0.1-0.1-0.1-0.1l0,0l-0.1-0.1c-0.1-0.1-0.1-0.2-0.2-0.3l0,0
		l-0.1-0.1c0,0,0,0,0-0.1c-0.1-0.1-0.1-0.2-0.2-0.3l-0.1-0.1c-0.1-0.1-0.2-0.2-0.2-0.2c-0.1-0.1-0.2-0.2-0.3-0.3s-0.2-0.2-0.3-0.2
		c-0.1-0.1-0.2-0.2-0.3-0.2c0,0,0,0-0.1,0c0,0-0.1,0-0.1-0.1c-0.1-0.1-0.2-0.1-0.3-0.2c0,0-0.1,0-0.1-0.1c0,0-0.1,0-0.2-0.1
		c-27.8-14.2-48.7-14.1-63.6-6.3c-14.3,7.5-21.4,21.3-23.9,31.9c-23.6,10.9-46.9,23.1-62.8,31.9c-3.1,1.7-4.2,5.6-2.5,8.7
		s5.6,4.2,8.7,2.5c14.7-8.2,35.8-19.2,57.5-29.4c12.3,8.8,23.7,13.3,34.2,14.1c10.7,0.9,19.9-1.9,27.7-6.7
		c15-9.4,24.1-26.3,28.1-38.7l0,0c0-0.1,0-0.2,0.1-0.2c0,0,0,0,0-0.1s0.1-0.3,0.1-0.4v-0.1c0-0.1,0-0.2,0-0.2s0,0,0-0.1v-0.1V131
		v-0.1c0-0.1,0-0.1,0-0.2v-0.1c0-0.1,0-0.3,0-0.4v-0.1C534.3,129.8,534.3,129.7,534.3,129.5z M472.9,129.3
		c6.5-3.4,15.8-5.3,28.5-2.5c-0.6,0.2-1.2,0.3-1.8,0.5c-11.8,3.5-25.7,8.9-40,15.1C462.5,137.3,466.9,132.4,472.9,129.3z M499,160.1
		c-5.6,3.5-12.2,5.5-19.8,4.8c-6.2-0.5-13.3-2.8-21.6-7.7c2.3-1,4.5-2,6.8-3c14.1-6.2,27.6-11.4,38.8-14.7
		c5.6-1.6,10.5-2.8,14.6-3.3c0.3,0,0.6-0.1,0.9-0.1C514.5,145.1,507.9,154.6,499,160.1z"/>
	<path class="st0" d="M525,135.7c0.3,0.2,0.7,0.3,1.1,0.4c-1.5-0.3-3.9-0.5-7.4,0c0.4-1,0.9-1.9,1.2-2.9
		C521.5,134,523.2,134.8,525,135.7z"/>
	<path class="st0" d="M529.5,123.8L529.5,123.8c0,0-0.1-0.1-0.2-0.1C529.4,123.8,529.5,123.8,529.5,123.8z"/>
	<path class="st0" d="M530.5,124.2c0.1,0,0.1,0.1,0.2,0.1C530.6,124.3,530.5,124.2,530.5,124.2S530.5,124.2,530.5,124.2z"/>
	<path class="st0" d="M533.9,132.2L533.9,132.2L533.9,132.2L533.9,132.2z"/>
	<path class="st0" d="M534.1,128.5c0-0.2-0.1-0.3-0.1-0.5c0,0.1,0.1,0.2,0.1,0.3S534.1,128.5,534.1,128.5z"/>
	<path class="st0" d="M534,131.9c0-0.1,0.1-0.3,0.1-0.4c0,0.1,0,0.2,0,0.2C534,131.8,534,131.8,534,131.9z"/>
	<path class="st0" d="M363.4,349.9c0-0.5,0-1,0.1-1.5C363.3,348.9,363.3,349.4,363.4,349.9z"/>
	<path class="st0" d="M369.3,355.7c-0.1,0.1-0.2,0.2-0.3,0.2c-0.5-0.2-0.9-0.4-1.4-0.6c0.4,0.1,0.8,0.2,1.2,0.3
		C368.9,355.7,369.1,355.7,369.3,355.7z"/>
	<path class="st0" d="M443,310.1l0.1,0.1C443,310.2,443,310.1,443,310.1C442.9,310.1,442.9,310.1,443,310.1z"/>
	<path class="st0" d="M443.2,319.3c0.1-0.1,0.2-0.2,0.3-0.3C443.5,319.1,443.4,319.1,443.2,319.3
		C443.3,319.2,443.2,319.2,443.2,319.3z"/>
	<path class="st0" d="M443.4,310.6c0,0,0,0.1,0.1,0.1C443.5,310.6,443.4,310.6,443.4,310.6L443.4,310.6z"/>
	<path class="st0" d="M445,315.5L445,315.5c0,0.1,0,0.2,0,0.3c0,0.1,0,0.2,0,0.2C445,315.8,445,315.6,445,315.5c0-0.3,0-0.5,0-0.7
		s0-0.4,0-0.6C445,314.6,445,315,445,315.5z"/>
	<path class="st0" d="M249.8,253.2L249.8,253.2C249.8,253.2,249.8,253.3,249.8,253.2C249.8,253.3,249.8,253.3,249.8,253.2z"/>
	<path class="st0" d="M251.8,250.7c0.1,0,0.1-0.1,0.2-0.1c-0.1,0.1-0.2,0.2-0.3,0.2C251.7,250.8,251.8,250.8,251.8,250.7z"/>
	<path class="st0" d="M253.4,249.9C253.4,249.9,253.4,249.8,253.4,249.9c0,0-0.1,0-0.2,0.1c-0.1,0-0.1,0-0.1,0.1
		c-0.1,0-0.2,0.1-0.3,0.1c0.1,0,0.1-0.1,0.2-0.1C253.1,250,253.2,249.9,253.4,249.9z"/>
	<path class="st0" d="M254,249.6c0.1,0,0.1,0,0.2,0c-0.2,0-0.3,0.1-0.5,0.1C253.9,249.7,253.9,249.7,254,249.6z"/>
	<path class="st0" d="M254.6,249.5c0.1,0,0.2,0,0.4,0c-0.1,0-0.1,0-0.2,0C254.7,249.5,254.6,249.5,254.6,249.5
		C254.5,249.5,254.6,249.5,254.6,249.5z"/>
	<path class="st0" d="M256.1,249.5c0.1,0,0.1,0,0.2,0l0,0c-0.2,0-0.4,0-0.7,0c-0.2,0-0.4,0-0.6,0c0,0,0,0,0.1,0c0.2,0,0.4,0,0.6,0
		C255.8,249.4,256,249.4,256.1,249.5z"/>
	<path class="st0" d="M257.3,249.7c0.1,0,0.2,0,0.2,0.1c-0.4-0.1-0.8-0.2-1.2-0.2l0,0c0.1,0,0.2,0,0.3,0c0.1,0,0.2,0,0.3,0.1
		C257,249.6,257.2,249.6,257.3,249.7z"/>
	<path class="st0" d="M262.1,256c0-0.1,0-0.1,0-0.2c0-0.2,0-0.4,0-0.6C262,255.4,262.1,255.7,262.1,256z"/>
	<path class="st0" d="M249.8,253.2L249.8,253.2C249.8,253.2,249.8,253.3,249.8,253.2L249.8,253.2
		C249.8,253.3,249.8,253.3,249.8,253.2z"/>
	<path class="st0" d="M251.8,250.7c0.1,0,0.1-0.1,0.2-0.1c-0.1,0.1-0.2,0.2-0.3,0.2C251.7,250.8,251.8,250.8,251.8,250.7z"/>
	<path class="st0" d="M253,250h0.1c-0.1,0-0.2,0.1-0.3,0.1C252.8,250.1,252.9,250.1,253,250z"/>
	<path class="st0" d="M253.4,249.9C253.4,249.9,253.4,249.8,253.4,249.9c0,0-0.1,0-0.2,0.1C253.3,249.9,253.3,249.9,253.4,249.9z"/>
	<path class="st0" d="M254,249.6c0.1,0,0.1,0,0.2,0c-0.2,0-0.3,0.1-0.5,0.1C253.9,249.7,253.9,249.7,254,249.6z"/>
	<path class="st0" d="M254.6,249.5c0.1,0,0.1,0,0.2,0C254.7,249.5,254.6,249.5,254.6,249.5C254.5,249.5,254.6,249.5,254.6,249.5z"/>
	<path class="st0" d="M256.1,249.5c0,0,0.1,0,0.2,0c-0.2,0-0.4,0-0.7,0c-0.2,0-0.4,0-0.6,0c0,0,0,0,0.1,0c0.2,0,0.4,0,0.6,0
		C255.8,249.4,256,249.4,256.1,249.5z"/>
	<path class="st0" d="M257.3,249.7c0.1,0,0.2,0,0.2,0.1c-0.4-0.1-0.8-0.2-1.2-0.2c0.1,0,0.1,0,0.2,0s0.2,0,0.3,0.1
		C257,249.6,257.2,249.6,257.3,249.7z"/>
	<path class="st0" d="M262.1,256c0-0.1,0-0.1,0-0.2c0-0.2,0-0.4,0-0.6C262,255.4,262.1,255.7,262.1,256z"/>
	<path class="st0" d="M299.7,128.5c0-0.1,0-0.1,0.1-0.2c-0.1,0.2-0.1,0.4-0.1,0.6C299.7,128.8,299.7,128.6,299.7,128.5z"/>
	<path class="st0" d="M300.2,127.3c0,0,0-0.1,0.1-0.1c-0.1,0.1-0.1,0.2-0.1,0.3C300.1,127.4,300.1,127.4,300.2,127.3z"/>
	<path class="st0" d="M300.7,126.4L300.7,126.4c-0.1,0.1-0.2,0.2-0.2,0.4C300.5,126.7,300.6,126.5,300.7,126.4z"/>
	<path class="st0" d="M301.7,125.3c0.1-0.1,0.2-0.2,0.3-0.2C301.9,125.1,301.8,125.2,301.7,125.3L301.7,125.3z"/>
	<path class="st0" d="M307,123.9L307,123.9c-0.2,0-0.3-0.1-0.5-0.1h0.1C306.8,123.8,306.9,123.9,307,123.9z"/>
	<path class="st0" d="M307.3,123.9c0.1,0,0.2,0,0.3,0.1c-0.2,0-0.4-0.1-0.6-0.1C307.1,123.9,307.2,123.9,307.3,123.9z"/>
	<path class="st0" d="M307.7,124c0.1,0,0.3,0.1,0.4,0.2c-0.2-0.1-0.4-0.1-0.5-0.2C307.7,124,307.7,124,307.7,124z"/>
	<path class="st0" d="M308.3,124.2c0.1,0.1,0.3,0.1,0.4,0.2C308.5,124.3,308.4,124.3,308.3,124.2
		C308.2,124.2,308.2,124.2,308.3,124.2z"/>
	<path class="st0" d="M363,243.3c-4.6-7.5-10.7-18-17.1-30c0.3-0.4,0.6-0.8,0.8-1.2c12.1-23.2,8.1-43.2-1.9-58.4
		c-9.8-14.7-25.2-24.7-36.4-29.5c-0.1,0-0.1,0-0.2-0.1c0.1,0.1,0.3,0.1,0.4,0.2c-0.1-0.1-0.3-0.1-0.5-0.2l0,0
		c-0.2-0.1-0.4-0.1-0.5-0.2c-0.2,0-0.4-0.1-0.6-0.1s-0.4-0.1-0.5-0.1c-0.2,0-0.4,0-0.6,0s-0.3,0-0.5,0c-0.1,0-0.2,0-0.3,0
		c0,0,0,0-0.1,0c-0.2,0-0.3,0-0.5,0.1c0,0,0,0-0.1,0s-0.2,0.1-0.4,0.1c-0.1,0-0.1,0-0.2,0.1c-0.2,0-0.3,0.1-0.5,0.2
		c0,0-0.1,0-0.1,0.1c-0.1,0-0.1,0.1-0.2,0.1s-0.1,0.1-0.2,0.1c-0.2,0.1-0.4,0.2-0.6,0.3c-0.1,0-0.1,0.1-0.2,0.1c0,0-0.1,0-0.1,0.1
		l0,0c-0.1,0.1-0.2,0.2-0.3,0.2c0,0,0,0-0.1,0.1s-0.2,0.2-0.3,0.3c0,0,0,0-0.1,0.1s-0.2,0.2-0.2,0.3l0,0c-0.1,0.1-0.2,0.2-0.3,0.4
		c-0.1,0.1-0.2,0.3-0.3,0.4c-0.1,0.1-0.2,0.3-0.2,0.4c-0.1,0.1-0.1,0.2-0.1,0.3c0,0,0,0.1-0.1,0.1s0,0.1-0.1,0.2
		c0,0.1-0.1,0.2-0.1,0.2c0,0.1-0.1,0.2-0.1,0.3c-0.1,0.2-0.1,0.4-0.1,0.6c0-0.1,0-0.2,0.1-0.4c-5,16.7-9.7,41.4-6.5,60.6
		c1.6,9.7,5.4,19.1,13.3,25c7.1,5.3,16.5,6.8,27.7,4.6c6.6,12.5,13,23.5,17.8,31.3c1.8,3,5.8,4,8.8,2.1
		C363.9,250.3,364.8,246.4,363,243.3z M334.1,160.8c6.8,10.1,10.1,22.9,4.4,38.3c-1.7-3.5-3.5-7-5.2-10.5
		c-7.7-16.2-14.5-32.6-18.3-46.2C322,147,329.1,153.2,334.1,160.8z M314.1,203.9c-4.1-3-6.9-8.6-8.3-16.8c-1.5-8.8-1-19.3,0.5-29.6
		c4.1,11.9,9.6,24.6,15.4,36.7c2,4.2,4.1,8.5,6.2,12.6C321.4,207.4,317,206,314.1,203.9z"/>
	<path class="st0" d="M300,127.6c0,0,0-0.1,0.1-0.1C300,127.6,300,127.6,300,127.6L300,127.6z"/>
	<path class="st0" d="M307,123.9L307,123.9c-0.2,0-0.3-0.1-0.5-0.1h0.1C306.8,123.8,306.9,123.9,307,123.9z"/>
	<path class="st0" d="M307.3,123.9c0.1,0,0.2,0,0.3,0.1c-0.2,0-0.4-0.1-0.6-0.1C307.1,123.9,307.2,123.9,307.3,123.9z"/>
	<path class="st0" d="M307.7,124c0.1,0,0.3,0.1,0.4,0.2c-0.2-0.1-0.4-0.1-0.5-0.2C307.7,124,307.7,124,307.7,124z"/>
	<path class="st0" d="M308.3,124.2c0.1,0.1,0.3,0.1,0.4,0.2C308.5,124.3,308.4,124.3,308.3,124.2
		C308.2,124.2,308.2,124.2,308.3,124.2z"/>
	<path class="st0" d="M485.3,224.6c0.6,0.2,1.1,0.3,1.7,0.4C486.4,224.9,485.8,224.8,485.3,224.6L485.3,224.6z"/>
	<path class="st0" d="M489.9,212.6c0.1,0,0.1,0,0.2,0.1c-0.2-0.1-0.3-0.1-0.5-0.2C489.6,212.5,489.7,212.6,489.9,212.6z"/>
	<path class="st0" d="M493.9,219.8c0-0.1,0.1-0.3,0.1-0.5c0,0.2,0,0.4-0.1,0.7c0,0.1,0,0.2-0.1,0.2v0.1
		C493.8,220.1,493.8,219.9,493.9,219.8z"/>
	<path class="st0" d="M493.6,220.9C493.6,220.8,493.6,220.8,493.6,220.9c-0.1,0.2-0.2,0.6-0.4,0.9
		C493.3,221.5,493.4,221.2,493.6,220.9z"/>
	<path class="st0" d="M493.6,220.8c0.1-0.2,0.1-0.3,0.2-0.5C493.7,220.5,493.7,220.6,493.6,220.8z"/>
	<path class="st0" d="M485.3,224.6c0.6,0.2,1.1,0.3,1.7,0.4C486.4,224.9,485.8,224.8,485.3,224.6L485.3,224.6z"/>
	<path class="st0" d="M493.4,216c0-0.1-0.1-0.2-0.1-0.3C493.3,215.8,493.4,215.8,493.4,216C493.4,215.9,493.4,216,493.4,216
		L493.4,216z"/>
	<path class="st0" d="M493.8,220.3c0-0.2,0.1-0.4,0.1-0.5c0,0.1,0,0.1,0,0.2C493.8,220.1,493.8,220.1,493.8,220.3
		C493.8,220.2,493.8,220.3,493.8,220.3z"/>
	<path class="st0" d="M493.6,220.8c0.1-0.2,0.1-0.3,0.2-0.5C493.7,220.5,493.7,220.6,493.6,220.8z"/>
	<path class="st0" d="M493.6,220.9C493.6,220.8,493.6,220.8,493.6,220.9c-0.1,0.2-0.2,0.6-0.4,0.9
		C493.3,221.5,493.4,221.2,493.6,220.9z"/>
	<path class="st0" d="M529.5,123.8L529.5,123.8c0,0-0.1-0.1-0.2-0.1C529.4,123.8,529.5,123.8,529.5,123.8z"/>
	<path class="st0" d="M529.8,123.9c0.1,0,0.1,0,0.2,0.1C529.9,124,529.8,123.9,529.8,123.9L529.8,123.9z"/>
	<path class="st0" d="M530.5,124.2c0.1,0,0.1,0.1,0.2,0.1C530.6,124.3,530.5,124.2,530.5,124.2S530.5,124.2,530.5,124.2z"/>
	<path class="st0" d="M534,131.9c0-0.1,0.1-0.3,0.1-0.4c0,0.1,0,0.2,0,0.2C534,131.8,534,131.9,534,131.9L534,131.9z"/>
	<path class="st0" d="M534.1,128.5c0-0.2-0.1-0.3-0.1-0.5c0,0.1,0.1,0.2,0.1,0.3S534.1,128.5,534.1,128.5z"/>
	<path class="st0" d="M525,135.7c0.3,0.2,0.7,0.3,1.1,0.4c-1.5-0.3-3.9-0.5-7.4,0c0.4-1,0.9-1.9,1.2-2.9
		C521.5,134,523.2,134.8,525,135.7z"/>
	<path class="st0" d="M529.8,123.9c0.1,0,0.1,0,0.2,0.1C529.9,124,529.8,123.9,529.8,123.9L529.8,123.9z"/>
	<path class="st0" d="M533.9,132.2L533.9,132.2L533.9,132.2L533.9,132.2z"/>
	<path class="st0" d="M414.1,77.8c3.3-17.7-4.3-42-30.5-74.6c-1.2-1.6-3.1-2.4-4.9-2.4l0,0c-0.2-0.1-0.5-0.2-0.7-0.3
		c-0.1,0-0.2-0.1-0.3-0.1c-0.1,0-0.2-0.1-0.4-0.1c-0.1,0-0.2-0.1-0.3-0.1c-0.5-0.1-1-0.2-1.5-0.2c-0.1,0-0.3,0-0.4,0
		c-0.2,0-0.3,0-0.5,0.1c-0.2,0-0.3,0-0.5,0.1c-0.1,0-0.3,0.1-0.4,0.1s-0.1,0-0.2,0.1c-0.1,0-0.2,0.1-0.3,0.1c-0.1,0-0.2,0.1-0.3,0.1
		c-0.1,0-0.2,0.1-0.3,0.1c-0.1,0.1-0.2,0.1-0.3,0.2C372.2,1,372.1,1,372,1.1c-0.2,0.1-0.3,0.2-0.5,0.4c-0.1,0.1-0.2,0.2-0.3,0.3
		c-0.3,0.3-0.7,0.7-0.9,1.1c0,0-0.1,0.1-0.1,0.2c-10.3,15.3-22.6,38.9-25.1,59.8c-1.3,10.5-0.2,21.3,6,29.9
		c5.9,8.2,15.7,13.2,29.2,14.7c5.5,18.7,11.6,35.8,16.4,47.8c1.3,3.3,5,4.9,8.3,3.6c3.3-1.3,4.9-5,3.6-8.3
		c-4.6-11.5-10.5-27.8-15.7-45.7C402.2,100.3,411.4,91.8,414.1,77.8z M361.4,85.1c-3.5-4.9-4.8-12-3.7-20.9
		c1.1-8.9,4.3-18.7,8.5-28.1c0.1,1,0.1,2,0.2,3c0.9,13.1,3.5,27.4,6.7,41.6c1,4.4,2.1,8.7,3.2,13C368.6,92.1,364,88.9,361.4,85.1z
		 M401.5,75.4C400,83.6,395,89,389.2,92.2c-1.3-4.7-2.5-9.5-3.6-14.3c-3.2-13.8-5.6-27.5-6.4-39.6c-0.5-7.3-0.5-13.9,0.2-19.6
		C399.8,46.1,403.6,64.3,401.5,75.4z"/>
	<path class="st0" d="M538,5V4.6c0-0.2,0-0.4-0.1-0.5c0,0.1,0,0.2,0,0.2C537.9,4.6,538,4.8,538,5z"/>
	<path class="st0" d="M449.7,104.2c16.7,4.4,38.6,4.3,57.1-8.2c20.3-13.7,34.5-41,33.9-88V7.9V7.5c0-0.2,0-0.4,0-0.5s0-0.1,0-0.2
		c0-0.2,0-0.4-0.1-0.5c0-0.2-0.1-0.3-0.1-0.5c-0.1-0.2-0.1-0.3-0.2-0.4c0-0.1-0.1-0.2-0.1-0.3c-0.1-0.2-0.1-0.3-0.2-0.4
		c-0.1-0.2-0.2-0.3-0.3-0.5c0,0,0,0,0-0.1c-0.1-0.1-0.2-0.2-0.2-0.3s-0.1-0.1-0.1-0.2c-0.1-0.1-0.2-0.3-0.4-0.4
		c-0.1-0.1-0.3-0.3-0.4-0.4c-0.1-0.1-0.3-0.2-0.4-0.3c0,0,0,0-0.1,0c-0.1-0.1-0.2-0.2-0.4-0.2c-0.4-0.2-0.8-0.4-1.2-0.6
		c-0.2-0.1-0.4-0.1-0.6-0.2c-0.2-0.1-0.4-0.1-0.6-0.1c-0.2,0-0.4-0.1-0.7-0.1c-0.1,0-0.3,0-0.4,0l0,0c0,0,0,0-0.1,0s-0.2,0-0.2,0
		c-42.8,2.6-68,18.7-81.4,39c-13.2,19.9-14.3,42.7-11.4,57.8c0,0.2,0.1,0.3,0.1,0.5c0.1,0.2,0.1,0.3,0.2,0.5c0,0.1,0.1,0.3,0.2,0.4
		c0.1,0.2,0.2,0.3,0.3,0.5c0.1,0.2,0.2,0.3,0.3,0.4c0.1,0.1,0.2,0.3,0.3,0.4c0.1,0.1,0.2,0.3,0.4,0.4c0.1,0.1,0.2,0.2,0.3,0.3
		c0.2,0.2,0.5,0.4,0.7,0.6c0.1,0.1,0.2,0.1,0.3,0.2c0.1,0.1,0.2,0.1,0.3,0.2c0.3,0.2,0.6,0.3,0.9,0.4h0.1L449.7,104.2z M463.2,47.3
		C472.6,33,490,20,521.1,15.4c-22.3,26.5-51.4,55.4-68.5,71.6C452.1,75.2,454.5,60.3,463.2,47.3z M499.6,85.4
		c-10.9,7.4-23.8,9.4-35.5,8.4c16.5-15.8,42-41.3,63-65.7C524.1,59.6,512.6,76.7,499.6,85.4z"/>
	<path class="st0" d="M78.7,279.1c-0.8,2.4,0.4,5,2.7,5.8c45,16.2,89.2,58.6,126.3,105.9c37,47.1,65.2,95.9,81,128.6
		c2.5,0,3.8,0,6.3,0c3.1,0,4.4,0,4.4,0c-16.1-33.2-47.1-86.5-84.6-134.2c-37.4-47.6-82.9-91.8-130.4-108.8
		C82.1,275.5,79.5,276.8,78.7,279.1z"/>
	<path class="st0" d="M87,283.9c-0.3,0.4-0.7,0.7-1.2,0.9C86.2,284.5,86.6,284.2,87,283.9z"/>
	<path class="st0" d="M144.2,418.9c0.1-0.2,0.3-0.5,0.5-0.7C144.5,418.4,144.3,418.6,144.2,418.9z"/>
	<path class="st0" d="M143.5,421.9c0,0,0-0.1,0-0.2v-0.1C143.5,421.7,143.5,421.8,143.5,421.9z"/>
	<path class="st0" d="M143.7,419.8c0,0.1-0.1,0.2-0.1,0.3C143.7,420,143.7,419.9,143.7,419.8L143.7,419.8z"/>
	<path class="st0" d="M143.9,419.3c0,0.1-0.1,0.2-0.1,0.2l0,0C143.9,419.4,143.9,419.3,143.9,419.3z"/>
	<path class="st0" d="M144.2,418.9c0.1-0.2,0.3-0.5,0.5-0.7C144.5,418.4,144.3,418.6,144.2,418.9z"/>
	<path class="st0" d="M272.1,363.8c-1.6-11.1-8.9-23.6-14.9-31.7c0.1,0.1,0.1,0.2,0.2,0.3c-0.1-0.2-0.2-0.3-0.3-0.5
		c-0.1-0.2-0.2-0.3-0.4-0.4c-0.1-0.1-0.1-0.1-0.2-0.2s-0.1-0.1-0.2-0.2h-0.1l-0.1-0.1c-0.1-0.1-0.2-0.1-0.3-0.2c0,0-0.1,0-0.1-0.1
		h-0.1h-0.1c-0.1-0.1-0.2-0.1-0.4-0.2c-0.2-0.1-0.3-0.1-0.5-0.2c0,0,0,0-0.1,0l0,0h-0.1c-0.2,0-0.3-0.1-0.5-0.1l0,0c0,0,0,0-0.1,0
		c-0.2,0-0.3,0-0.5,0l0,0c-0.2,0-0.3,0-0.5,0c0,0,0,0-0.1,0h-0.1c-0.2,0-0.3,0-0.5,0.1l0,0c-0.2,0-0.4,0.1-0.5,0.2
		c-0.1,0-0.1,0-0.2,0.1c-0.1,0-0.2,0.1-0.3,0.2c0,0,0,0-0.1,0l0,0c0,0-0.1,0-0.1,0.1l0,0c-6.2,3.6-14.2,10.6-17.9,20.2
		c-4,10.2-2.9,22.5,8,35.5c0,0.1,0.1,0.1,0.1,0.1c-3.8,10-8.2,19.1-11.7,25.6c-1.2,2.2-0.4,5,1.8,6.2s5,0.4,6.2-1.8
		c4-7.4,9-18,13.2-29.4c8-0.3,14-2.6,17.8-7.1C272.4,375.5,272.9,369.4,272.1,363.8z M249.2,333.2c-0.1,0.3-0.2,0.6-0.2,0.9
		C249,333.8,249,333.5,249.2,333.2z M241.6,354.3c1.9-4.9,5.4-9,9-12.1c0.3,2.9,0.3,6.2-0.1,9.9c-0.7,6.5-2.3,13.8-4.6,21.2
		c-0.3,1-0.7,2.1-1,3.1C239.1,367.6,239.3,360.2,241.6,354.3z M261.5,374.3c-1.2,1.4-3.4,2.9-7.6,3.5c0.2-0.6,0.4-1.2,0.6-1.9
		c2.3-7.6,4.1-15.3,4.9-22.5c1.8,4,3.2,8,3.7,11.6C263.8,369.5,263.1,372.4,261.5,374.3z"/>
	<path class="st0" d="M248.9,334.1c0-0.3,0.1-0.6,0.2-0.9C249,333.5,249,333.8,248.9,334.1z"/>
	<path class="st0" d="M251.8,330.4c0.2-0.1,0.3-0.1,0.5-0.2C252.1,330.3,251.9,330.4,251.8,330.4S251.8,330.4,251.8,330.4z"/>
	<path class="st0" d="M252.6,330.2c0,0,0.1,0,0.2,0c-0.2,0-0.3,0-0.5,0.1C252.4,330.2,252.5,330.2,252.6,330.2z"/>
	<path class="st0" d="M253,330.1c0.1,0,0.2,0,0.4,0c-0.2,0-0.3,0-0.5,0C253,330.1,253,330.1,253,330.1z"/>
	<path class="st0" d="M255.1,330.4L255.1,330.4c0,0-0.2-0.1-0.4-0.1h0.1C254.9,330.3,255,330.4,255.1,330.4z"/>
	<path class="st0" d="M256.8,331.5c0.1,0.1,0.2,0.2,0.3,0.3C256.9,331.7,256.8,331.6,256.8,331.5
		C256.7,331.5,256.7,331.5,256.8,331.5z"/>
	<path class="st0" d="M257.2,332.1c0.1,0.1,0.1,0.2,0.2,0.3c-0.1-0.2-0.2-0.3-0.3-0.5c0,0,0,0,0.1,0.1
		C257.1,332,257.2,332,257.2,332.1z"/>
	<path class="st0" d="M204.3,373.1c-13.1-3.1-32.2-6.9-51.1-9.5c-6-6.6-15.9-13.8-27.5-15.6c-6.3-1-13.2-0.4-19.9,2.7
		c-6.7,3.1-13.1,8.7-18.9,17.1c0,0,0,0,0,0.1l0,0c-0.1,0.1-0.2,0.3-0.2,0.4l0,0c0,0,0,0.1-0.1,0.1c0,0.1-0.1,0.2-0.1,0.3
		c0,0.1,0,0.1-0.1,0.2c0,0.1-0.1,0.2-0.1,0.3v0.1c0,0.1,0,0.3-0.1,0.4v0.1v0.1c0,0.1,0,0.3,0,0.5c0,0.1,0,0.3,0,0.4s0,0.2,0.1,0.4
		c0,0,0,0,0,0.1v0.1c0,0.1,0,0.2,0.1,0.3c0,0.1,0,0.2,0.1,0.2v0.1l0,0c0,0.1,0.1,0.2,0.2,0.4c0,0.1,0.1,0.2,0.1,0.2l0,0
		c0,0.1,0.1,0.1,0.1,0.2c0,0,0,0,0,0.1s0.1,0.1,0.1,0.2c5.1,7.5,14.6,16.6,26.9,19.2c12.9,2.8,27.5-1.8,41.8-19.3
		c17.3,2.5,34.5,6,46.5,8.8c2.4,0.6,4.9-1,5.5-3.4C208.2,376.1,206.7,373.7,204.3,373.1z M109.6,359c5-2.3,9.9-2.7,14.7-2
		c4.4,0.7,8.7,2.5,12.4,4.7c-10-0.9-19.5-1.3-27.5-0.9c-1.1,0.1-2.2,0.1-3.3,0.2C107.2,360.3,108.4,359.6,109.6,359z M115.8,383.6
		c-7.5-1.6-13.9-6.5-18.4-11.7c0.5-0.2,1.1-0.4,1.8-0.5c2.8-0.7,6.3-1.2,10.5-1.5c8.3-0.5,18.7,0,29.9,1.2c1.7,0.2,3.5,0.4,5.3,0.6
		C133.7,383.4,123.7,385.3,115.8,383.6z"/>
	<path class="st0" d="M86.2,369.6v-0.1c0,0.1,0,0.3-0.1,0.4C86.2,369.8,86.2,369.7,86.2,369.6z"/>
	<path class="st0" d="M86.3,369.1V369c0,0.1-0.1,0.2-0.1,0.3C86.3,369.3,86.3,369.2,86.3,369.1z"/>
	<path class="st0" d="M86.5,368.7c0-0.1,0-0.1,0.1-0.2C86.6,368.6,86.5,368.7,86.5,368.7C86.4,368.8,86.4,368.7,86.5,368.7z"/>
	<path class="st0" d="M211.2,300.4c-2.9-13.6-12.5-28.7-20.1-38.4l0,0c-0.1-0.1-0.1-0.1-0.2-0.2c0,0,0,0-0.1-0.1l0,0
		c-0.1-0.1-0.1-0.1-0.2-0.2l0,0c0,0,0,0-0.1,0c-0.1-0.1-0.2-0.1-0.2-0.2c-0.1-0.1-0.2-0.2-0.3-0.2l0,0c-0.2-0.1-0.4-0.2-0.5-0.3
		h-0.1c0,0,0,0-0.1,0s-0.2-0.1-0.3-0.1l0,0l0,0c-0.1,0-0.2-0.1-0.3-0.1s-0.2-0.1-0.3-0.1c0,0,0,0-0.1,0c-0.4-0.1-0.8-0.1-1.3,0
		c-0.2,0-0.3,0-0.5,0.1l0,0c-0.1,0-0.2,0-0.3,0.1h-0.1c-0.1,0-0.1,0-0.2,0.1c0,0,0,0-0.1,0s-0.2,0.1-0.3,0.2h-0.1
		c-0.3,0.1-0.5,0.3-0.8,0.5c-0.1,0.1-0.2,0.1-0.3,0.2l0,0c-0.1,0.1-0.2,0.2-0.3,0.4c0-0.1,0.1-0.1,0.2-0.2
		c-6.1,6.1-13.6,16.6-16.2,28.8c-2.7,12.7-0.1,26.9,13.9,39c0.3,0.2,0.6,0.4,0.9,0.6c-1.1,9.6-2.4,18.1-3.5,24.3
		c-0.4,2.5,1.2,4.8,3.7,5.2c2.5,0.4,4.8-1.2,5.3-3.7c1.1-6.4,2.5-15.4,3.6-25.3c8-1.4,13.8-4.9,17.1-10.2
		C212.7,314.5,212.7,307.2,211.2,300.4z M176.9,292.4c1.4-6.3,4.4-12.3,7.8-17.1c1,10,0.8,22.6,0,35.3c-0.2,2.8-0.4,5.5-0.7,8.3
		C176.2,310.1,175.1,300.8,176.9,292.4z M201.3,315.6c-1.3,2.2-3.8,4.2-8.4,5.5c0.3-3.3,0.6-6.6,0.8-9.9c0.7-9.5,1-19.3,0.6-28.3
		c3.7,6.4,6.7,13.3,8.1,19.4C203.6,308.1,203.2,312.5,201.3,315.6z"/>
	<path class="st0" d="M184.2,261.7c0.1,0,0.1-0.1,0.1-0.1c-0.1,0.1-0.2,0.2-0.3,0.4C184.1,261.9,184.1,261.8,184.2,261.7z"/>
	<path class="st0" d="M150.9,318.2c-12.8-1.7-31.4-3.6-49.8-4.7c-4.4-6.4-12.7-13.6-24.1-14.8c-11.9-1.3-25.7,4.1-40.4,20.7
		c-0.1,0.1-0.2,0.2-0.2,0.3c0,0,0,0,0,0.1l-0.1,0.1c-0.1,0.1-0.1,0.2-0.2,0.3c0,0.1-0.1,0.2-0.1,0.2c0,0.1-0.1,0.1-0.1,0.2
		c-0.1,0.1-0.1,0.2-0.1,0.3c-0.1,0.1-0.1,0.2-0.1,0.3c0,0.1-0.1,0.2-0.1,0.3c0,0,0,0,0,0.1l0,0c0,0.1,0,0.1,0,0.2s0,0.1,0,0.2
		c0,0,0,0,0,0.1c0,0.2,0,0.4,0,0.6c0,0.1,0,0.2,0,0.4v0.1v0.1c0,0.1,0,0.2,0.1,0.3c0,0.1,0.1,0.3,0.1,0.4c0,0,0,0,0,0.1v0.1
		c0,0.1,0.1,0.2,0.1,0.4c0,0.1,0.1,0.2,0.2,0.3c0,0.1,0.1,0.2,0.2,0.3l0.1,0.1c0.1,0.1,0.1,0.2,0.2,0.2c0.1,0.1,0.1,0.1,0.2,0.2
		c5.9,7.2,16.3,15.9,28.6,18.2c6.4,1.2,13.2,0.6,20-2.8c6.7-3.3,13.1-9.2,18.9-18.2c17,1.1,33.8,2.9,45.7,4.5
		c2.5,0.3,4.8-1.4,5.1-3.9C155.2,320.8,153.4,318.5,150.9,318.2z M76.1,307.7c4.8,0.5,8.9,2.6,12.2,5.2c-11-0.4-21.6-0.3-30.3,0.5
		c-0.4,0-0.9,0.1-1.3,0.1C64.3,308.3,70.9,307.1,76.1,307.7z M37.1,319c0,0,0.1-0.1,0.2-0.1c-0.1,0.1-0.2,0.2-0.3,0.3
		C37,319.1,37,319,37.1,319z M81.2,332.9c-4.9,2.4-9.7,2.8-14.3,2c-7.3-1.3-14.1-5.8-19.2-10.7c0.2,0,0.4-0.1,0.6-0.2
		c2.8-0.7,6.4-1.2,10.5-1.6c8.2-0.7,18.5-0.8,29.4-0.4c1.7,0.1,3.5,0.1,5.2,0.2C89.3,327.6,85.1,330.9,81.2,332.9z"/>
	<path class="st0" d="M144.2,230.4c-7.1-13.1-21.3-25.5-32.1-32.9c-0.1,0-0.1-0.1-0.2-0.1c-0.1-0.1-0.2-0.1-0.3-0.2
		c-0.2-0.1-0.4-0.2-0.7-0.3c-0.1,0-0.2-0.1-0.3-0.1c-0.2-0.1-0.5-0.1-0.7-0.2c-0.1,0-0.1,0-0.2,0c-0.3,0-0.5,0-0.8,0
		c-0.1,0-0.2,0-0.2,0c-0.1,0-0.3,0.1-0.4,0.1c-0.3,0.1-0.7,0.2-1,0.4c-0.1,0.1-0.3,0.2-0.4,0.2c-0.2,0.2-0.4,0.3-0.6,0.5
		c-0.1,0.1-0.2,0.1-0.2,0.2l-0.1,0.1c-0.1,0.1-0.2,0.2-0.2,0.3c0,0,0,0,0,0.1c-0.2,0.2-0.3,0.5-0.4,0.7c-0.1,0.1-0.1,0.3-0.2,0.4
		l0,0c0,0.1-0.1,0.2-0.1,0.3l0,0c0,0.1,0,0.2,0,0.3s0,0.2-0.1,0.3c0,0.4,0,0.9,0.1,1.3c-0.1-0.4-0.1-0.8-0.1-1.3c0-0.1,0-0.1,0-0.2
		c-8.7,28.1-7.4,46-0.6,56.7c5,7.9,12.3,11.2,19.2,12c1.3,13.7,1.7,26.5,1.6,35.5c0,2.5,2,4.5,4.5,4.6c2.5,0,4.6-2,4.6-4.5
		c0-9.2-0.4-22-1.6-35.8c8.5-4.5,13.7-10.3,15.5-17.3C149.8,244.5,147.7,237.1,144.2,230.4z M111.9,252.4c-4.1-6.5-6.3-18.6-1-40.1
		c1.5,3.2,2.9,6.8,4.2,10.9c2.6,8.3,4.6,17.9,6.1,27.8c0.4,3,0.8,5.9,1.2,8.9C118.5,259,114.6,256.7,111.9,252.4z M139.2,249.5
		c-0.8,3.1-3,6.5-7.7,9.6c-0.4-3.1-0.8-6.3-1.3-9.5c-1.5-10.2-3.6-20.4-6.4-29.2c-0.2-0.7-0.4-1.4-0.7-2c5.2,5.1,10,10.8,13,16.3
		C139.2,240.4,140.2,245.3,139.2,249.5z"/>
	<path class="st0" d="M108.2,196.8c-0.3,0.1-0.7,0.2-1,0.4C107.6,197,107.9,196.9,108.2,196.8z"/>
	<path class="st0" d="M143.5,421.9L143.5,421.9c0,0,0-0.1,0-0.2v-0.1C143.5,421.7,143.5,421.8,143.5,421.9z"/>
	<path class="st0" d="M143.7,419.7C143.7,419.7,143.7,419.8,143.7,419.7c0,0.1-0.1,0.2-0.1,0.3C143.7,420,143.7,419.9,143.7,419.7
		C143.7,419.8,143.7,419.7,143.7,419.7z"/>
	<path class="st0" d="M143.9,419.3c0,0.1-0.1,0.2-0.1,0.2l0,0C143.9,419.4,143.9,419.3,143.9,419.3z"/>
	<path class="st0" d="M246.2,433c-10.6-3.6-25.9-8.3-41.5-12c-2.5-3.9-5.6-8-9.1-11.6c-4.4-4.6-9.6-8.8-15.5-11
		c-6-2.3-12.6-2.6-19.2,0.9c-6.3,3.4-12,9.9-16.9,20v0.1c0,0,0,0,0,0.1s-0.1,0.2-0.1,0.2s0,0.1-0.1,0.2l0,0l0,0
		c0,0.1-0.1,0.2-0.1,0.3c0,0,0,0,0,0.1c0,0,0,0,0,0.1s0,0.2-0.1,0.3v0.1c0,0.2-0.1,0.4-0.1,0.6v0.2c0,0.1,0,0.1,0,0.2s0,0.2,0,0.3
		l0,0c0,0,0,0,0,0.1s0,0.1,0,0.2s0,0.2,0.1,0.4c0,0.1,0.1,0.3,0.1,0.4c0,0,0,0.1,0.1,0.1c0,0.1,0.1,0.1,0.1,0.2v0.1
		c3.7,7.1,11.2,16.2,22.1,19.6c11.1,3.5,24.4,0.8,38.6-12.7c14.5,3.5,28.6,7.9,38.5,11.3c2.4,0.8,4.9-0.5,5.8-2.8
		C249.8,436.4,248.5,433.8,246.2,433z M165.1,407.2c3.8-2,7.7-2,11.7-0.5c4.1,1.6,8.3,4.8,12.2,8.8c0.8,0.8,1.5,1.6,2.2,2.4
		c-8.1-1.6-16-2.7-23.2-3.1c-3.8-0.2-7.5-0.2-11,0C159.8,410.9,162.6,408.5,165.1,407.2z M168.9,434.4c-5.6-1.8-10.3-5.9-13.6-10.2
		c3.3-0.4,7.5-0.5,12.2-0.2c7.7,0.5,16.6,1.8,25.8,3.7c0.2,0,0.4,0.1,0.6,0.1C183.5,435.8,175.1,436.4,168.9,434.4z"/>
	<path class="st0" d="M252.3,330.3c-0.2,0-0.3,0.1-0.5,0.2c-0.1,0-0.1,0-0.2,0.1c0,0,0.1,0,0.2-0.1c0,0,0,0,0.1,0
		C252,330.4,252.1,330.3,252.3,330.3z"/>
	<path class="st0" d="M252.6,330.2c0.1,0,0.2,0,0.2,0h-0.1c-0.2,0-0.3,0-0.5,0.1C252.4,330.2,252.5,330.2,252.6,330.2z"/>
	<path class="st0" d="M253,330.1c0.1,0,0.2,0,0.4,0c-0.2,0-0.3,0-0.5,0c0,0,0,0-0.1,0C252.9,330.1,253,330.1,253,330.1z"/>
	<path class="st0" d="M255.1,330.4L255.1,330.4c0,0-0.2-0.1-0.4-0.1h0.1C254.9,330.3,255,330.4,255.1,330.4z"/>
	<path class="st0" d="M256.8,331.5c0.1,0.1,0.2,0.2,0.3,0.3C256.9,331.7,256.8,331.6,256.8,331.5
		C256.7,331.5,256.7,331.5,256.8,331.5z"/>
	<path class="st0" d="M257.2,332.1c0.1,0.1,0.1,0.2,0.2,0.3c-0.1-0.2-0.2-0.3-0.3-0.5c0,0,0,0,0.1,0.1
		C257.1,332,257.2,332,257.2,332.1z"/>
	<path class="st0" d="M249.2,333.2c-0.1,0.3-0.2,0.6-0.2,0.9C249,333.8,249,333.5,249.2,333.2z"/>
	<path class="st0" d="M186.5,260.3c0.1,0,0.3,0,0.4-0.1C186.8,260.3,186.6,260.3,186.5,260.3c-0.1,0-0.1,0-0.1,0
		C186.5,260.3,186.5,260.3,186.5,260.3z"/>
	<path class="st0" d="M188,260.3c0.1,0,0.1,0,0.2,0c-0.4-0.1-0.8-0.1-1.3,0c0.2,0,0.4,0,0.6,0C187.7,260.2,187.9,260.2,188,260.3z"
		/>
	<path class="st0" d="M188.5,260.3h0.1c-0.1,0-0.2-0.1-0.3-0.1C188.4,260.3,188.4,260.3,188.5,260.3z"/>
	<path class="st0" d="M189.8,260.9c0.1,0,0.1,0.1,0.2,0.1c-0.2-0.1-0.4-0.2-0.5-0.3c0,0,0,0,0.1,0
		C189.6,260.7,189.7,260.8,189.8,260.9z"/>
	<path class="st0" d="M190,261c0.1,0.1,0.2,0.1,0.3,0.2C190.2,261.1,190.1,261,190,261L190,261z"/>
	<path class="st0" d="M190.4,261.2c0.1,0,0.1,0.1,0.2,0.2C190.5,261.3,190.4,261.3,190.4,261.2C190.3,261.2,190.3,261.2,190.4,261.2
		z"/>
	<path class="st0" d="M190.7,261.6C190.8,261.6,190.8,261.6,190.7,261.6C190.8,261.6,190.7,261.5,190.7,261.6
		C190.7,261.5,190.7,261.5,190.7,261.6z"/>
	<path class="st0" d="M184.2,261.7c0.1,0,0.1-0.1,0.1-0.1c-0.1,0.1-0.2,0.2-0.3,0.4C184.1,261.9,184.1,261.8,184.2,261.7z"/>
	<path class="st0" d="M186.5,260.3c0.1,0,0.3,0,0.4-0.1C186.8,260.3,186.6,260.3,186.5,260.3L186.5,260.3z"/>
	<path class="st0" d="M188.5,260.3h0.1c-0.1,0-0.2-0.1-0.3-0.1c0,0,0,0-0.1,0c-0.4-0.1-0.8-0.1-1.3,0c0.2,0,0.4,0,0.6,0
		c0.2,0,0.3,0,0.5,0C188.2,260.3,188.4,260.3,188.5,260.3z"/>
	<path class="st0" d="M189.8,260.9c0.1,0,0.1,0.1,0.2,0.1c-0.2-0.1-0.4-0.2-0.5-0.3c0,0,0,0,0.1,0
		C189.6,260.7,189.7,260.8,189.8,260.9z"/>
	<path class="st0" d="M190.4,261.2c0.1,0.1,0.2,0.1,0.2,0.2c0,0,0,0-0.1,0C190.5,261.3,190.4,261.3,190.4,261.2
		c-0.1-0.1-0.2-0.2-0.3-0.2l0,0C190.2,261.1,190.2,261.1,190.4,261.2z"/>
	<path class="st0" d="M190.8,261.6l0.1,0.1C190.9,261.7,190.9,261.7,190.8,261.6c0,0-0.1,0-0.1-0.1
		C190.7,261.5,190.7,261.5,190.8,261.6C190.7,261.6,190.8,261.6,190.8,261.6z"/>
	<path class="st0" d="M86.1,370.9c0,0.1,0,0.3,0.1,0.4C86.1,371.2,86.1,371.1,86.1,370.9L86.1,370.9c0-0.2,0-0.3,0-0.4s0-0.3,0-0.5
		c0,0.2,0,0.5,0,0.7C86.1,370.8,86.1,370.9,86.1,370.9z"/>
	<path class="st0" d="M86.1,369.9L86.1,369.9c0,0,0-0.2,0-0.3v-0.1C86.2,369.6,86.2,369.7,86.1,369.9z"/>
	<path class="st0" d="M86.3,372v0.1C86.3,372,86.3,372,86.3,372c-0.1-0.1-0.1-0.2-0.1-0.2C86.3,371.8,86.3,371.9,86.3,372z"/>
	<path class="st0" d="M86.3,369c0,0.1-0.1,0.2-0.1,0.3C86.2,369.2,86.2,369.2,86.3,369C86.3,369.1,86.3,369.1,86.3,369z"/>
	<path class="st0" d="M86.6,368.4c0,0,0,0.1-0.1,0.1c0,0.1-0.1,0.2-0.1,0.3v-0.1C86.5,368.6,86.5,368.5,86.6,368.4z"/>
	<path class="st0" d="M87.3,373.6c0.2,0.2,0.4,0.4,0.7,0.6C87.7,374,87.5,373.8,87.3,373.6z"/>
	<path class="st0" d="M86.1,370.5c0,0.1,0,0.3,0,0.4v-0.1C86.1,370.7,86.1,370.6,86.1,370.5z"/>
	<path class="st0" d="M86.3,371.7c0,0.1,0,0.2,0.1,0.2v-0.1C86.3,371.8,86.3,371.8,86.3,371.7z"/>
	<path class="st0" d="M87.3,373.6c0.2,0.2,0.4,0.4,0.7,0.6C87.7,374,87.5,373.8,87.3,373.6z"/>
	<path class="st0" d="M104.9,202c-0.1-0.4-0.1-0.8-0.1-1.3C104.8,201.1,104.8,201.6,104.9,202z"/>
	<path class="st0" d="M104.9,200.1c0,0.1,0,0.2,0,0.3s0,0.2-0.1,0.3c0-0.1,0-0.1,0-0.2l0,0C104.8,200.4,104.9,200.3,104.9,200.1z"/>
	<path class="st0" d="M104.9,202c-0.1-0.4-0.1-0.8-0.1-1.3C104.8,201.1,104.8,201.6,104.9,202z"/>
	<path class="st0" d="M104.9,200.4c0,0.1,0,0.2-0.1,0.3c0-0.1,0-0.1,0-0.2L104.9,200.4C104.8,200.5,104.8,200.4,104.9,200.4z"/>
	<path class="st0" d="M89.8,278.6v-0.1c-2-10.7-8.8-25.5-22.8-35.1c-14.1-9.8-34.9-13.7-63.7-4.2c-0.1,0-0.3,0.1-0.4,0.1
		c-1.2,0.5-2.1,1.4-2.6,2.5c-0.1,0.1-0.1,0.2-0.1,0.3c-0.1,0.1-0.1,0.2-0.1,0.4c0,0.2-0.1,0.4-0.1,0.6c0,0.1,0,0.3,0,0.4
		s0,0.3,0,0.4s0,0.2,0,0.4c0,0.1,0,0.2,0.1,0.3c0,0.1,0,0.2,0.1,0.3c0,0.1,0,0.2,0.1,0.2c0,0,0,0.1,0.1,0.2
		c12,31.3,28.6,45.5,45.7,49.2c15.4,3.3,29.9-2.4,39.7-9.7c0.4-0.3,0.8-0.6,1.2-0.9l0,0c0.1-0.1,0.3-0.3,0.4-0.5
		c0.3-0.2,0.7-0.4,1-0.6c0.4-0.3,0.7-0.7,1-1.2c0.1-0.1,0.2-0.3,0.2-0.4c0,0,0,0,0-0.1s0.1-0.3,0.2-0.4c0-0.2,0.1-0.3,0.1-0.5
		s0.1-0.5,0.1-0.8c0-0.1,0-0.1,0-0.2C89.9,279.1,89.9,278.9,89.8,278.6z M47.9,285.6c-10.8-2.3-22.9-10.5-33.2-30.5
		c20.3,10.5,43.8,20.6,58.9,26.6C66.1,285.6,57.1,287.6,47.9,285.6z M15.3,245.2c21.7-5.2,36.6-1.2,46.6,5.7
		c9.2,6.3,14.7,15.4,17.4,23.4C63.8,268.1,37,256.8,15.3,245.2z"/>
	<path class="st0" d="M88.3,282.8c-0.4,0.4-0.9,0.7-1.3,1.1c0.1-0.1,0.3-0.3,0.4-0.5C87.7,283.3,88,283.1,88.3,282.8z"/>
	<path class="st0" d="M209.9,96.9l-0.1,0.3c0.1,0,0.1,0,0.2,0c0,0,0.1,0,0.2,0C210.1,97.1,210,97,209.9,96.9z"/>
	<path class="st0" d="M193.8,94.5c0,0-0.1,0-0.1,0.1c0-0.1,0-0.2,0-0.2L193.8,94.5z"/>
	<path class="st0" d="M270.4,121.1c-2.6-15.6-11.4-24.4-21.5-28.8c-7.6-3.3-15.8-4.1-22.3-3.8c2.8-4.4,5.4-9.5,7.3-14.7
		c2.8-7.2,4.4-15.1,3.2-21.7c-0.6-3.4-2-6.6-4.4-9.2s-5.8-4.4-9.9-5.2c-6.9-1.5-12.5,0.5-16.8,4.6c-4.2,4-6.9,9.8-8.8,15.9
		c-1.3,4.2-2.2,8.7-2.8,13.2c-3-4.4-6.6-9-10.5-12.8c-3.3-3.2-7-6-10.9-7.5c-4-1.5-8.3-1.7-12.4,0.8c-7.7,4.7-8.5,13.8-7.3,21.6
		c0.9,5.6,2.9,11.4,5,16.2c-2.9-0.5-5.8-0.9-8.5-1c-6.5-0.3-12.9,0.6-17.8,4c-5.1,3.5-8,9.3-8.2,17.4c-0.2,9.6,2.3,16.4,7.6,20.4
		c5.1,3.9,11.9,4.4,18.7,3.4c6-0.9,12.4-3,18.7-5.5c-3.2,6.7-6.4,14.7-7.7,21.9c-0.9,5-1,10,0.7,14.3c1.8,4.5,5.6,7.6,11.3,8.7
		c5.4,1,10.1,0,14-2.2c3.9-2.2,6.8-5.5,9.1-9.1c1.6-2.6,3-5.4,4-8.1c0.4,1.1,0.8,2.2,1.2,3.2c2.3,5.5,5.6,10.5,10.3,13.4
		c4.9,3,10.8,3.3,17.5,0.4c4-1.8,7.1-4.1,9.1-6.9c2-2.9,2.8-6.1,2.7-9.3c-0.2-6.1-3.6-12.5-7.6-18c2.3,1,4.7,1.9,7.1,2.6
		c7.6,2.4,15.7,3.6,21.8,1.2c3.2-1.3,5.8-3.5,7.3-7C271,130.2,271.3,126,270.4,121.1z M200.1,82.3c0-0.2,0-0.5,0-0.8l0,0
		c0.4-7,1.4-14.7,3.4-21.3c1.7-5.7,4.1-10.2,7-13.1c2.8-2.7,6.2-3.9,10.9-3c3.1,0.7,5.1,1.9,6.5,3.3c1.4,1.5,2.3,3.4,2.7,5.8
		c0.9,4.9-0.3,11.4-2.9,18.2c-2.6,6.7-6.3,13.3-10,18.2c-1.8,2.4-3.6,4.4-5.1,5.8c-0.8,0.7-1.4,1.1-1.9,1.4
		c-0.3,0.2-0.5,0.2-0.6,0.3c-0.1,0-0.1,0-0.2,0c-0.1,0-0.1,0-0.2,0l0.1-0.3L214,77c0.4-1.8-0.8-3.6-2.5-3.9
		c-1.8-0.4-3.5,0.8-3.9,2.6l-3.8,17.8c-1.2-0.3-2.4-0.4-3.7-0.4C200,90,200,86.3,200.1,82.3z M164.2,57.7c1.9-1.1,4-1.2,6.5-0.2
		c2.7,1,5.6,3.2,8.6,6.1c5.7,5.6,11,13.3,14.2,19.1c-0.2,4.3-0.1,8.3,0.1,11.8l0.2,0.2c0,0-0.1,0-0.1,0.1c0-0.1,0-0.2,0-0.2
		l-16-19.5c-1.2-1.4-3.3-1.6-4.7-0.4c-1.4,1.2-1.6,3.2-0.4,4.7l16.1,19.4c-0.3,0.4-0.6,0.7-1,1.1c-5.9-2.9-13.3-5.9-21-8.1
		c-2.7-5.1-5.7-12.4-6.7-19.2C158.9,65.3,160.1,60.1,164.2,57.7z M149.2,127.4c-6.1,0.9-10.7,0.2-13.7-2.1c-2.9-2.2-5.2-6.5-5-15
		c0.2-6.4,2.4-10,5.3-12.1c3.2-2.2,7.9-3.1,13.7-2.9c11.2,0.5,24.7,5.4,34.6,10.1h0.1l0,0c0,0,0,0-0.1,0l-23.2-0.5
		c-1.8,0-3.3,1.4-3.4,3.2c0,1.8,1.4,3.3,3.2,3.4l22.7,0.5c0.1,0.5,0.2,0.9,0.4,1.4C173.8,119.3,160.3,125.8,149.2,127.4z
		 M190.6,158.5c-1.9,3-4.1,5.4-6.8,6.8c-2.6,1.5-5.7,2.1-9.6,1.4c-3.6-0.6-5.4-2.4-6.3-4.6c-1-2.5-1.1-6.1-0.3-10.6
		c1.6-8.9,6.4-19.3,10.5-26.5c0.2-0.3,0.3-0.6,0.3-1c3.4-1.7,6.6-3.5,9.5-5.1c0.6-0.3,1.1-0.7,1.7-1l-0.7,1.7l-7.4,18.9
		c-0.7,1.7,0.2,3.6,1.9,4.3c1.7,0.7,3.6-0.2,4.3-1.9l7.2-18.4l0.2-0.6c0,0.2,0,0.5,0,0.7c0.1,5.4,0.6,11.8,1.7,18.1
		C196.2,145.4,194.3,152.7,190.6,158.5z M197.5,116.4c-3.8-1.2-5.6-2.6-6.5-3.8c-0.8-1-1-2.1-0.8-3.4c0.2-1.4,1-3,2.2-4.6
		c1.1-1.5,2.4-2.8,3.6-3.9c4.1-1.6,6.7-1,8.4,0.1c0.1,0.1,0.1,0.1,0.2,0.2c0,0,0,0,0.1,0c1.8,1.3,3,3.7,3.2,6.5c0,0.1,0,0.3,0,0.4
		c0,0.8,0,1.5-0.1,2.3c-0.3,2.1-1.1,3.9-2.3,5.1C204.1,116.8,201.6,117.8,197.5,116.4z M234.3,154.9c0.1,2-0.4,3.7-1.5,5.3
		s-3.1,3.2-6.3,4.6c-5,2.2-8.6,1.7-11.4,0c-3-1.8-5.5-5.4-7.6-10.3c-3.8-9-5.4-21.2-5.7-30.9c0.4,0,0.7,0,1.1-0.1l8.4,20
		c0.7,1.7,2.7,2.5,4.3,1.8c1.7-0.7,2.5-2.7,1.8-4.3l-7.9-18.8c0.3,0.3,0.6,0.6,1,0.9c1.8,1.6,4.1,3.3,6.7,5
		c3.5,3.5,7.4,7.7,10.6,12.1C231.7,145.6,234.2,150.8,234.3,154.9z M263.5,130.9c-0.7,1.7-1.9,2.8-3.7,3.4
		c-3.8,1.5-10.1,0.9-17.4-1.4c-7.2-2.2-14.6-5.9-20.4-9.5c-0.2-0.1-0.4-0.2-0.6-0.4c-0.6-0.6-1.2-1.2-1.8-1.7c-2.1-2-4-3.7-5.4-5
		c-0.2-0.2-0.4-0.3-0.5-0.5c-0.2-0.1-0.3-0.3-0.5-0.4c0.3-0.8,0.6-1.7,0.8-2.6l21.2,3.2c1.8,0.3,3.5-1,3.8-2.8
		c0.3-1.8-1-3.5-2.8-3.8l-22-3.3c-0.1-1.1-0.4-2.2-0.7-3.2c1.3-0.6,2.5-1.5,3.5-2.5c1.5-1.3,3-2.9,4.5-4.8c0.3,0,0.6,0,0.9,0
		c6.1-1.1,15.5-1,23.9,2.7c8.2,3.6,15.4,10.6,17.6,23.8C264.6,126.4,264.2,129.1,263.5,130.9z"/>
	<path class="st0" d="M184.3,105.5C184.3,105.5,184.3,105.6,184.3,105.5C184.3,105.6,184.3,105.5,184.3,105.5L184.3,105.5z"/>
	<path class="st0" d="M200.1,82.3c0-0.2,0-0.5,0-0.8C200.2,81.8,200.2,82.1,200.1,82.3z"/>
	<path class="st0" d="M207.1,113.8c-0.2,0.2-0.4,0.3-0.5,0.5C206.7,114.1,206.9,113.9,207.1,113.8z"/>
	<path class="st0" d="M184.3,105.5C184.3,105.5,184.3,105.6,184.3,105.5C184.3,105.6,184.3,105.5,184.3,105.5L184.3,105.5z"/>
	<path class="st0" d="M193.8,94.5c0,0-0.1,0-0.1,0.1c0-0.1,0-0.2,0-0.2L193.8,94.5z"/>
	<path class="st0" d="M429.3,448.4C429.3,448.5,429.3,448.5,429.3,448.4c0.1,0.1,0.1,0.1,0.2,0.2c0-0.1,0.1-0.2,0.1-0.3L429.3,448.4
		z M406.6,449.3c0,0.1,0,0.1,0,0.2c0.2-0.1,0.3-0.2,0.5-0.3L406.6,449.3z"/>
	<path class="st0" d="M424.4,436.6l-0.1,0.2l-0.1-0.1C424.3,436.7,424.3,436.7,424.4,436.6z"/>
	<path class="st0" d="M413.2,435.3L413.2,435.3L413.2,435.3L413.2,435.3z"/>
	<path class="st0" d="M413.2,435.3L413.2,435.3L413.2,435.3L413.2,435.3z"/>
	<path class="st0" d="M473.4,431.9c-1.9-5.1-5.6-7.9-10.1-9c-4.3-1-9.2-0.4-14,1c-3.2,0.9-6.6,2.2-9.8,3.8c1.6-3.8,3.1-8.1,3.9-12.2
		c0.7-3.5,1-7.1,0.3-10.2c-0.7-3.2-2.4-6.1-5.7-7.7c-6.3-3.1-12.5,0.2-17.1,4.3c-3.3,2.9-6.2,6.7-8.5,10.1c-0.9-2.1-1.8-4.1-2.9-6
		c-2.5-4.4-5.8-8.1-10.1-9.9c-4.4-1.8-9.4-1.3-14.7,2c-6.3,3.9-9.7,8.4-10.1,13.5c-0.4,4.9,2.2,9.6,5.6,13.5
		c3.1,3.5,7.1,6.8,11.4,9.8c-5.7,0.7-12.2,2-17.5,4.2c-3.6,1.5-6.9,3.5-9,6.4c-2.2,3.1-2.6,6.8-0.9,11c1.6,3.9,4.2,6.6,7.3,8.2
		c3,1.6,6.5,2.1,9.7,2.1c2.4,0,4.7-0.3,7-0.8c-0.5,0.7-1.1,1.4-1.6,2.1c-2.6,3.8-4.5,8.1-4.4,12.3c0.1,4.5,2.4,8.4,7.1,11.5
		c2.8,1.9,5.6,2.9,8.3,3c2.7,0.1,5.1-0.7,7.2-2.2c3.9-2.7,6.6-7.6,8.5-12.5c0.3,1.9,0.8,3.8,1.3,5.7c1.6,5.9,4.2,11.7,8.3,14.7
		c2.2,1.6,4.7,2.3,7.6,1.8c2.8-0.5,5.6-2,8.4-4.6c9.1-8.2,11.1-17.7,9.7-26c-1-6.3-3.9-12-6.9-16.1c4-0.1,8.4-0.5,12.6-1.4
		c5.8-1.2,11.6-3.4,15.5-7c2-1.8,3.5-4,4.1-6.7C474.9,437.9,474.6,435,473.4,431.9z M424.4,405.7c4.2-3.8,8.1-5.1,11.4-3.5
		c1.5,0.7,2.5,2.1,2.9,4.1c0.5,2.2,0.3,5-0.3,8.2c-1.2,6-4,12.7-6.4,17.2c-2.9,1.7-5.5,3.4-7.6,5l-0.1,0.2l-0.1-0.1
		c0,0,0.1-0.1,0.2-0.1l5.8-18.4c0.4-1.3-0.3-2.8-1.7-3.2c-1.4-0.4-2.8,0.3-3.2,1.7l-5.9,18.6c-0.4-0.1-0.7-0.1-1.1-0.1
		c-0.6-5.1-1.8-11.1-3.6-17C417,414.2,420.4,409.2,424.4,405.7z M384.3,421.7c-3.1-3.6-4.6-6.9-4.4-9.8c0.2-2.8,2.1-6.1,7.7-9.5
		c4.2-2.6,7.5-2.7,10.1-1.6c2.8,1.1,5.3,3.8,7.6,7.7c4.3,7.5,6.9,18.3,7.9,26.7l0.1,0.1l0,0v-0.1l-9.4-15.3
		c-0.7-1.2-2.3-1.6-3.5-0.8c-1.2,0.7-1.6,2.3-0.9,3.5l9.2,15c-0.3,0.2-0.5,0.5-0.8,0.8C399.8,434.3,389.9,428.2,384.3,421.7z
		 M381.4,461.6c-2.7,0-5.2-0.4-7.3-1.5c-2-1.1-3.8-2.8-5-5.6c-1.1-2.6-0.7-4.5,0.4-6c1.2-1.7,3.5-3.3,6.8-4.7
		c6.4-2.7,15.2-3.9,21.6-4.3c0.3,0,0.5-0.1,0.8-0.2c2.5,1.5,5,2.8,7.3,4c0,0.3-0.1,0.6-0.1,1l-15.4,3.1c-1.4,0.3-2.3,1.6-2,3
		s1.6,2.3,3,2l15-3l0.5-0.1c-0.2,0.1-0.3,0.2-0.5,0.3c-3.5,2.4-7.4,5.4-11,8.7C392.3,459.7,386.7,461.6,381.4,461.6z M412.7,459.7
		c-0.3,1.9-0.5,4.1-0.5,6.5l0,0c-0.8,3.8-1.9,8-3.4,11.9c-1.9,4.8-4.1,8.6-6.8,10.4c-1.3,0.9-2.6,1.3-4,1.3
		c-1.5-0.1-3.4-0.6-5.7-2.1c-3.5-2.4-4.7-4.9-4.8-7.4c-0.1-2.7,1.2-5.9,3.5-9.3c4.2-6.2,11.5-12.4,17.7-16.6
		c0.2,0.2,0.3,0.4,0.5,0.6l-9.5,13.9c-0.8,1.2-0.5,2.8,0.7,3.6s2.8,0.5,3.6-0.7l8.9-13C412.8,459.1,412.8,459.4,412.7,459.7z
		 M415.7,453.2c-1.5-0.3-3.2-1.5-4-4.8c-0.8-3-0.7-4.8-0.3-5.8c0.3-1,1-1.6,1.9-1.9c1-0.4,2.4-0.6,3.9-0.5c1.4,0.1,2.8,0.4,4,0.7
		c2.9,2.1,3.6,4.2,3.4,5.7c-0.1,1.7-1.2,3.5-2.9,4.8c-0.1,0.1-0.2,0.1-0.3,0.2c-0.5,0.4-1,0.7-1.5,0.9
		C418.5,453.2,417,453.4,415.7,453.2z M443.9,472.6c1.1,6.8-0.4,14.5-8.1,21.4c-2.4,2.2-4.3,3.1-5.8,3.4c-1.4,0.2-2.6-0.1-3.8-0.9
		c-2.6-1.9-4.8-6.2-6.4-11.9c-1.5-5.6-2.3-12-2.4-17.3v-0.5c0.1-0.7,0.3-1.3,0.4-1.9c0.4-2.2,0.8-4.2,1-5.6c0-0.2,0.1-0.4,0.1-0.5
		c0-0.2,0-0.3,0.1-0.5c0.7-0.1,1.4-0.3,2-0.5l6.8,15.1c0.6,1.3,2.1,1.9,3.4,1.3c1.3-0.6,1.9-2.1,1.3-3.4l-7-15.6
		c0.6-0.6,1.2-1.2,1.8-1.8c1,0.6,2,1,3.1,1.3c1.5,0.4,3.1,0.7,5,0.9c0.1,0.2,0.2,0.4,0.4,0.6C438.9,459.5,442.7,465.6,443.9,472.6z
		 M469.2,439.3c-0.4,1.5-1.2,2.9-2.6,4.2c-2.8,2.6-7.6,4.6-13.1,5.8c-5.4,1.2-11.3,1.5-16,1.2c-2.4-0.2-4.4-0.5-5.9-0.9
		c-0.8-0.2-1.3-0.4-1.7-0.7c-0.2-0.1-0.4-0.2-0.4-0.3c-0.1-0.1-0.1-0.1-0.1-0.1l-0.1-0.1l0.3-0.1l14.6-5.6c1.3-0.5,2-2,1.5-3.3
		s-2-2-3.3-1.5l-13.2,5c-0.3-0.9-0.7-1.7-1.3-2.6c2-1.5,4.4-3,7-4.5c0,0,0,0,0.1,0l0,0c0.2-0.1,0.3-0.2,0.5-0.3l0,0
		c4.7-2.7,10.1-5.2,15.2-6.7c4.4-1.3,8.4-1.6,11.5-0.9c2.9,0.7,5.2,2.4,6.5,5.8C469.5,436,469.6,437.9,469.2,439.3z"/>
	<path class="st0" d="M424.4,436.6l-0.1,0.2l-0.1-0.1C424.3,436.7,424.3,436.7,424.4,436.6z"/>
	<path class="st0" d="M421.7,451.4c-0.1,0.1-0.2,0.1-0.3,0.2c-0.5,0.4-1,0.7-1.5,0.9L421.7,451.4z"/>
</g>
</svg>
