<svg width="25" height="24" viewBox="0 0 25 24" fill="none" xmlns="http://www.w3.org/2000/svg">
<path d="M23.7586 11.9998C24.0789 12.5838 24.2567 13.2357 24.2775 13.9019C24.2895 14.3364 24.2536 15.6513 23.3753 16.6417C22.8278 17.2588 22.3122 17.3468 21.7807 18.2098L21.7741 18.2198C21.5497 18.5959 21.4278 19.0246 21.4206 19.4628C21.4172 19.759 21.3316 20.0484 21.1734 20.2985C20.9382 20.6637 20.4924 21.001 19.6652 21.1302C19.2875 21.1866 18.9255 21.321 18.6022 21.5248C18.5291 21.5721 18.4547 21.6241 18.3803 21.6827C17.2402 22.5825 17.3412 23.9727 14.0882 24C13.6444 24 12.978 23.9607 12.1395 23.4708C11.3004 23.9607 10.6347 24.004 10.1902 23.9993C6.9346 23.9727 7.03892 22.5825 5.89881 21.6827C5.82439 21.6241 5.74997 21.5721 5.67689 21.5248C5.35354 21.321 4.99157 21.1866 4.61384 21.1302C3.78666 21.001 3.34085 20.6637 3.10499 20.2985C2.94728 20.0482 2.86195 19.7589 2.85849 19.4628C2.85135 19.0245 2.7292 18.5957 2.50436 18.2198L2.49838 18.2098C1.96685 17.3435 1.45393 17.2588 0.903809 16.6417C0.0248032 15.6513 -0.0103992 14.3364 0.00156004 13.9019C0.022017 13.2356 0.199846 12.5837 0.520447 11.9998C0.199735 11.4162 0.0218943 10.7645 0.00156004 10.0984C-0.0103992 9.66389 0.0248032 8.34898 0.903809 7.35796C1.45128 6.74083 1.96685 6.65285 2.49838 5.78979L2.50436 5.7798C2.72921 5.40413 2.85136 4.97565 2.85849 4.53753C2.86204 4.24124 2.94736 3.95173 3.10499 3.70113C3.34085 3.33591 3.78666 2.99935 4.61384 2.86939C4.99173 2.81362 5.35382 2.67923 5.67689 2.47485C5.74997 2.4282 5.82439 2.37555 5.89881 2.3169C7.03892 1.41785 6.93792 0.027629 10.1902 0.000304387C10.6347 0.000304387 11.3004 0.0389623 12.1395 0.528806C12.978 0.0389623 13.6444 -0.00436079 14.0882 0.000304387C17.3438 0.027629 17.2402 1.41785 18.3803 2.3169C18.4547 2.37555 18.5291 2.4282 18.6022 2.47485C18.9253 2.67923 19.2874 2.81362 19.6652 2.86939C20.4924 3.00268 20.9382 3.33591 21.1734 3.70113C21.3315 3.95157 21.4171 4.24115 21.4206 4.53753C21.4278 4.97554 21.5497 5.40396 21.7741 5.7798L21.7807 5.78979C22.3082 6.65618 22.8251 6.74083 23.3753 7.35796C24.2536 8.34898 24.2895 9.66389 24.2775 10.0984C24.2569 10.7645 24.079 11.4161 23.7586 11.9998Z" fill="#DAA49A"/>
<path d="M10.2347 0.262583C10.6652 0.262583 11.2552 0.318566 12.0033 0.7551L12.1362 0.833079L12.2691 0.7551C13.0172 0.318566 13.6072 0.262583 14.0377 0.262583H14.0823C16.3326 0.281244 16.8648 0.961705 17.4275 1.68149C17.6501 1.96606 17.8806 2.26064 18.2122 2.52256C18.2886 2.58254 18.3677 2.63919 18.4547 2.69517C18.8091 2.91984 19.2066 3.06742 19.6214 3.12837C20.2612 3.22901 20.707 3.46894 20.9502 3.84216C21.0817 4.05114 21.1523 4.29283 21.1542 4.53995C21.163 5.02501 21.2984 5.49927 21.5468 5.91553L21.5535 5.92553C21.8976 6.48802 22.2398 6.74794 22.5707 6.9992C22.7894 7.15556 22.9913 7.33423 23.1733 7.53237C23.9646 8.42476 24.0211 9.61706 24.0084 10.0883C23.9886 10.7122 23.822 11.3227 23.5221 11.8697L23.4523 11.997L23.5221 12.125C23.8225 12.671 23.9901 13.2805 24.0111 13.9038C24.0237 14.3749 23.9672 15.5699 23.1759 16.4603C22.9936 16.6581 22.7917 16.8367 22.5733 16.9935C22.2411 17.2447 21.9003 17.5047 21.5541 18.0698L21.5495 18.0778C21.3009 18.4937 21.1655 18.9678 21.1568 19.4527C21.155 19.6998 21.0844 19.9415 20.9528 20.1505C20.7117 20.5237 20.2659 20.7637 19.624 20.8636C19.2093 20.9251 18.8119 21.0729 18.4573 21.2975C18.3737 21.3509 18.2928 21.4085 18.2148 21.4701C17.8826 21.732 17.6528 22.0259 17.4302 22.3112C16.8674 23.031 16.3353 23.7108 14.0849 23.7301H14.0404C13.6099 23.7301 13.0199 23.6741 12.2718 23.2376L12.1389 23.1589L12.006 23.2376C11.2579 23.6741 10.6679 23.7301 10.2374 23.7301H10.1928C7.94251 23.7114 7.41032 23.031 6.84757 22.3112C6.625 22.0259 6.39446 21.732 6.06292 21.4701C5.98718 21.4101 5.90545 21.3521 5.82041 21.2975C5.46572 21.0728 5.06807 20.925 4.65305 20.8636C4.01389 20.7637 3.56741 20.5231 3.32424 20.1505C3.19274 19.9415 3.1221 19.6998 3.12028 19.4527C3.11161 18.9678 2.9762 18.4937 2.72761 18.0778L2.72297 18.0705C2.37881 17.508 2.03664 17.2481 1.70576 16.9968C1.48724 16.8402 1.28531 16.6616 1.10315 16.4636C0.311841 15.5712 0.255362 14.3783 0.267321 13.9071C0.287743 13.2833 0.454605 12.6732 0.754333 12.1263L0.824099 11.9983L0.754333 11.871C0.454527 11.3239 0.287664 10.7136 0.267321 10.0896C0.255362 9.6184 0.311841 8.42343 1.10315 7.5337C1.28494 7.3354 1.48692 7.1567 1.70576 7.00053C2.03796 6.74927 2.37881 6.48935 2.72297 5.92619L2.72761 5.91885C2.97612 5.50288 3.11152 5.02881 3.12028 4.54395C3.1221 4.29683 3.19274 4.05513 3.32424 3.84616C3.56475 3.47294 4.01123 3.23301 4.65305 3.13238C5.06811 3.07155 5.46581 2.92396 5.82041 2.69918C5.90545 2.64386 5.98718 2.58588 6.06292 2.52656C6.39512 2.26464 6.625 1.97007 6.84757 1.68549C7.41032 0.965708 7.94251 0.285913 10.1928 0.266585H10.2374M10.2374 0H10.1902C6.93461 0.027325 7.03892 1.41757 5.8988 2.31663C5.82439 2.37528 5.74998 2.42793 5.6769 2.47458C5.35383 2.67896 4.99174 2.81335 4.61386 2.86913C3.78667 3.00242 3.34086 3.33565 3.105 3.70087C2.94737 3.95147 2.86204 4.24098 2.85849 4.53728C2.85136 4.9754 2.72922 5.40389 2.50438 5.77957L2.49839 5.78956C1.96687 6.65597 1.45395 6.74061 0.903824 7.35775C0.0248191 8.34878 -0.0103995 9.66372 0.00155976 10.0982C0.021894 10.7643 0.19975 11.4161 0.520462 11.9997C0.199862 12.5836 0.0220167 13.2355 0.00155976 13.9018C-0.0103995 14.3363 0.0248191 15.6512 0.903824 16.6416C1.45129 17.2587 1.96687 17.3467 2.49839 18.2098L2.50438 18.2198C2.72922 18.5957 2.85135 19.0244 2.85849 19.4627C2.86195 19.7588 2.9473 20.0481 3.105 20.2985C3.34086 20.6637 3.78667 21.0009 4.61386 21.1302C4.99159 21.1866 5.35356 21.3209 5.6769 21.5248C5.74998 21.5721 5.82439 21.6241 5.8988 21.6827C7.03892 22.5824 6.93793 23.9727 10.1902 24H10.2374C10.6805 24 11.3296 23.944 12.1395 23.4708C12.9495 23.944 13.5979 24 14.0417 24H14.0882C17.3438 23.9727 17.2402 22.5824 18.3803 21.6827C18.4547 21.6241 18.5291 21.5721 18.6022 21.5248C18.9255 21.3209 19.2875 21.1866 19.6652 21.1302C20.4924 21.0009 20.9382 20.6637 21.1734 20.2985C21.3316 20.0483 21.4172 19.7589 21.4206 19.4627C21.4278 19.0245 21.5497 18.5959 21.7741 18.2198L21.7807 18.2098C22.3082 17.3434 22.8251 17.2587 23.3753 16.6416C24.2536 15.6512 24.2895 14.3363 24.2775 13.9018C24.2567 13.2355 24.0789 12.5837 23.7586 11.9997C24.079 11.4159 24.2569 10.7643 24.2775 10.0982C24.2895 9.66372 24.2536 8.34878 23.3753 7.35775C22.8278 6.74061 22.3122 6.65263 21.7807 5.78956L21.7741 5.77957C21.5497 5.40371 21.4278 4.9753 21.4206 4.53728C21.4171 4.24089 21.3315 3.95132 21.1734 3.70087C20.9382 3.33565 20.4924 2.99909 19.6652 2.86913C19.2874 2.81335 18.9253 2.67896 18.6022 2.47458C18.5291 2.42793 18.4547 2.37528 18.3803 2.31663C17.2402 1.41757 17.3411 0.027325 14.0882 0H14.0417C13.5979 0 12.9495 0.0559865 12.1395 0.528509C11.3296 0.0559865 10.6779 0 10.2374 0Z" fill="#D08B86"/>
<path d="M22.6899 11.9997C22.9809 12.5292 23.1425 13.1203 23.1613 13.7244C23.172 14.1185 23.14 15.3115 22.3418 16.2099C21.845 16.7697 21.3755 16.8498 20.896 17.632L20.89 17.6414C20.6862 17.9823 20.5753 18.3709 20.5686 18.7682C20.5658 19.0369 20.4882 19.2995 20.3446 19.5264C20.1305 19.8604 19.7257 20.1636 18.9749 20.2812C18.6312 20.3316 18.3019 20.4533 18.0079 20.6385C17.9413 20.6813 17.8746 20.7287 17.8079 20.7822C16.7723 21.5977 16.8643 22.8589 13.9095 22.8836C13.5094 22.8836 12.9013 22.8482 12.1397 22.404C11.3775 22.8482 10.7727 22.8869 10.3693 22.8836C7.41514 22.8589 7.50717 21.5977 6.47156 20.7822C6.40488 20.7287 6.3382 20.6813 6.27151 20.6385C5.97751 20.4534 5.64819 20.3317 5.30459 20.2812C4.55372 20.1636 4.14828 19.8577 3.93422 19.5264C3.79061 19.2995 3.71302 19.0369 3.71016 18.7682C3.70378 18.3708 3.59293 17.9822 3.38875 17.6414L3.38341 17.632C2.90395 16.8498 2.4345 16.7697 1.9377 16.2099C1.13749 15.3115 1.10748 14.1185 1.11748 13.7244C1.13681 13.1202 1.2986 12.5293 1.58961 11.9997C1.29841 11.4703 1.13661 10.8792 1.11748 10.275C1.10748 9.88093 1.13949 8.6886 1.9377 7.78951C2.4345 7.23042 2.90395 7.15027 3.38341 6.36742L3.38875 6.35873C3.59301 6.01774 3.70387 5.62882 3.71016 5.2312C3.71319 4.96256 3.79078 4.70006 3.93422 4.47305C4.14828 4.13907 4.55372 3.83648 5.30459 3.71892C5.64824 3.6682 5.97755 3.54626 6.27151 3.36089C6.3382 3.31814 6.40488 3.27138 6.47156 3.21795C7.50717 2.40236 7.41514 1.14123 10.3693 1.11651C10.7727 1.11651 11.3775 1.15192 12.1397 1.59612C12.9013 1.15192 13.5068 1.11317 13.9095 1.11651C16.8643 1.14123 16.7723 2.40236 17.8079 3.21795C17.8746 3.27138 17.9413 3.31814 18.0079 3.36089C18.3019 3.54635 18.6312 3.66829 18.9749 3.71892C19.7257 3.83648 20.1305 4.14174 20.3446 4.47305C20.4881 4.70025 20.5657 4.963 20.5686 5.23187C20.5753 5.62922 20.6862 6.01782 20.89 6.35873L20.896 6.36742C21.3755 7.15027 21.845 7.23042 22.3418 7.78951C23.142 8.6886 23.172 9.88093 23.1613 10.275C23.1427 10.8792 22.9811 11.4703 22.6899 11.9997Z" fill="url(#paint0_radial_422_553)"/>
<path d="M13.8635 1.38352H13.9042C15.9361 1.40022 16.4155 2.01277 16.923 2.66071C17.123 2.92055 17.3364 3.18841 17.6399 3.42755C17.7065 3.48232 17.7839 3.53509 17.8619 3.58586C18.186 3.79135 18.5494 3.92652 18.9288 3.98263C19.5023 4.07281 19.9018 4.28657 20.1165 4.61855C20.2335 4.80394 20.2963 5.01845 20.2979 5.23777C20.3054 5.68179 20.4294 6.11601 20.6573 6.49691L20.664 6.5076C20.9787 7.02194 21.2915 7.25907 21.5976 7.48819C21.7946 7.62878 21.9767 7.78927 22.141 7.96713C22.8539 8.7687 22.9046 9.84348 22.8939 10.2683C22.8754 10.8299 22.7249 11.3792 22.4545 11.8715L22.3844 11.9991L22.4545 12.1273C22.7249 12.6196 22.8754 13.1689 22.8939 13.7305C22.9046 14.1546 22.8539 15.2287 22.141 16.031C21.9771 16.2092 21.7949 16.3697 21.5976 16.5099C21.2948 16.7397 20.9821 16.9775 20.668 17.4905L20.6613 17.5012C20.433 17.882 20.3088 18.3162 20.3012 18.7603C20.2997 18.9799 20.2369 19.1946 20.1198 19.3802C19.9051 19.7142 19.5057 19.926 18.9322 20.0161C18.5528 20.0723 18.1893 20.2074 17.8652 20.4129C17.7872 20.463 17.7125 20.5164 17.6432 20.5712C17.3398 20.8104 17.1291 21.0782 16.9263 21.3381C16.4189 21.986 15.9394 22.5979 13.9075 22.6152H13.8668C13.4794 22.6152 12.9479 22.5645 12.2738 22.1717L12.1404 22.0935L12.007 22.1717C11.3329 22.5645 10.8014 22.6152 10.4133 22.6152H10.3733C8.34139 22.5979 7.86193 21.986 7.35446 21.3381C7.15108 21.0782 6.94102 20.8104 6.63761 20.5712C6.57092 20.5164 6.49356 20.463 6.41554 20.4129C6.09148 20.2074 5.72802 20.0723 5.34859 20.0161C4.77511 19.926 4.37567 19.7122 4.16094 19.3802C4.04392 19.1946 3.98109 18.9799 3.97956 18.7603C3.97194 18.3162 3.84775 17.882 3.61947 17.5012L3.61347 17.4912C3.29805 16.9768 2.98597 16.7397 2.67989 16.5099C2.48254 16.3697 2.3004 16.2092 2.13642 16.031C1.42356 15.2294 1.37221 14.1546 1.38355 13.7305C1.40203 13.1689 1.5526 12.6196 1.823 12.1273L1.88969 11.9991L1.823 11.8715C1.5526 11.3792 1.40203 10.8299 1.38355 10.2683C1.37221 9.84348 1.42356 8.77004 2.13642 7.96713C2.30056 7.7891 2.48269 7.62859 2.67989 7.48819C2.98263 7.25907 3.29472 7.02061 3.61347 6.5076L3.61947 6.49758C3.84783 6.11659 3.97202 5.68209 3.97956 5.23777C3.98111 5.01845 4.04394 4.80394 4.16094 4.61855C4.37567 4.28456 4.77511 4.07281 5.34859 3.98263C5.72802 3.92652 6.09148 3.79135 6.41554 3.58586C6.49356 3.53509 6.56826 3.48232 6.63761 3.42755C6.94102 3.18841 7.15108 2.92055 7.35446 2.66071C7.86193 2.01277 8.34139 1.40022 10.3733 1.38352H10.4133C10.8014 1.38352 11.3329 1.43362 12.007 1.82706L12.1404 1.90522L12.2738 1.82706C12.9479 1.43362 13.4794 1.38352 13.8668 1.38352M10.4119 1.11633H10.3693C7.41514 1.14105 7.50717 2.4022 6.47156 3.2178C6.40488 3.27124 6.3382 3.318 6.27151 3.36075C5.97755 3.54612 5.64824 3.66806 5.30459 3.71878C4.55372 3.83635 4.14828 4.14161 3.93422 4.47293C3.79078 4.69994 3.71319 4.96245 3.71016 5.23109C3.70387 5.62871 3.59301 6.01764 3.38875 6.35864L3.38341 6.36732C2.90395 7.1502 2.4345 7.23035 1.9377 7.78945C1.13749 8.68855 1.10748 9.88089 1.11748 10.275C1.13661 10.8792 1.29841 11.4703 1.58961 11.9997C1.2986 12.5293 1.13681 13.1203 1.11748 13.7244C1.10748 14.1185 1.13949 15.3116 1.9377 16.21C2.4345 16.7698 2.90395 16.8499 3.38341 17.6321C3.38544 17.6351 3.38723 17.6382 3.38875 17.6415C3.59293 17.9823 3.70378 18.3709 3.71016 18.7683C3.71302 19.037 3.79061 19.2996 3.93422 19.5265C4.14828 19.8605 4.55372 20.1638 5.30459 20.2813C5.64819 20.3318 5.97751 20.4535 6.27151 20.6387C6.3382 20.6814 6.40488 20.7289 6.47156 20.7823C7.50717 21.5979 7.41514 22.8591 10.3693 22.8838H10.4119C10.812 22.8838 11.4042 22.833 12.1397 22.4042C12.8733 22.833 13.4647 22.8838 13.8668 22.8838H13.9095C16.8643 22.8591 16.7723 21.5979 17.8079 20.7823C17.8746 20.7289 17.9413 20.6814 18.0079 20.6387C18.3019 20.4534 18.6312 20.3317 18.9749 20.2813C19.7257 20.1638 20.1305 19.8578 20.3446 19.5265C20.4882 19.2996 20.5658 19.037 20.5686 18.7683C20.5755 18.371 20.6863 17.9825 20.89 17.6415L20.896 17.6321C21.3755 16.8499 21.845 16.7698 22.3418 16.21C23.142 15.3116 23.172 14.1192 23.1613 13.7244C23.1425 13.1203 22.9809 12.5292 22.6899 11.9997C22.9811 11.4703 23.1427 10.8792 23.1613 10.275C23.172 9.88089 23.14 8.68855 22.3418 7.78945C21.845 7.23035 21.3755 7.1502 20.896 6.36732L20.89 6.35864C20.6864 6.01739 20.5755 5.62862 20.5686 5.23109C20.5656 4.96245 20.488 4.69994 20.3446 4.47293C20.1305 4.13894 19.7257 3.83635 18.9749 3.71878C18.6312 3.66816 18.3019 3.54621 18.0079 3.36075C17.9413 3.318 17.8746 3.27124 17.8079 3.2178C16.7723 2.4022 16.8643 1.14105 13.9095 1.11633H13.8668C13.4667 1.11633 12.8753 1.1671 12.1397 1.59595C11.4062 1.1671 10.8147 1.11633 10.4119 1.11633Z" fill="#D08B86"/>
<path d="M12.1395 19.8139C16.378 19.8139 19.8139 16.378 19.8139 12.1395C19.8139 7.90104 16.378 4.46509 12.1395 4.46509C7.90104 4.46509 4.46509 7.90104 4.46509 12.1395C4.46509 16.378 7.90104 19.8139 12.1395 19.8139Z" fill="#DAA49A"/>
<path d="M12.1405 4.73262C13.1136 4.73 14.0776 4.92035 14.9767 5.29265C15.8758 5.66495 16.6922 6.21182 17.3785 6.90162C18.0687 7.58776 18.6158 8.40397 18.9882 9.30301C19.3607 10.2021 19.5511 11.166 19.5484 12.1392C19.5511 13.1123 19.3607 14.0763 18.9882 14.9753C18.6158 15.8744 18.0687 16.6906 17.3785 17.3767C16.6923 18.0668 15.876 18.6139 14.9769 18.9863C14.0778 19.3587 13.1137 19.5491 12.1405 19.5464C11.1673 19.5491 10.2032 19.3587 9.3041 18.9863C8.40498 18.6139 7.58869 18.0668 6.90249 17.3767C6.21237 16.6906 5.66523 15.8744 5.29276 14.9753C4.9203 14.0763 4.72993 13.1123 4.73264 12.1392C4.72993 11.166 4.9203 10.2021 5.29276 9.30301C5.66523 8.40397 6.21237 7.58776 6.90249 6.90162C7.58886 6.21182 8.4052 5.66495 9.30429 5.29265C10.2034 4.92035 11.1674 4.73 12.1405 4.73262ZM12.1405 4.46509C10.105 4.46509 8.15281 5.27358 6.7134 6.71273C5.274 8.15189 4.46527 10.1038 4.46509 12.1392C4.46509 14.1746 5.27374 16.1267 6.71316 17.566C8.15258 19.0053 10.1049 19.8139 12.1405 19.8139C14.1758 19.8134 16.1276 19.0046 17.5666 17.5653C19.0055 16.1261 19.8139 14.1743 19.8139 12.1392C19.8137 10.1038 19.005 8.15189 17.5656 6.71273C16.1262 5.27358 14.174 4.46509 12.1385 4.46509H12.1405Z" fill="#D08B86"/>
<defs>
<radialGradient id="paint0_radial_422_553" cx="0" cy="0" r="1" gradientUnits="userSpaceOnUse" gradientTransform="translate(12.1384 11.9997) scale(10.9449 10.9634)">
<stop stop-color="white"/>
<stop offset="1" stop-color="#DAA49A"/>
</radialGradient>
</defs>
</svg>
