<?xml version="1.0" encoding="UTF-8"?><svg id="a" xmlns="http://www.w3.org/2000/svg" xmlns:xlink="http://www.w3.org/1999/xlink" viewBox="0 0 252.17 249.68"><defs><style>.c{fill:#fefcfb;fill-rule:evenodd;}.d{fill:url(#b);isolation:isolate;}</style><linearGradient id="b" x1="126.09" y1="0" x2="126.09" y2="249.68" gradientUnits="userSpaceOnUse"><stop offset="0" stop-color="#d08b86"/><stop offset="1" stop-color="#daa49a"/></linearGradient></defs><path class="c" d="M161.46,67.83c.23,.47,.04,1.04-.43,1.27-8.97,4.44-17.15,14.32-23.74,25.04-6.58,10.69-11.5,22.04-14.01,29.22-.17,.5-.72,.76-1.21,.58-.5-.17-.76-.72-.58-1.21,2.55-7.29,7.52-18.77,14.18-29.59,6.64-10.78,15.05-21.06,24.52-25.75,.47-.23,1.04-.04,1.27,.43Z"/><path class="c" d="M176.19,58.1c.34,.4,.28,1-.12,1.34-4.84,4.03-11.88,8.53-14.79,10.28-.45,.27-1.03,.12-1.3-.33-.27-.45-.12-1.03,.33-1.3,2.88-1.73,9.83-6.17,14.55-10.11,.4-.34,1-.28,1.34,.12Z"/><path class="c" d="M141.79,98.96c-.7,.93-1.28,1.97-1.69,2.9-.21,.48-.77,.7-1.25,.49-.48-.21-.7-.77-.49-1.25,.46-1.04,1.11-2.22,1.92-3.29,.8-1.06,1.8-2.06,2.96-2.66,1.19-.62,2.57-.84,4.01-.27,1.4,.55,2.74,1.79,4,3.78,.28,.44,.15,1.03-.29,1.31-.44,.28-1.03,.15-1.31-.29-1.15-1.81-2.21-2.68-3.09-3.03-.84-.33-1.64-.23-2.44,.18-.82,.43-1.62,1.19-2.32,2.13Z"/><path class="c" d="M151.37,99.41c-.13,.51-.65,.81-1.16,.68-.85-.22-2.12-.19-3.74,.09-1.59,.28-3.4,.78-5.27,1.39-3.73,1.23-7.57,2.9-10.07,4.08-.47,.22-1.04,.02-1.27-.45-.22-.47-.02-1.04,.45-1.27,2.54-1.21,6.46-2.91,10.29-4.17,1.91-.63,3.82-1.16,5.54-1.46,1.69-.3,3.29-.39,4.55-.06,.51,.13,.81,.65,.68,1.16Z"/><path class="c" d="M126.69,82.75c.51,.13,.81,.65,.68,1.16-.22,.84-.18,1.97,.12,3.32,.29,1.34,.82,2.81,1.46,4.3,1.3,2.98,3.05,5.9,4.33,7.71,.3,.43,.2,1.02-.23,1.33-.43,.3-1.02,.2-1.32-.23-1.34-1.9-3.17-4.94-4.52-8.05-.68-1.56-1.25-3.15-1.58-4.65-.33-1.48-.43-2.96-.1-4.21,.13-.51,.65-.81,1.16-.68Z"/><path class="c" d="M151.01,88.54c-4.57,1.01-9.57,2.6-12.77,3.74-.49,.18-1.04-.08-1.22-.58s.08-1.04,.57-1.22c3.25-1.16,8.33-2.77,13-3.81,2.33-.52,4.59-.9,6.49-1.01,.95-.05,1.83-.04,2.6,.07,.76,.11,1.48,.32,2.05,.73,.43,.31,.52,.9,.22,1.33-.31,.43-.9,.52-1.33,.22-.21-.15-.59-.3-1.21-.39-.6-.09-1.35-.1-2.22-.05-1.75,.1-3.89,.46-6.18,.97Z"/><path class="c" d="M138.62,66.62c.52,.07,.89,.54,.82,1.07-.3,2.29,.1,5.79,.75,9.33,.65,3.5,1.53,6.92,2.14,8.99,.15,.5-.14,1.03-.64,1.18-.5,.15-1.03-.14-1.18-.64-.63-2.12-1.53-5.61-2.19-9.18-.66-3.54-1.11-7.3-.77-9.92,.07-.52,.54-.89,1.07-.82Z"/><path class="c" d="M160.32,77.11c-4.53,.68-9.49,1.76-12.68,2.56-.51,.13-1.03-.18-1.15-.69-.13-.51,.18-1.03,.69-1.15,3.23-.81,8.26-1.91,12.86-2.6,2.3-.34,4.52-.59,6.36-.63,.92-.02,1.77,0,2.5,.1,.71,.09,1.4,.25,1.93,.56,.46,.26,.61,.84,.35,1.3-.26,.45-.84,.61-1.3,.35-.21-.12-.6-.24-1.22-.32-.6-.08-1.35-.1-2.22-.08-1.73,.04-3.87,.27-6.13,.61Z"/><path class="c" d="M153.78,51.69c.43,.29,.55,.89,.26,1.32-.64,.95-1.14,2.39-1.48,4.18-.34,1.78-.53,3.83-.6,5.93-.14,4.21,.16,8.57,.49,11.29,.06,.52-.31,1-.83,1.06-.52,.06-.99-.31-1.06-.83-.34-2.79-.65-7.25-.5-11.58,.07-2.17,.26-4.32,.63-6.23,.37-1.89,.92-3.63,1.77-4.89,.29-.44,.89-.55,1.32-.25Z"/><path class="c" d="M150.79,98.28c.49,.19,.74,.74,.55,1.23-.6,1.56-1.95,3.63-4.13,4.62-2.28,1.03-5.19,.75-8.56-1.9-.41-.33-.49-.92-.16-1.34,.32-.41,.92-.49,1.34-.16,2.98,2.34,5.13,2.32,6.6,1.66,1.57-.71,2.65-2.28,3.14-3.56,.19-.49,.74-.73,1.23-.55Z"/><path class="c" d="M126.93,82.85c.46,.26,.61,.84,.35,1.3-1.01,1.75-2.05,4.22-2.11,6.09-.03,.92,.18,1.53,.56,1.88,.37,.35,1.11,.67,2.6,.52,.52-.05,.99,.33,1.04,.85,.05,.52-.33,.99-.85,1.04-1.77,.17-3.16-.15-4.09-1.04-.93-.89-1.18-2.13-1.14-3.32,.07-2.35,1.31-5.16,2.36-6.98,.26-.45,.84-.61,1.3-.35Z"/><path class="c" d="M129.39,87.48c-.76-1.43-2.2-2.45-3.32-2.93-.48-.21-.71-.77-.5-1.25,.21-.48,.77-.71,1.25-.5,1.38,.59,3.22,1.86,4.25,3.79,1.07,2.02,1.15,4.62-.81,7.58-.29,.44-.88,.56-1.32,.27-.44-.29-.56-.88-.27-1.32,1.61-2.44,1.43-4.3,.71-5.65Z"/><path class="c" d="M139,66.76c.45,.28,.58,.86,.31,1.31-1.31,2.12-2.76,5.2-3,7.66-.12,1.23,.07,2.14,.54,2.73,.44,.56,1.3,1.03,3,1.02,.52,0,.95,.42,.96,.94,0,.53-.42,.95-.94,.96-2.05,.02-3.57-.56-4.51-1.74-.91-1.14-1.09-2.64-.94-4.1,.29-2.9,1.91-6.28,3.28-8.48,.28-.45,.86-.58,1.31-.31Z"/><path class="c" d="M137.75,66.98c.32-.41,.92-.49,1.33-.16,1.42,1.11,3.25,3.14,4.09,5.63,.87,2.56,.66,5.59-1.97,8.45-.35,.39-.96,.41-1.34,.06-.39-.35-.41-.96-.06-1.34,2.12-2.31,2.23-4.59,1.57-6.56-.69-2.04-2.24-3.78-3.46-4.74-.41-.32-.49-.92-.16-1.34Z"/><path class="c" d="M153.85,85.24c-1.98,.55-3.65,2.13-4.5,3.46-.28,.44-.87,.57-1.31,.29-.44-.28-.57-.87-.29-1.31,1.03-1.61,3.04-3.56,5.59-4.27,1.29-.36,2.73-.4,4.21,.09,1.48,.49,2.94,1.5,4.35,3.13,.34,.4,.3,1-.1,1.34-.4,.34-1,.3-1.34-.1-1.23-1.42-2.42-2.2-3.51-2.56-1.08-.36-2.13-.33-3.1-.06Z"/><path class="c" d="M161.61,86.4c.47,.24,.65,.82,.41,1.28-.87,1.68-2.63,3.83-5.16,4.69-2.63,.89-5.81,.27-9.21-3.09-.37-.37-.38-.97,0-1.34,.37-.37,.97-.38,1.35,0,3.03,2.99,5.49,3.24,7.27,2.64,1.9-.64,3.34-2.34,4.08-3.76,.24-.47,.82-.65,1.28-.41Z"/><path class="c" d="M162.5,73.86c-1.7,.38-2.88,1.68-3.44,2.78-.24,.47-.81,.66-1.28,.42-.47-.24-.66-.81-.42-1.28,.73-1.45,2.31-3.23,4.71-3.77,2.45-.56,5.47,.24,8.93,3.38,.39,.35,.42,.95,.06,1.34-.35,.39-.95,.42-1.34,.06-3.17-2.88-5.58-3.3-7.23-2.93Z"/><path class="c" d="M170.88,75.28c.44,.28,.57,.87,.29,1.31-1.04,1.64-3.01,3.74-5.55,4.51-1.29,.39-2.73,.44-4.23-.1-1.48-.54-2.96-1.62-4.39-3.38-.33-.41-.27-1.01,.14-1.34,.41-.33,1.01-.27,1.34,.14,1.27,1.56,2.48,2.4,3.56,2.79,1.07,.39,2.09,.36,3.03,.07,1.94-.59,3.58-2.28,4.5-3.71,.28-.44,.87-.57,1.31-.29Z"/><path class="c" d="M153.97,51.85c.35,.4,.3,1-.09,1.34-1.98,1.73-4.4,4.41-5.41,6.91-.5,1.24-.6,2.3-.28,3.14,.31,.81,1.09,1.64,2.84,2.25,.5,.17,.76,.72,.59,1.21-.17,.5-.71,.76-1.21,.58-2.09-.73-3.42-1.87-3.99-3.37-.56-1.47-.3-3.06,.29-4.52,1.17-2.91,3.86-5.84,5.93-7.63,.4-.34,1-.3,1.34,.09Z"/><path class="c" d="M153.28,51.84c.48-.21,1.04,0,1.26,.49,2.51,5.68,2.67,9.46,1.51,11.87-1.19,2.48-3.6,3.19-5.37,3.13-.53-.02-.93-.46-.92-.99,.02-.52,.46-.93,.99-.92,1.28,.05,2.82-.47,3.58-2.05,.79-1.65,.9-4.76-1.54-10.28-.21-.48,0-1.04,.49-1.25Z"/><path class="c" d="M176.64,58.43c-.07,.52-.56,.88-1.08,.81-5.85-.84-9.35,.66-11.4,2.69-2.09,2.07-2.82,4.84-2.83,6.75,0,.53-.43,.95-.96,.94-.52,0-.95-.43-.94-.96,.02-2.28,.87-5.58,3.39-8.08,2.56-2.54,6.7-4.13,13.01-3.22,.52,.07,.88,.56,.81,1.08Z"/><path class="c" d="M175.87,57.36c.52,.1,.85,.6,.76,1.11-1.32,6.91-4.21,10.47-7.59,11.86-3.33,1.37-6.83,.49-9.14-.84-.46-.26-.61-.84-.35-1.3,.26-.45,.84-.61,1.3-.35,1.98,1.14,4.85,1.81,7.47,.73,2.57-1.05,5.2-3.91,6.44-10.46,.1-.52,.6-.85,1.11-.76Z"/><path class="c" d="M95.6,83.14c-.16,.33-.03,.73,.3,.89,6.26,3.09,11.96,9.99,16.56,17.46,4.59,7.45,8.02,15.38,9.77,20.38,.12,.35,.5,.53,.85,.41,.35-.12,.53-.5,.41-.85-1.78-5.08-5.25-13.09-9.89-20.64-4.63-7.52-10.5-14.69-17.1-17.96-.33-.16-.73-.03-.89,.3Z"/><path class="c" d="M85.33,76.35c-.23,.28-.2,.7,.08,.93,3.37,2.81,8.29,5.95,10.32,7.17,.31,.19,.72,.09,.91-.23,.19-.31,.09-.72-.23-.91-2.01-1.21-6.86-4.31-10.15-7.05-.28-.23-.7-.2-.93,.08Z"/><path class="c" d="M109.32,104.85c.49,.65,.89,1.38,1.18,2.03,.15,.33,.54,.49,.87,.34,.33-.15,.49-.54,.34-.87-.32-.73-.77-1.55-1.34-2.29-.56-.74-1.25-1.43-2.07-1.86-.83-.43-1.79-.58-2.8-.19-.98,.38-1.91,1.25-2.79,2.64-.2,.31-.1,.72,.21,.92,.31,.2,.72,.1,.92-.2,.8-1.27,1.54-1.87,2.16-2.12,.59-.23,1.15-.16,1.7,.13,.57,.3,1.13,.83,1.62,1.48Z"/><path class="c" d="M102.64,105.16c.09,.36,.46,.57,.81,.47,.59-.15,1.48-.13,2.61,.07,1.11,.19,2.37,.54,3.67,.97,2.6,.86,5.28,2.02,7.02,2.85,.33,.16,.73,.02,.88-.32s.02-.73-.32-.88c-1.77-.84-4.51-2.03-7.18-2.91-1.33-.44-2.67-.81-3.86-1.02-1.18-.21-2.3-.27-3.17-.04-.35,.09-.57,.46-.47,.81Z"/><path class="c" d="M119.85,93.54c-.35,.09-.57,.46-.47,.81,.15,.58,.12,1.37-.08,2.32-.21,.93-.57,1.96-1.02,3-.9,2.08-2.13,4.12-3.02,5.38-.21,.3-.14,.71,.16,.92,.3,.21,.71,.14,.92-.16,.94-1.32,2.21-3.44,3.15-5.61,.47-1.09,.87-2.2,1.1-3.25,.23-1.03,.3-2.06,.07-2.94-.09-.35-.46-.57-.81-.47Z"/><path class="c" d="M102.89,97.58c3.19,.71,6.67,1.81,8.91,2.61,.35,.12,.72-.06,.85-.4,.12-.35-.06-.72-.4-.85-2.27-.81-5.81-1.93-9.07-2.66-1.63-.36-3.2-.63-4.53-.7-.66-.04-1.28-.03-1.81,.05-.53,.08-1.03,.22-1.43,.51-.3,.21-.37,.63-.15,.93,.21,.3,.63,.37,.93,.15,.15-.11,.41-.21,.84-.27,.42-.06,.94-.07,1.55-.04,1.22,.07,2.72,.32,4.31,.67Z"/><path class="c" d="M111.53,82.29c-.36,.05-.62,.38-.57,.74,.21,1.6-.07,4.04-.52,6.5-.45,2.44-1.07,4.83-1.49,6.27-.1,.35,.1,.72,.45,.82,.35,.1,.72-.1,.82-.45,.44-1.48,1.07-3.91,1.53-6.41,.46-2.47,.77-5.09,.54-6.92-.05-.36-.38-.62-.74-.57Z"/><path class="c" d="M96.39,89.61c3.16,.47,6.62,1.23,8.85,1.79,.36,.09,.72-.13,.8-.48,.09-.36-.13-.72-.48-.8-2.25-.56-5.76-1.33-8.97-1.81-1.6-.24-3.15-.41-4.44-.44-.64-.02-1.24,0-1.75,.07-.5,.06-.97,.18-1.35,.39-.32,.18-.43,.59-.24,.91,.18,.32,.59,.43,.91,.24,.15-.08,.42-.17,.85-.23,.42-.05,.94-.07,1.55-.06,1.21,.03,2.7,.19,4.28,.43Z"/><path class="c" d="M100.96,71.87c-.3,.21-.38,.62-.18,.92,.45,.66,.79,1.67,1.03,2.92,.24,1.24,.37,2.67,.42,4.14,.1,2.94-.11,5.98-.34,7.87-.04,.36,.21,.69,.58,.74,.36,.04,.69-.22,.74-.58,.23-1.95,.45-5.06,.35-8.08-.05-1.51-.18-3.01-.44-4.35-.25-1.32-.64-2.53-1.24-3.41-.21-.3-.62-.38-.92-.18Z"/><path class="c" d="M103.05,104.38c-.34,.13-.51,.51-.38,.86,.42,1.09,1.36,2.53,2.88,3.22,1.59,.72,3.62,.52,5.97-1.33,.29-.23,.34-.64,.11-.93-.23-.29-.64-.34-.93-.11-2.08,1.63-3.58,1.62-4.6,1.16-1.09-.49-1.85-1.59-2.19-2.49-.13-.34-.51-.51-.86-.38Z"/><path class="c" d="M119.69,93.61c-.32,.18-.43,.59-.24,.91,.7,1.22,1.43,2.94,1.47,4.25,.02,.64-.13,1.07-.39,1.31-.26,.25-.77,.46-1.81,.36-.36-.04-.69,.23-.72,.6-.04,.36,.23,.69,.6,.72,1.23,.12,2.21-.1,2.86-.73,.65-.62,.82-1.49,.8-2.32-.05-1.64-.91-3.6-1.65-4.87-.18-.32-.59-.43-.91-.24Z"/><path class="c" d="M117.97,96.84c.53-1,1.53-1.71,2.31-2.05,.34-.14,.49-.54,.35-.87-.14-.34-.53-.49-.87-.35-.96,.41-2.25,1.3-2.96,2.65-.74,1.41-.8,3.22,.56,5.29,.2,.31,.61,.39,.92,.19,.31-.2,.39-.61,.19-.92-1.12-1.7-.99-3-.5-3.94Z"/><path class="c" d="M111.27,82.39c-.31,.19-.41,.6-.21,.91,.92,1.48,1.92,3.63,2.09,5.35,.08,.86-.05,1.49-.38,1.9-.31,.39-.91,.72-2.09,.71-.37,0-.67,.29-.67,.66,0,.37,.29,.67,.66,.67,1.43,.01,2.49-.39,3.14-1.21,.63-.8,.76-1.84,.66-2.86-.2-2.02-1.33-4.38-2.28-5.91-.19-.31-.6-.41-.91-.21Z"/><path class="c" d="M112.14,82.54c-.23-.29-.64-.34-.93-.11-.99,.78-2.27,2.19-2.85,3.93-.6,1.79-.46,3.9,1.37,5.89,.25,.27,.67,.29,.94,.04,.27-.25,.29-.67,.04-.94-1.48-1.61-1.55-3.2-1.09-4.57,.48-1.42,1.56-2.64,2.41-3.31,.29-.23,.34-.64,.11-.93Z"/><path class="c" d="M100.91,95.28c1.38,.39,2.55,1.49,3.14,2.42,.2,.31,.61,.4,.92,.2,.31-.2,.4-.61,.2-.92-.72-1.12-2.12-2.48-3.9-2.98-.9-.25-1.9-.28-2.94,.06-1.03,.34-2.05,1.04-3.03,2.18-.24,.28-.21,.7,.07,.94,.28,.24,.7,.21,.94-.07,.86-.99,1.69-1.53,2.45-1.79,.76-.25,1.48-.23,2.16-.04Z"/><path class="c" d="M95.5,96.09c-.33,.17-.45,.57-.28,.89,.61,1.17,1.84,2.67,3.6,3.27,1.84,.62,4.05,.19,6.43-2.15,.26-.26,.26-.68,0-.94-.26-.26-.68-.26-.94,0-2.11,2.09-3.83,2.26-5.07,1.84-1.32-.45-2.33-1.63-2.85-2.62-.17-.33-.57-.45-.89-.28Z"/><path class="c" d="M94.88,87.34c1.18,.27,2.01,1.17,2.4,1.94,.17,.33,.57,.46,.89,.29,.33-.17,.46-.56,.29-.89-.51-1.01-1.61-2.25-3.29-2.63-1.71-.39-3.82,.17-6.23,2.36-.27,.25-.29,.67-.04,.94,.25,.27,.67,.29,.94,.04,2.21-2.01,3.89-2.3,5.04-2.04Z"/><path class="c" d="M89.03,88.33c-.31,.2-.4,.61-.2,.92,.73,1.14,2.1,2.61,3.87,3.15,.9,.27,1.91,.31,2.95-.07,1.04-.37,2.06-1.13,3.06-2.35,.23-.28,.19-.7-.1-.93s-.7-.19-.93,.1c-.89,1.09-1.73,1.67-2.48,1.94-.75,.27-1.46,.25-2.11,.05-1.35-.41-2.5-1.59-3.14-2.59-.2-.31-.61-.4-.92-.2Z"/><path class="c" d="M100.83,71.99c-.24,.28-.21,.7,.07,.94,1.38,1.2,3.07,3.08,3.77,4.82,.35,.86,.42,1.6,.19,2.19-.21,.56-.76,1.14-1.98,1.57-.35,.12-.53,.5-.41,.84,.12,.35,.5,.53,.85,.41,1.46-.51,2.38-1.3,2.78-2.35,.39-1.02,.21-2.13-.2-3.15-.82-2.03-2.69-4.07-4.13-5.32-.28-.24-.69-.21-.94,.07Z"/><path class="c" d="M101.31,71.98c-.34-.15-.73,0-.88,.34-1.75,3.96-1.86,6.6-1.05,8.28,.83,1.73,2.51,2.23,3.74,2.18,.37-.01,.65-.32,.64-.69-.01-.37-.32-.65-.69-.64-.89,.03-1.97-.33-2.5-1.43-.55-1.15-.63-3.32,1.07-7.17,.15-.34,0-.73-.34-.87Z"/><path class="c" d="M85.02,76.58c.05,.36,.39,.61,.75,.56,4.08-.59,6.52,.46,7.95,1.88,1.46,1.45,1.96,3.38,1.98,4.71,0,.37,.3,.66,.67,.66,.37,0,.66-.3,.66-.67-.01-1.59-.61-3.89-2.37-5.64-1.79-1.77-4.68-2.88-9.08-2.25-.36,.05-.61,.39-.56,.75Z"/><path class="c" d="M85.55,75.83c-.36,.07-.6,.42-.53,.78,.92,4.82,2.94,7.31,5.29,8.27,2.32,.95,4.77,.34,6.38-.59,.32-.18,.43-.59,.24-.91-.18-.32-.59-.43-.91-.24-1.38,.8-3.38,1.26-5.21,.51-1.79-.74-3.62-2.73-4.49-7.29-.07-.36-.42-.6-.78-.53Z"/><path class="c" d="M77.36,126.88c8.33,6.43,15.66,17.02,19.87,24.76,.5,.92,.17,2.08-.75,2.58-.92,.5-2.07,.16-2.57-.76-4.1-7.53-11.12-17.6-18.85-23.56-3.86-2.98-7.71-4.79-11.33-4.94-3.5-.15-7.07,1.25-10.53,5.33-8.54,10.07-5.86,24.55,5.47,38.48,11.25,13.83,30.6,26.4,53.53,31.84,1.02,.24,1.65,1.27,1.41,2.29-.24,1.02-1.26,1.66-2.28,1.41-23.67-5.62-43.77-18.6-55.6-33.14-11.74-14.43-15.77-31.14-5.42-43.35,4.09-4.83,8.74-6.87,13.57-6.66,4.72,.2,9.32,2.52,13.48,5.73Z"/><path class="c" d="M101.24,137.1c-1.64,5.3-2.89,10.95-3.71,15.82-.18,1.04-1.16,1.74-2.2,1.56-1.04-.17-1.74-1.15-1.57-2.19,.84-5,2.13-10.82,3.83-16.31,1.69-5.46,3.82-10.72,6.39-14.53,2.5-3.69,5.91-6.68,10.19-5.94,2.06,.36,4.03,1.56,5.89,3.45,1.87,1.9,3.74,4.59,5.62,8.15,7.65,14.42,6.92,30.29,3.17,44.06-3.75,13.77-10.58,25.66-15.46,32.37-.62,.85-1.81,1.04-2.67,.43-.85-.62-1.04-1.8-.42-2.65,4.67-6.41,11.26-17.89,14.87-31.13,3.61-13.24,4.18-28.02-2.86-41.29-1.79-3.37-3.45-5.72-4.97-7.26-1.52-1.55-2.8-2.19-3.83-2.37-1.89-.33-4.03,.86-6.36,4.32-2.26,3.34-4.26,8.19-5.91,13.52Z"/><path class="c" d="M65.33,122.74c.93,.49,1.29,1.64,.8,2.57-3.26,6.21-8.18,16.18-11.3,23.39,5.87-7.5,11.69-13.41,15.56-16.37,1.1-.84,2.13-1.52,3.03-1.92,.44-.19,.97-.38,1.53-.41,.59-.03,1.45,.1,2.08,.84,.58,.68,.63,1.48,.59,1.98-.03,.54-.18,1.09-.37,1.62-.39,1.07-1.08,2.42-2.06,4.04-1.35,2.22-2.96,4.81-4.66,7.52-3.21,5.14-6.7,10.73-9.2,15.18-.55,.98-1.04,1.88-1.47,2.71,2.46-2.33,5.35-5.82,8.27-9.65,2.72-3.56,5.39-7.32,7.7-10.58,.52-.73,1.02-1.43,1.49-2.1,1.3-1.82,2.45-3.4,3.35-4.56,.45-.57,.87-1.08,1.23-1.46,.18-.19,.38-.38,.58-.55,.15-.13,.51-.4,.99-.54,.27-.07,.72-.14,1.23,.04,.55,.19,.91,.58,1.11,.96,.32,.59,.26,1.19,.24,1.38-.05,.52-.24,1.16-.46,1.82-.47,1.39-1.36,3.53-2.7,6.55-2.91,6.57-5.91,12.63-8.4,17.53,3.3-4.12,6-7.59,8.13-10.34,.22-.28,.43-.56,.64-.83,2.06-2.66,3.58-4.62,4.53-5.71,.26-.3,.52-.58,.75-.8,.12-.11,.26-.23,.42-.35,.12-.09,.43-.29,.85-.38,.23-.05,.58-.08,.98,.03,.43,.12,.78,.39,1.03,.71,.41,.55,.41,1.14,.41,1.3,0,.42-.13,.84-.21,1.12-.37,1.2-1.4,3.54-2.93,6.96-4.19,9.37-9.03,20.94-10.9,27.34,.19-.24,.39-.49,.6-.77,1.52-1.99,3.49-4.79,5.97-8.57,9.99-15.19,20.77-31,27.77-40.43,1.75-2.36,3.28-4.34,4.51-5.81,.61-.74,1.17-1.37,1.65-1.87,.45-.46,.94-.93,1.43-1.22,.2-.12,.69-.4,1.33-.39,.38,0,.83,.12,1.23,.43,.39,.3,.59,.68,.7,.98,.18,.52,.13,1.02,.09,1.26-.04,.31-.12,.62-.22,.93-.37,1.2-1.2,3.09-2.48,5.68-4.71,9.5-11.84,21.38-18.21,31.98-2.25,3.75-4.41,7.34-6.33,10.61-3.25,5.53-5.76,10.04-7,12.93,3.24-2.43,7.45-7.5,11.89-13.64,4.45-6.16,8.97-13.18,12.71-19.11,.98-1.55,1.91-3.04,2.78-4.43,2.4-3.84,4.3-6.86,5.29-8.21,.18-.24,.36-.47,.53-.66,.08-.09,.2-.21,.34-.33h0c.09-.07,.4-.33,.87-.45,.27-.07,.71-.11,1.2,.09,.51,.21,.82,.57,.99,.9,.27,.51,.23,1,.23,1.12h0c-.03,.35-.12,.69-.2,.93-.32,1.03-1.18,3.05-2.59,6.19-2.69,5.96-5.55,12.06-8.26,17.81-3.1,6.6-5.98,12.73-8.12,17.65-.95,2.18-1.73,4.08-2.31,5.64,3.86-4.01,8.58-9.49,12.75-14.76,4.57-5.79,8.28-11.11,9.53-13.96,.42-.96,1.54-1.4,2.51-.98,.96,.42,1.4,1.54,.98,2.5-1.47,3.37-5.5,9.05-10.03,14.79-4.58,5.8-9.86,11.88-14,16.08-.67,.68-1.27,1.23-1.8,1.65-.49,.38-1.09,.79-1.75,.96-.35,.09-.86,.16-1.42-.02-.61-.2-1.03-.61-1.28-1.07-.41-.74-.36-1.58-.31-2.04,.12-1.09,.57-2.57,1.17-4.23,.62-1.71,1.47-3.76,2.47-6.07,2.13-4.91,5.07-11.17,8.21-17.85,.41-.88,.83-1.76,1.25-2.65-2.74,4.23-5.71,8.66-8.65,12.73-4.48,6.2-9.07,11.81-12.88,14.59-.92,.68-1.76,1.2-2.49,1.53-.36,.16-.77,.31-1.2,.38-.42,.06-1,.07-1.58-.2-1.37-.64-1.46-2.05-1.43-2.67,.04-.73,.26-1.54,.54-2.33,1.13-3.16,4.1-8.51,7.77-14.75,1.97-3.35,4.16-7,6.43-10.78,5.23-8.7,10.9-18.14,15.33-26.43-6.94,9.45-17.2,24.52-26.77,39.07-2.51,3.82-4.53,6.7-6.14,8.79-1.56,2.03-2.84,3.47-3.85,4.2-.27,.2-.58,.39-.94,.53-.34,.13-.85,.26-1.43,.15-1.43-.27-1.82-1.55-1.91-2.1-.11-.62-.05-1.31,.04-1.94,.1-.66,.26-1.42,.48-2.25,1.45-5.56,5.59-15.73,9.53-24.75-2.11,2.71-4.65,5.94-7.64,9.64-1.97,2.45-3.53,4.34-4.72,5.73-1.16,1.35-2.05,2.33-2.67,2.86-.16,.13-.36,.29-.59,.43h0c-.14,.08-.71,.41-1.44,.28-.47-.08-.92-.33-1.24-.73-.28-.36-.38-.73-.41-.96-.06-.42,.01-.79,.05-.95,.16-.7,.63-1.75,1.17-2.87,.71-1.47,1.7-3.4,2.88-5.71,2.28-4.45,5.29-10.31,8.38-17-1.96,2.75-4.14,5.77-6.33,8.65-3.35,4.39-6.86,8.62-9.87,11.18-.74,.63-1.39,1.14-1.96,1.53-.55,.37-1.12,.71-1.68,.89-.47,.15-1.62,.41-2.54-.49-.81-.78-.74-1.83-.7-2.22,.1-.98,.61-2.23,1.19-3.48,.62-1.32,1.45-2.9,2.42-4.62,2.54-4.51,6.13-10.27,9.37-15.46,1.68-2.69,3.26-5.22,4.55-7.35,.23-.37,.43-.72,.61-1.04-4.05,3.16-10.68,10.01-17.14,18.77-1.32,1.79-2.36,3.05-3.15,3.73-.21,.18-.45,.37-.72,.52-.24,.13-.7,.35-1.29,.33-.75-.03-1.37-.45-1.72-1.03-.28-.46-.32-.93-.33-1.18-.02-.53,.09-1.11,.21-1.6,.13-.54,.32-1.15,.55-1.82,.46-1.34,1.12-3.01,1.9-4.86,3.13-7.39,8.45-18.2,11.92-24.79,.49-.93,1.64-1.29,2.57-.8Zm8.48,9.84s0,0,0,0c0-.01,0-.01,0,0Zm11.07,5.35s.02-.01,0,0c0,0,0,0,0,0Zm34.81-13.05s0,0,0,0c0-.03,0-.04,0,0Zm-16.17,69.92s0,0,0-.03c0,.02,0,.03,0,.03Zm-15.09-4.79s0,0,0-.02c0,0,0,.02,0,.02Zm-30.26-22.18s0,0,0,0c0,.07,0,.08,0,0Z"/><path class="c" d="M155.86,161.05c1.39-.31,2.83,.2,4.02,1.62,.87,1.04,1.36,2.04,1.45,2.99,.09,.99-.26,1.81-.83,2.44-.54,.6-1.27,1-1.97,1.28-.71,.28-1.45,.44-2.08,.52l-.14,.02-.14-.02c-1.93-.32-3.18-1.29-3.69-2.64-.49-1.29-.22-2.71,.4-3.83,.62-1.11,1.67-2.09,2.98-2.38Zm.49,6.93c-1.32-.26-1.87-.86-2.07-1.4-.24-.63-.14-1.45,.28-2.21,.42-.76,1.08-1.29,1.72-1.43,.56-.13,1.31,0,2.13,.98,.74,.88,.98,1.52,1.02,1.94,.04,.38-.08,.68-.34,.96-.27,.3-.71,.57-1.25,.78-.49,.19-1.01,.32-1.48,.39Z"/><path class="c" d="M148.26,172.31c-.38-.37-.39-.98-.02-1.36l4.5-4.62c.37-.38,.98-.39,1.36-.02,.38,.37,.39,.98,.02,1.36l-4.5,4.62c-.37,.38-.98,.39-1.36,.02Z"/><path class="c" d="M148.21,176.73c2.6-2.24,4.97-5.69,6.22-8.07,.25-.47,.83-.65,1.3-.4,.47,.25,.65,.83,.4,1.3-1.32,2.52-3.82,6.18-6.66,8.63-1.42,1.22-3,2.21-4.63,2.54-1.7,.34-3.38-.05-4.84-1.47-.89-.86-1.43-1.81-1.62-2.83-.2-1.01-.04-2.01,.34-2.94,.74-1.82,2.37-3.48,4.16-4.83,1.81-1.36,3.9-2.48,5.73-3.18,.91-.35,1.78-.6,2.53-.72,.7-.11,1.49-.14,2.11,.17,.47,.24,.66,.82,.42,1.29-.24,.47-.82,.66-1.29,.42h0s-.07-.03-.24-.04c-.17,0-.4,0-.69,.05-.58,.09-1.32,.3-2.15,.62-1.66,.64-3.59,1.67-5.26,2.92-1.69,1.26-2.99,2.67-3.54,4.02-.27,.65-.35,1.27-.23,1.84,.11,.57,.43,1.18,1.08,1.82,.98,.96,2.02,1.18,3.12,.96,1.16-.24,2.45-.99,3.75-2.11Z"/><path class="c" d="M165.78,178.05c-3.09-2.17-5.94-5.93-7.68-8.79-.28-.45-.13-1.04,.32-1.32,.45-.28,1.04-.13,1.32,.32,1.68,2.77,4.37,6.27,7.14,8.21,1.39,.97,2.68,1.47,3.8,1.43,1.06-.04,2.15-.58,3.18-2.13,1.36-2.05,1.47-3.46,1.11-4.44-.39-1.03-1.41-1.92-3.03-2.64-3.23-1.45-8.08-1.91-11.57-2.02-.53-.02-.95-.46-.93-.99,.02-.53,.46-.95,.99-.93,3.5,.11,8.69,.57,12.3,2.19,1.8,.81,3.39,1.98,4.05,3.72,.67,1.79,.24,3.86-1.31,6.18-1.29,1.94-2.9,2.91-4.7,2.99-1.73,.07-3.44-.69-4.99-1.77Z"/><path class="c" d="M155.63,163.07c-.52,.08-1.02-.28-1.1-.8,0,0,0,0,0,0,0,0,0-.02-.01-.06-.01-.05-.03-.12-.05-.2-.03-.13-.08-.28-.13-.46-.02-.06-.04-.13-.06-.2-.15-.54-.35-1.25-.55-2.07-.4-1.64-.84-3.74-.97-5.79-.13-2.01,0-4.14,.92-5.71,.47-.81,1.16-1.47,2.1-1.87,.93-.39,2.03-.48,3.29-.29,2.08,.32,3.48,1.31,4.22,2.8,.71,1.43,.73,3.17,.44,4.88-.58,3.44-2.5,7.31-4.09,9.88-.28,.45-.87,.59-1.32,.31-.45-.28-.59-.87-.31-1.32,1.54-2.49,3.31-6.11,3.83-9.18,.26-1.54,.18-2.81-.27-3.71-.42-.84-1.22-1.51-2.79-1.75-1.02-.15-1.74-.06-2.26,.16-.51,.21-.89,.57-1.18,1.06-.61,1.05-.79,2.69-.67,4.61,.12,1.88,.53,3.86,.92,5.46,.2,.79,.39,1.48,.53,2.01,.02,.06,.04,.13,.05,.19,.05,.18,.1,.35,.14,.48,.04,.16,.09,.34,.11,.47,.08,.52-.28,1.02-.8,1.1Z"/><path class="c" d="M164.11,166.1c-.25-.47-.08-1.05,.38-1.3,2.11-1.15,4.91-2.96,6.68-4.88,.89-.97,1.42-1.87,1.56-2.65,.13-.69-.04-1.38-.83-2.11-.85-.78-1.72-1.1-2.58-1.14-.88-.04-1.8,.2-2.72,.63-1.85,.88-3.5,2.46-4.39,3.46-.35,.4-.96,.44-1.36,.09-.4-.35-.44-.96-.09-1.36,.96-1.09,2.81-2.89,5.01-3.93,1.1-.52,2.35-.88,3.64-.82,1.31,.07,2.6,.56,3.78,1.64,1.24,1.13,1.67,2.48,1.42,3.87-.24,1.3-1.05,2.53-2.04,3.6-1.98,2.16-5.01,4.09-7.17,5.27-.47,.26-1.05,.08-1.3-.38Z"/><path class="c" d="M152.79,180.14c-.62-2.61-.68-5.68-.56-7.71,.03-.53,.49-.93,1.02-.9,.53,.03,.93,.49,.9,1.02-.12,1.92-.06,4.79,.51,7.14,.28,1.18,.68,2.16,1.17,2.83,.48,.64,1.01,.94,1.64,.95,1.38,.02,2.49-1.05,3.33-3,.82-1.89,1.21-4.24,1.34-5.91,.04-.53,.5-.93,1.03-.89,.53,.04,.93,.5,.89,1.03-.13,1.78-.56,4.37-1.49,6.53-.91,2.11-2.5,4.21-5.13,4.16-1.37-.02-2.41-.74-3.15-1.73-.72-.96-1.19-2.23-1.5-3.53Z"/><path class="c" d="M149.59,166.37c-.2,.49-.76,.72-1.26,.52-1.91-.79-4.55-2.49-6.29-5.07-1.77-2.63-2.58-6.16-.8-10.39,.56-1.32,1.26-2.3,2.14-2.9,.9-.62,1.9-.76,2.88-.57,1.86,.36,3.66,1.92,5.15,3.68,1.53,1.8,2.88,3.99,3.8,5.91,.46,.96,.82,1.88,1.04,2.67,.11,.39,.19,.77,.22,1.12,.03,.33,.03,.71-.08,1.06-.16,.51-.7,.79-1.21,.62-.51-.16-.79-.7-.62-1.21t0,0s.02-.1,0-.29c-.02-.2-.07-.47-.16-.79-.18-.65-.5-1.46-.93-2.36-.86-1.79-2.12-3.84-3.53-5.5-1.44-1.7-2.88-2.81-4.05-3.04-.53-.1-1-.02-1.43,.27-.46,.32-.98,.93-1.45,2.06-1.51,3.59-.82,6.43,.62,8.57,1.48,2.19,3.77,3.68,5.43,4.37,.49,.2,.72,.76,.52,1.25Z"/><path class="c" d="M156.99,162.59c-.52-.09-.88-.58-.79-1.11l1.13-6.7c.09-.52,.58-.88,1.11-.79,.52,.09,.88,.58,.79,1.11l-1.13,6.7c-.09,.52-.58,.88-1.11,.79Z"/><path class="c" d="M159.14,164.61c-.31-.43-.22-1.03,.21-1.34l5.27-3.87c.43-.31,1.03-.22,1.34,.21,.31,.43,.22,1.03-.21,1.34l-5.27,3.87c-.43,.31-1.03,.22-1.34-.21Z"/><path class="c" d="M166.89,172.08c-.29,.44-.89,.56-1.33,.27l-5.83-3.87c-.44-.29-.56-.89-.27-1.33,.29-.44,.89-.56,1.33-.27l5.82,3.87c.44,.29,.56,.89,.27,1.33Z"/><path class="c" d="M157.93,177.93c-.53,.07-1.01-.3-1.07-.83l-1.02-7.89c-.07-.53,.3-1.01,.83-1.07,.53-.07,1.01,.3,1.07,.83l1.01,7.89c.07,.53-.3,1.01-.83,1.07Z"/><path class="c" d="M154.71,164.29c-.35,.4-.95,.45-1.36,.1l-5.53-4.79c-.4-.35-.44-.95-.1-1.36,.35-.4,.95-.44,1.36-.1l5.53,4.79c.4,.35,.44,.95,.1,1.35Z"/><path class="c" d="M180.09,118.72c1.27-.63,2.8-.48,4.29,.63,1.09,.81,1.81,1.66,2.12,2.56,.33,.94,.17,1.83-.23,2.56-.39,.71-1,1.28-1.61,1.71-.62,.44-1.3,.77-1.9,1l-.13,.05h-.14c-1.95,.15-3.39-.49-4.21-1.68-.78-1.14-.85-2.58-.52-3.81,.34-1.23,1.13-2.42,2.33-3.02Zm2.12,6.61c-1.35,.07-2.02-.39-2.35-.87-.38-.55-.48-1.38-.25-2.22,.23-.84,.74-1.51,1.33-1.8,.52-.26,1.28-.31,2.3,.45,.92,.68,1.31,1.24,1.45,1.64,.13,.36,.08,.68-.1,1.01-.2,.36-.55,.72-1.03,1.06-.43,.3-.91,.55-1.35,.72Z"/><path class="c" d="M175.37,131.47c-.46-.27-.61-.86-.34-1.32l3.28-5.55c.27-.46,.86-.61,1.32-.34,.46,.27,.61,.86,.34,1.32l-3.28,5.55c-.27,.46-.86,.61-1.32,.34Z"/><path class="c" d="M176.37,135.77c2-2.8,3.48-6.7,4.13-9.31,.13-.51,.65-.83,1.16-.7s.83,.65,.7,1.16c-.69,2.76-2.25,6.91-4.43,9.96-1.09,1.52-2.39,2.86-3.9,3.57-1.57,.73-3.3,.75-5.05-.28-1.06-.63-1.82-1.42-2.25-2.36-.43-.94-.51-1.94-.37-2.93,.29-1.94,1.48-3.95,2.9-5.68,1.44-1.75,3.21-3.33,4.81-4.44,.8-.55,1.59-1.01,2.29-1.3,.65-.27,1.42-.49,2.09-.33,.52,.12,.83,.64,.71,1.16s-.64,.83-1.16,.71t0,0s-.08-.01-.24,.02c-.17,.03-.39,.1-.66,.21-.54,.23-1.21,.6-1.94,1.11-1.46,1.01-3.1,2.47-4.42,4.08-1.34,1.63-2.27,3.3-2.49,4.74-.1,.7-.04,1.31,.21,1.84,.24,.53,.69,1.05,1.48,1.51,1.18,.7,2.24,.67,3.26,.19,1.08-.5,2.14-1.54,3.15-2.94Z"/><path class="c" d="M193.75,132.89c-3.51-1.37-7.18-4.35-9.55-6.72-.38-.38-.37-.98,0-1.36,.38-.38,.98-.38,1.36,0,2.29,2.29,5.73,5.05,8.88,6.29,1.58,.62,2.95,.8,4.03,.49,1.02-.29,1.95-1.08,2.58-2.83,.84-2.31,.61-3.71,.02-4.58-.62-.91-1.83-1.53-3.57-1.85-3.48-.64-8.31,.06-11.72,.78-.52,.11-1.03-.22-1.14-.74s.22-1.03,.74-1.14c3.43-.73,8.58-1.5,12.47-.79,1.94,.36,3.77,1.12,4.81,2.66,1.07,1.58,1.15,3.69,.2,6.31-.8,2.2-2.13,3.52-3.86,4.02-1.66,.48-3.51,.14-5.26-.54Z"/><path class="c" d="M180.35,120.74c-.49,.2-1.05-.03-1.26-.52,0,0,0,0,0,0,0,0,0-.02-.03-.06-.02-.05-.06-.11-.1-.18-.06-.11-.14-.25-.23-.42-.03-.06-.07-.11-.1-.18-.27-.49-.63-1.13-1.03-1.88-.78-1.5-1.7-3.44-2.32-5.39-.6-1.92-.97-4.02-.46-5.76,.27-.9,.78-1.71,1.59-2.31,.81-.6,1.86-.95,3.13-1.06,2.1-.18,3.69,.44,4.77,1.72,1.03,1.22,1.46,2.91,1.59,4.64,.25,3.47-.7,7.69-1.63,10.56-.16,.51-.71,.78-1.21,.62-.51-.16-.78-.71-.62-1.21,.9-2.78,1.77-6.72,1.54-9.83-.11-1.56-.49-2.77-1.14-3.54-.6-.72-1.54-1.18-3.13-1.04-1.02,.09-1.71,.36-2.16,.69-.44,.33-.73,.76-.89,1.31-.35,1.16-.13,2.8,.45,4.64,.57,1.8,1.43,3.62,2.19,5.08,.38,.72,.73,1.35,1,1.83,.03,.06,.06,.11,.1,.17,.09,.17,.18,.32,.24,.44,.08,.15,.17,.31,.22,.43,.2,.49-.03,1.05-.52,1.26Z"/><path class="c" d="M189.3,121.68c-.36-.39-.33-1,.06-1.36,1.78-1.62,4.07-4.04,5.33-6.33,.63-1.15,.94-2.15,.89-2.94-.04-.7-.37-1.34-1.3-1.85-1.01-.56-1.94-.65-2.78-.49-.86,.17-1.7,.62-2.49,1.26-1.59,1.29-2.82,3.22-3.44,4.4-.25,.47-.83,.65-1.3,.41-.47-.25-.65-.83-.41-1.3,.68-1.29,2.05-3.47,3.93-5.01,.95-.77,2.07-1.41,3.34-1.65,1.29-.25,2.66-.07,4.06,.7,1.47,.81,2.21,2.01,2.3,3.42,.08,1.32-.42,2.71-1.13,3.98-1.41,2.57-3.9,5.16-5.72,6.82-.39,.36-1,.33-1.36-.06Z"/><path class="c" d="M181.63,138c-1.23-2.39-2.01-5.36-2.37-7.36-.09-.52,.26-1.02,.78-1.11,.52-.09,1.02,.26,1.11,.78,.34,1.9,1.08,4.66,2.19,6.82,.55,1.08,1.17,1.94,1.81,2.47,.62,.51,1.2,.68,1.82,.54,1.35-.31,2.17-1.61,2.53-3.71,.35-2.03,.17-4.41-.1-6.06-.09-.52,.27-1.02,.79-1.1,.52-.09,1.02,.27,1.1,.79,.29,1.76,.5,4.37,.1,6.69-.39,2.26-1.43,4.68-4,5.26-1.34,.3-2.52-.15-3.47-.93-.93-.77-1.68-1.88-2.29-3.07Z"/><path class="c" d="M175.26,125.39c-.08,.52-.57,.88-1.1,.8-2.04-.31-5.01-1.34-7.31-3.43-2.35-2.14-3.97-5.37-3.24-9.9,.23-1.42,.68-2.53,1.39-3.32,.73-.81,1.66-1.19,2.66-1.24,1.89-.09,4.02,1,5.88,2.35,1.91,1.39,3.74,3.19,5.09,4.84,.68,.83,1.24,1.63,1.65,2.35,.2,.36,.37,.71,.48,1.04,.11,.32,.2,.68,.17,1.05-.04,.53-.5,.93-1.03,.89-.53-.04-.93-.5-.89-1.03t0,0s0-.1-.07-.28c-.07-.19-.18-.44-.35-.73-.33-.59-.83-1.3-1.46-2.07-1.26-1.54-2.97-3.23-4.73-4.5-1.81-1.31-3.47-2.05-4.66-1.99-.54,.03-.97,.21-1.33,.61-.38,.42-.73,1.14-.92,2.34-.62,3.85,.73,6.44,2.63,8.18,1.96,1.78,4.54,2.68,6.31,2.96,.53,.08,.89,.57,.8,1.1Z"/><path class="c" d="M181.56,119.95c-.53,.04-.99-.36-1.03-.89l-.49-6.78c-.04-.53,.36-.99,.89-1.03,.53-.04,.99,.36,1.03,.89l.49,6.78c.04,.53-.36,.99-.89,1.03Z"/><path class="c" d="M184.12,121.4c-.41-.34-.46-.95-.12-1.35l4.2-5.01c.34-.41,.95-.46,1.35-.12,.41,.34,.46,.95,.12,1.35l-4.2,5.01c-.34,.41-.95,.46-1.35,.12Z"/><path class="c" d="M193.43,126.83c-.18,.5-.73,.76-1.23,.58l-6.58-2.38c-.5-.18-.76-.73-.58-1.23,.18-.5,.73-.76,1.23-.58l6.58,2.38c.5,.18,.76,.73,.58,1.23Z"/><path class="c" d="M186.1,134.64c-.5,.19-1.05-.06-1.24-.55l-2.85-7.42c-.19-.5,.06-1.05,.55-1.24,.5-.19,1.05,.06,1.24,.55l2.86,7.42c.19,.5-.06,1.05-.55,1.24Z"/><path class="c" d="M179.74,122.14c-.24,.47-.82,.66-1.29,.42l-6.51-3.34c-.47-.24-.66-.82-.42-1.29,.24-.47,.82-.66,1.29-.42l6.51,3.34c.47,.24,.66,.82,.42,1.29Z"/><path class="c" d="M148.35,128.33c-.59,.73-1.54,1.07-2.74,.83-.88-.18-1.55-.49-1.99-.94-.46-.47-.62-1.04-.58-1.6,.03-.53,.24-1.04,.49-1.47,.25-.44,.56-.83,.86-1.13l.06-.07,.08-.04c1.13-.63,2.17-.65,2.99-.17,.79,.46,1.24,1.31,1.38,2.14,.14,.83,0,1.77-.55,2.46Zm-3.12-3.36c.79-.42,1.32-.33,1.65-.14,.38,.22,.67,.69,.77,1.26,.1,.57-.02,1.11-.29,1.45-.24,.3-.68,.54-1.5,.37-.74-.15-1.13-.38-1.33-.58-.18-.18-.24-.39-.22-.63,.02-.27,.13-.59,.32-.92,.17-.3,.39-.58,.6-.81Z"/><path class="c" d="M147.6,119.37c.35,.03,.6,.34,.57,.69l-.4,4.24c-.03,.35-.34,.61-.69,.57-.35-.03-.6-.34-.57-.69l.4-4.24c.03-.35,.34-.6,.69-.57Z"/><path class="c" d="M145.8,117.08c-.41,2.23-.21,4.99,.14,6.73,.07,.34-.16,.68-.5,.75-.34,.07-.68-.16-.75-.5-.36-1.84-.59-4.77-.14-7.2,.22-1.22,.63-2.38,1.33-3.23,.73-.88,1.76-1.38,3.1-1.25,.81,.08,1.49,.34,2.01,.78,.52,.44,.85,1.02,1.04,1.65,.37,1.24,.22,2.77-.15,4.21-.37,1.45-.99,2.89-1.64,4.01-.32,.56-.67,1.05-1,1.42-.31,.35-.71,.69-1.16,.78-.34,.07-.68-.15-.75-.49-.07-.34,.15-.68,.49-.75,0,0,0,0,0,0,0,0,.05-.01,.14-.08,.09-.07,.21-.17,.33-.31,.26-.29,.55-.7,.85-1.21,.59-1.01,1.16-2.35,1.5-3.68,.34-1.35,.43-2.61,.16-3.53-.13-.45-.35-.8-.64-1.04-.29-.25-.71-.43-1.31-.49-.9-.09-1.53,.23-2.01,.8-.5,.6-.85,1.52-1.06,2.64Z"/><path class="c" d="M136.2,123.67c2.49-.16,5.52,.59,7.6,1.35,.33,.12,.5,.48,.38,.81-.12,.33-.48,.5-.81,.38-2.01-.73-4.85-1.42-7.08-1.27-1.12,.07-1.99,.35-2.55,.84-.52,.46-.87,1.19-.76,2.42,.15,1.62,.67,2.39,1.27,2.75,.63,.37,1.52,.4,2.66,.11,2.26-.59,4.96-2.36,6.8-3.75,.28-.21,.68-.16,.89,.12,.21,.28,.16,.68-.12,.89-1.85,1.4-4.71,3.3-7.24,3.97-1.26,.33-2.57,.38-3.63-.24-1.09-.64-1.72-1.89-1.89-3.72-.14-1.54,.29-2.7,1.18-3.49,.86-.75,2.06-1.07,3.3-1.15Z"/><path class="c" d="M147.63,127.19c.24-.26,.64-.28,.9-.04,0,0,0,0,0,0,0,0,.01,0,.03,.03,.03,.02,.06,.05,.11,.08,.07,.05,.16,.11,.26,.18,.03,.03,.07,.05,.11,.08,.3,.21,.7,.5,1.14,.84,.89,.68,1.98,1.58,2.9,2.58,.9,.98,1.71,2.13,1.89,3.32,.09,.61,.01,1.24-.31,1.83-.32,.58-.85,1.09-1.58,1.51-1.2,.7-2.33,.77-3.33,.31-.96-.44-1.69-1.33-2.25-2.33-1.13-2.01-1.74-4.8-1.98-6.78-.04-.35,.2-.67,.55-.71,.35-.04,.67,.2,.71,.55,.24,1.92,.82,4.52,1.83,6.32,.5,.9,1.07,1.52,1.68,1.8,.56,.26,1.25,.27,2.16-.25,.59-.34,.92-.69,1.1-1.02,.17-.32,.22-.66,.17-1.04-.12-.79-.71-1.71-1.57-2.65-.84-.92-1.87-1.77-2.73-2.43-.43-.33-.81-.61-1.11-.82-.04-.03-.07-.05-.11-.07-.1-.07-.2-.14-.27-.19-.09-.06-.19-.14-.25-.19-.26-.24-.28-.64-.04-.9Z"/><path class="c" d="M142.01,129.13c.32,.13,.48,.51,.34,.83-.61,1.47-1.3,3.56-1.42,5.28-.06,.87,.04,1.55,.29,2.01,.22,.41,.59,.7,1.3,.74,.76,.05,1.34-.15,1.8-.48,.47-.34,.84-.85,1.14-1.45,.59-1.22,.79-2.71,.83-3.6,.01-.35,.31-.62,.66-.61,.35,.02,.62,.31,.61,.66-.04,.96-.25,2.65-.95,4.1-.35,.73-.85,1.42-1.54,1.93-.7,.51-1.57,.79-2.63,.72-1.11-.07-1.89-.58-2.33-1.4-.42-.77-.51-1.74-.44-2.7,.13-1.93,.89-4.18,1.51-5.68,.13-.32,.51-.48,.83-.34Z"/><path class="c" d="M142.03,117.22c1.4,1.09,2.7,2.64,3.48,3.74,.2,.29,.13,.68-.15,.88-.29,.2-.68,.13-.88-.15-.73-1.04-1.95-2.49-3.22-3.47-.64-.49-1.24-.83-1.77-.97-.51-.13-.91-.07-1.24,.19-.72,.56-.85,1.57-.47,2.93,.36,1.31,1.13,2.69,1.76,3.6,.2,.29,.12,.68-.16,.88-.29,.2-.68,.12-.88-.16-.67-.97-1.52-2.48-1.93-3.98-.4-1.46-.45-3.2,.92-4.27,.72-.56,1.55-.62,2.34-.41,.77,.2,1.53,.65,2.23,1.2Z"/><path class="c" d="M149.38,122.98c-.1-.34,.09-.69,.43-.79,1.31-.38,3.37-.6,5.34,0,2.01,.62,3.88,2.1,4.71,5.02,.26,.91,.3,1.71,.1,2.38-.21,.69-.66,1.18-1.25,1.49-1.11,.58-2.68,.52-4.18,.24-1.53-.29-3.14-.86-4.41-1.47-.63-.3-1.2-.63-1.64-.94-.22-.16-.42-.32-.58-.49-.15-.16-.31-.35-.4-.58-.13-.33,.04-.7,.36-.82,.33-.13,.69,.04,.82,.36t0,0s.03,.06,.12,.15c.09,.1,.23,.21,.41,.34,.36,.26,.86,.55,1.45,.83,1.18,.57,2.68,1.1,4.1,1.37,1.45,.28,2.65,.25,3.34-.11,.32-.17,.52-.4,.62-.73,.11-.35,.12-.88-.1-1.66-.71-2.47-2.24-3.65-3.87-4.16-1.67-.52-3.47-.33-4.6,0-.34,.1-.69-.09-.79-.43Z"/><path class="c" d="M147.13,128c.31-.17,.69-.06,.86,.24l2.19,3.92c.17,.31,.06,.69-.24,.86-.31,.17-.69,.06-.86-.24l-2.19-3.92c-.17-.31-.06-.69,.24-.86Z"/><path class="c" d="M145.19,127.85c.34,.09,.54,.44,.45,.78l-1.11,4.17c-.09,.34-.44,.54-.78,.45-.34-.09-.54-.44-.45-.78l1.11-4.17c.09-.34,.44-.54,.78-.45Z"/><path class="c" d="M138.1,127.21c-.03-.35,.23-.66,.58-.69l4.6-.42c.35-.03,.66,.23,.69,.58,.03,.35-.23,.66-.58,.69l-4.6,.42c-.35,.03-.66-.23-.69-.58Z"/><path class="c" d="M140.29,120.48c.24-.25,.65-.26,.9-.02l3.79,3.64c.25,.24,.26,.64,.02,.9-.24,.25-.65,.26-.9,.02l-3.79-3.64c-.25-.24-.26-.65-.02-.9Z"/><path class="c" d="M147.6,126.18c.01-.35,.31-.62,.66-.61l4.83,.18c.35,.01,.62,.31,.61,.66-.01,.35-.31,.62-.66,.61l-4.83-.18c-.35-.01-.62-.31-.61-.66Z"/><path class="d" d="M106.3,2.73c4.47,0,10.6,.58,18.37,5.12l1.38,.81,1.38-.81c7.77-4.54,13.9-5.12,18.37-5.12h.46c23.37,.19,28.9,7.27,34.75,14.76,2.31,2.96,4.71,6.03,8.15,8.75,.79,.62,1.61,1.21,2.52,1.8,3.68,2.34,7.81,3.87,12.12,4.51,6.64,1.05,11.28,3.54,13.8,7.43,1.37,2.17,2.1,4.69,2.12,7.26,.09,5.05,1.5,9.98,4.08,14.31l.07,.1c3.57,5.85,7.13,8.56,10.56,11.17,2.27,1.63,4.37,3.49,6.26,5.55,8.22,9.28,8.8,21.69,8.67,26.59-.21,6.49-1.94,12.84-5.05,18.53l-.72,1.32,.72,1.33c3.12,5.68,4.86,12.02,5.08,18.51,.13,4.9-.46,17.33-8.67,26.6-1.89,2.06-3.99,3.92-6.26,5.55-3.45,2.61-6.99,5.32-10.59,11.2l-.05,.08c-2.58,4.33-3.99,9.26-4.08,14.3-.02,2.57-.75,5.08-2.12,7.26-2.51,3.88-7.14,6.38-13.8,7.42-4.31,.64-8.44,2.18-12.12,4.51-.87,.56-1.71,1.15-2.52,1.8-3.45,2.72-5.84,5.78-8.15,8.75-5.84,7.49-11.37,14.56-34.75,14.76h-.46c-4.47,0-10.6-.58-18.37-5.12l-1.38-.82-1.38,.82c-7.77,4.54-13.9,5.12-18.37,5.12h-.46c-23.37-.19-28.9-7.27-34.75-14.76-2.31-2.97-4.71-6.03-8.15-8.75-.79-.62-1.64-1.23-2.52-1.8-3.68-2.34-7.81-3.88-12.12-4.51-6.64-1.04-11.28-3.54-13.8-7.42-1.37-2.17-2.1-4.69-2.12-7.26-.09-5.05-1.5-9.98-4.08-14.3l-.05-.07c-3.57-5.85-7.13-8.56-10.57-11.17-2.27-1.63-4.37-3.49-6.26-5.55-8.22-9.28-8.81-21.69-8.68-26.6,.21-6.49,1.95-12.84,5.06-18.53l.72-1.33-.72-1.32c-3.11-5.69-4.85-12.04-5.06-18.53-.12-4.9,.46-17.33,8.68-26.59,1.89-2.06,3.99-3.92,6.26-5.55,3.45-2.61,6.99-5.32,10.57-11.18l.05-.08c2.58-4.33,3.99-9.26,4.08-14.3,.02-2.57,.75-5.09,2.12-7.26,2.5-3.88,7.14-6.38,13.8-7.43,4.31-.63,8.44-2.17,12.12-4.51,.88-.58,1.73-1.18,2.52-1.8,3.45-2.72,5.84-5.79,8.15-8.75,5.84-7.49,11.37-14.56,34.75-14.76h.46m0-2.77h-.49c-33.81,.28-32.73,14.75-44.57,24.1-.77,.61-1.55,1.16-2.3,1.64-3.36,2.13-7.12,3.52-11.04,4.1-8.59,1.39-13.22,4.85-15.67,8.65-1.64,2.61-2.52,5.62-2.56,8.7-.07,4.56-1.34,9.02-3.68,12.92l-.06,.1c-5.52,9.01-10.85,9.89-16.56,16.31C.26,86.85-.11,100.53,.02,105.05c.21,6.93,2.06,13.71,5.39,19.78C2.08,130.91,.23,137.69,.02,144.62c-.12,4.52,.24,18.2,9.37,28.5,5.69,6.42,11.04,7.34,16.56,16.31l.06,.1c2.34,3.91,3.6,8.37,3.68,12.93,.04,3.08,.92,6.09,2.56,8.69,2.45,3.8,7.08,7.31,15.67,8.65,3.92,.59,7.68,1.99,11.04,4.11,.76,.49,1.53,1.03,2.3,1.64,11.84,9.36,10.79,23.82,44.57,24.11h.49c4.6,0,11.35-.58,19.76-5.51,8.41,4.92,15.15,5.51,19.76,5.51h.48c33.81-.28,32.74-14.75,44.58-24.11,.77-.61,1.55-1.15,2.31-1.64,3.36-2.12,7.12-3.52,11.04-4.11,8.59-1.35,13.22-4.85,15.66-8.65,1.64-2.6,2.53-5.61,2.57-8.69,.07-4.56,1.34-9.02,3.67-12.93l.07-.1c5.48-9.01,10.85-9.89,16.56-16.31,9.12-10.3,9.49-23.98,9.37-28.5-.22-6.93-2.06-13.71-5.39-19.79,3.33-6.07,5.17-12.85,5.39-19.78,.12-4.52-.25-18.2-9.37-28.51-5.69-6.42-11.04-7.34-16.56-16.31l-.07-.1c-2.33-3.91-3.6-8.37-3.67-12.92-.04-3.08-.93-6.1-2.57-8.7-2.44-3.8-7.07-7.3-15.66-8.65-3.93-.58-7.69-1.98-11.04-4.1-.76-.49-1.53-1.03-2.31-1.64C179.06,14.75,180.11,.28,146.33,0h-.48c-4.61,0-11.34,.58-19.76,5.5C117.68,.58,110.91,0,106.33,0Z"/></svg>