<?xml version="1.0" encoding="UTF-8"?><svg id="a" xmlns="http://www.w3.org/2000/svg" viewBox="0 0 16 16"><defs><style>.b{fill:#32a08d;fill-rule:evenodd;}</style></defs><path class="b" d="M4.7,.05c.85-.04,1.13-.05,3.3-.05s2.45,0,3.3,.05c.85,.04,1.43,.17,1.94,.37,.53,.2,1.02,.52,1.42,.92,.41,.4,.72,.88,.92,1.42,.2,.51,.33,1.09,.37,1.94,.04,.85,.05,1.13,.05,3.3s0,2.45-.05,3.3c-.04,.85-.17,1.43-.37,1.94-.2,.53-.52,1.02-.92,1.42-.4,.41-.88,.72-1.42,.92-.51,.2-1.09,.33-1.94,.37-.85,.04-1.13,.05-3.3,.05s-2.45,0-3.3-.05c-.85-.04-1.43-.17-1.94-.37-.53-.2-1.02-.52-1.42-.92-.41-.4-.72-.88-.92-1.42-.2-.51-.33-1.09-.37-1.94-.04-.85-.05-1.13-.05-3.3s0-2.45,.05-3.3c.04-.85,.17-1.43,.37-1.94,.2-.53,.52-1.02,.92-1.42,.4-.41,.88-.72,1.42-.92C3.27,.22,3.85,.09,4.7,.05h0Zm6.53,1.44c-.84-.04-1.1-.05-3.23-.05s-2.39,0-3.23,.05c-.78,.04-1.2,.17-1.49,.28-.37,.15-.64,.32-.92,.6-.27,.26-.47,.57-.6,.92-.11,.28-.24,.71-.28,1.49-.04,.84-.05,1.1-.05,3.23s0,2.39,.05,3.23c.04,.78,.17,1.2,.28,1.49,.13,.35,.33,.66,.6,.92,.26,.27,.57,.47,.92,.6,.28,.11,.71,.24,1.49,.28,.84,.04,1.1,.05,3.23,.05s2.39,0,3.23-.05c.78-.04,1.2-.17,1.49-.28,.37-.15,.64-.32,.92-.6,.27-.26,.47-.57,.6-.92,.11-.28,.24-.71,.28-1.49,.04-.84,.05-1.1,.05-3.23s0-2.39-.05-3.23c-.04-.78-.17-1.2-.28-1.49-.15-.37-.32-.64-.6-.92-.26-.27-.57-.47-.92-.6-.28-.11-.71-.24-1.49-.28ZM6.98,10.47c.57,.24,1.21,.27,1.8,.09s1.1-.56,1.45-1.07c.34-.51,.5-1.13,.44-1.75-.06-.62-.33-1.19-.77-1.63-.28-.28-.62-.49-.99-.63-.37-.13-.77-.18-1.16-.14-.39,.04-.77,.16-1.11,.37-.34,.2-.63,.48-.85,.81-.22,.33-.36,.7-.42,1.09-.06,.39-.03,.79,.09,1.17,.11,.38,.31,.73,.58,1.02,.26,.29,.59,.52,.96,.67Zm-1.89-5.37c.38-.38,.84-.68,1.33-.89,.5-.21,1.03-.31,1.57-.31s1.07,.11,1.57,.31c.5,.21,.95,.51,1.33,.89,.38,.38,.68,.84,.89,1.33,.21,.5,.31,1.03,.31,1.57s-.11,1.07-.31,1.57c-.21,.5-.51,.95-.89,1.33-.77,.77-1.82,1.2-2.91,1.2s-2.14-.43-2.91-1.2c-.77-.77-1.2-1.82-1.2-2.91s.43-2.14,1.2-2.91Zm7.93-.59c.09-.09,.17-.2,.22-.32,.05-.12,.08-.25,.08-.38,0-.13-.02-.26-.07-.38-.05-.12-.12-.23-.21-.32-.09-.09-.2-.16-.32-.21-.12-.05-.25-.07-.38-.07-.13,0-.26,.03-.38,.08-.12,.05-.23,.13-.32,.22-.17,.18-.27,.43-.27,.68,0,.25,.11,.49,.28,.67,.18,.18,.42,.28,.67,.28,.25,0,.5-.09,.68-.26Z"/></svg>