<?xml version="1.0" encoding="utf-8"?>
<!-- Generator: Adobe Illustrator 26.4.1, SVG Export Plug-In . SVG Version: 6.00 Build 0)  -->
<svg version="1.1" id="Calque_1" xmlns="http://www.w3.org/2000/svg" xmlns:xlink="http://www.w3.org/1999/xlink" x="0px" y="0px"
	 viewBox="0 0 16 16" style="enable-background:new 0 0 16 16;" xml:space="preserve">
<style type="text/css">
	.st0{fill:#D08B86;}
</style>
<path class="st0" d="M12,12.3c2.6,0,4-3,4-6C16,2.6,13.5,0,9.3,0C3.9,0,0,4.2,0,9.7C0,13.5,2.6,16,6.6,16c1.3,0,2.5-0.2,3.6-0.7
	L10,14.1c-0.9,0.5-2,0.6-3.1,0.6c-3.5,0-5.6-1.8-5.5-5.2c0-4.7,3.2-8.3,7.7-8.3c3.5,0,5.5,1.9,5.5,5.2c0,2-0.8,4.7-2.4,4.7
	c-0.9,0-1.1-0.7-0.9-1.8l0.9-5.5h-1.5L10.6,5c-0.4-0.9-1.2-1.4-2.4-1.4C5.5,3.6,3.7,6.2,3.7,9c0,2,1.1,3.3,3,3.3
	c1.3,0,2.5-0.7,3.3-1.8C10.1,11.6,10.7,12.3,12,12.3z M10.2,7.5c-0.1,2-1.4,3.5-3,3.5c-1.3,0-1.9-0.9-1.9-2.2c0-1.9,1.1-3.8,3-3.8
	C9.7,5,10.3,6.1,10.2,7.5z"/>
</svg>
