<?xml version="1.0" encoding="utf-8"?>
<!-- Generator: Adobe Illustrator 27.0.0, SVG Export Plug-In . SVG Version: 6.00 Build 0)  -->
<svg version="1.1" id="Calque_1" xmlns="http://www.w3.org/2000/svg" xmlns:xlink="http://www.w3.org/1999/xlink" x="0px" y="0px"
	 viewBox="0 0 56.5 56.5" style="enable-background:new 0 0 56.5 56.5;" xml:space="preserve">
<style type="text/css">
	.st0{fill:#D08B86;}
	.st1{fill:#F7F7F7;}
</style>
<g>
	<circle class="st0" cx="28.2" cy="28.2" r="28.2"/>
	<path class="st1" d="M36.2,15.9c-0.7,0-1.4,0.3-1.9,0.8s-0.8,1.2-0.8,1.9c0,0.7,0.3,1.4,0.8,1.9c0.5,0.5,1.2,0.8,1.9,0.8
		s1.4-0.3,1.9-0.8c0.5-0.5,0.8-1.2,0.8-1.9c0-0.7-0.3-1.4-0.8-1.9S36.9,15.9,36.2,15.9z M31.8,18.5c0-1,0.4-2,1-2.8
		c0.7-0.8,1.6-1.3,2.6-1.5c1-0.2,2.1,0,3,0.5c0.9,0.5,1.6,1.3,1.9,2.3c0.4,1,0.4,2,0,3c-0.3,1-1,1.8-1.9,2.3c-0.9,0.5-1.9,0.7-3,0.6
		s-2-0.7-2.6-1.5L21,26.9c0.3,0.9,0.3,1.8,0,2.7l11.9,5.5c0.7-0.8,1.7-1.4,2.8-1.5c1.1-0.1,2.2,0.1,3.1,0.8c0.9,0.6,1.5,1.6,1.8,2.6
		c0.2,1.1,0.1,2.2-0.4,3.1c-0.5,1-1.4,1.7-2.4,2c-1,0.4-2.2,0.3-3.2-0.1c-1-0.4-1.8-1.2-2.3-2.2c-0.5-1-0.5-2.1-0.2-3.2l-11.9-5.5
		c-0.6,0.7-1.4,1.2-2.2,1.4c-0.9,0.2-1.8,0.2-2.6-0.1c-0.8-0.3-1.6-0.9-2.1-1.6c-0.5-0.7-0.8-1.6-0.8-2.5c0-0.9,0.3-1.8,0.8-2.5
		c0.5-0.7,1.2-1.3,2.1-1.6c0.8-0.3,1.8-0.4,2.6-0.1c0.9,0.2,1.7,0.7,2.2,1.4L32,19.9C31.8,19.4,31.8,19,31.8,18.5z M16.8,25.6
		c-0.7,0-1.4,0.3-1.9,0.8c-0.5,0.5-0.8,1.2-0.8,1.9s0.3,1.4,0.8,1.9c0.5,0.5,1.2,0.8,1.9,0.8s1.4-0.3,1.9-0.8
		c0.5-0.5,0.8-1.2,0.8-1.9s-0.3-1.4-0.8-1.9C18.1,25.9,17.5,25.6,16.8,25.6z M36.2,35.3c-0.7,0-1.4,0.3-1.9,0.8
		c-0.5,0.5-0.8,1.2-0.8,1.9c0,0.7,0.3,1.4,0.8,1.9s1.2,0.8,1.9,0.8s1.4-0.3,1.9-0.8s0.8-1.2,0.8-1.9c0-0.7-0.3-1.4-0.8-1.9
		C37.6,35.6,36.9,35.3,36.2,35.3z"/>
</g>
</svg>
