<svg width="16" height="16" viewBox="0 0 16 16" fill="none" xmlns="http://www.w3.org/2000/svg">
<path d="M14.2885 12.5712C13.8954 12.1946 13.5128 11.8073 13.1411 11.4095C12.8289 11.0922 12.6409 10.8614 12.6409 10.8614L10.2906 9.73917C11.2316 8.67203 11.7508 7.29828 11.7511 5.87556C11.7511 2.63645 9.11552 0 5.87556 0C2.63561 0 0 2.63645 0 5.87556C0 9.11468 2.63561 11.7511 5.87556 11.7511C7.35537 11.7511 8.70423 11.1971 9.73917 10.2915L10.8614 12.6417C10.8614 12.6417 11.0922 12.8297 11.4095 13.142C11.7343 13.4466 12.1616 13.8588 12.5712 14.2894L13.711 15.4578L14.218 16L15.9983 14.2197L15.4561 13.7127C15.138 13.4005 14.7133 12.9858 14.2885 12.5712ZM5.87556 10.0724C3.56143 10.0724 1.67873 8.1897 1.67873 5.87556C1.67873 3.56143 3.56143 1.67873 5.87556 1.67873C8.1897 1.67873 10.0724 3.56143 10.0724 5.87556C10.0724 8.1897 8.1897 10.0724 5.87556 10.0724Z" fill="#302C2C"/>
</svg>
