<svg width="32" height="32" viewBox="0 0 32 32" fill="none" xmlns="http://www.w3.org/2000/svg">
<rect width="32" height="32" rx="5" fill="#F7F7F7"/>
<path d="M20.1641 9.00001L21.7541 9.00001L19.3741 11.38C19.1871 11.567 19.082 11.8206 19.082 12.085C19.082 12.3494 19.1871 12.603 19.3741 12.79C19.561 12.977 19.8146 13.082 20.0791 13.082C20.3435 13.082 20.5971 12.977 20.7841 12.79L23.1641 10.41L23.1641 12C23.1641 12.55 23.6141 13 24.1641 13C24.7141 13 25.1641 12.55 25.1641 12L25.1641 8.00001C25.1641 7.45001 24.7141 7.00001 24.1641 7.00001L20.1641 7.00001C19.6141 7.00001 19.1641 7.45001 19.1641 8.00001C19.1641 8.55001 19.6141 9.00001 20.1641 9.00001Z" fill="#302C2C"/>
<path d="M12 7.00001C12.55 7.00001 13 7.45001 13 8.00001C13 8.55001 12.55 9.00001 12 9.00001L10.41 9.00001L12.79 11.38C12.8826 11.4726 12.956 11.5825 13.0061 11.7035C13.0562 11.8244 13.082 11.9541 13.082 12.085C13.082 12.2159 13.0562 12.3456 13.0061 12.4666C12.956 12.5875 12.8826 12.6974 12.79 12.79C12.6974 12.8826 12.5875 12.956 12.4666 13.0061C12.3456 13.0562 12.2159 13.082 12.085 13.082C11.9541 13.082 11.8244 13.0562 11.7035 13.0061C11.5825 12.956 11.4726 12.8826 11.38 12.79L9.00001 10.41L9.00001 12C9.00001 12.55 8.55001 13 8.00001 13C7.45001 13 7.00001 12.55 7.00001 12L7.00001 8.00001C7.00001 7.45001 7.45001 7.00001 8.00001 7.00001L12 7.00001Z" fill="#302C2C"/>
<path d="M10.41 23.164L12 23.164C12.55 23.164 13 23.614 13 24.164C13 24.714 12.55 25.164 12 25.164L8.00001 25.164C7.45001 25.164 7.00001 24.714 7.00001 24.164L7.00001 20.164C7.00001 19.614 7.45001 19.164 8.00001 19.164C8.55001 19.164 9.00001 19.614 9.00001 20.164L9.00001 21.754L11.38 19.374C11.567 19.1871 11.8206 19.082 12.085 19.082C12.3494 19.082 12.603 19.1871 12.79 19.374C12.977 19.561 13.082 19.8146 13.082 20.079C13.082 20.3435 12.977 20.5971 12.79 20.784L10.41 23.164Z" fill="#302C2C"/>
<path d="M20.1641 25.164C19.6141 25.164 19.1641 24.714 19.1641 24.164C19.1641 23.614 19.6141 23.164 20.1641 23.164L21.7541 23.164L19.3741 20.784C19.1871 20.5971 19.082 20.3435 19.082 20.079C19.082 19.8146 19.1871 19.561 19.3741 19.374C19.561 19.1871 19.8146 19.082 20.0791 19.082C20.3435 19.082 20.5971 19.1871 20.7841 19.374L23.1641 21.754L23.1641 20.164C23.1641 19.614 23.6141 19.164 24.1641 19.164C24.7141 19.164 25.1641 19.614 25.1641 20.164L25.1641 24.164C25.1641 24.714 24.7141 25.164 24.1641 25.164L20.1641 25.164Z" fill="#302C2C"/>
</svg>
