<svg width="632" height="1051" viewBox="0 0 632 1051" fill="none" xmlns="http://www.w3.org/2000/svg">
<path opacity="0.4" d="M1061.74 512.992C1076.06 539.133 1084 568.309 1084.93 598.13C1085.47 617.58 1083.86 676.436 1044.61 720.765C1020.14 748.388 997.104 752.326 973.351 790.957L973.054 791.404C963.028 808.239 957.581 827.424 957.258 847.039C957.106 860.297 953.281 873.251 946.213 884.447C935.702 900.795 915.78 915.889 878.814 921.676C861.934 924.2 845.758 930.213 831.308 939.337C828.042 941.455 824.716 943.781 821.391 946.406C770.44 986.678 774.954 1048.91 629.585 1050.13C609.751 1050.13 579.971 1048.37 542.5 1026.44C505 1048.37 475.249 1050.31 455.386 1050.1C309.898 1048.91 314.56 986.678 263.61 946.406C260.284 943.781 256.959 941.455 253.693 939.337C239.243 930.213 223.067 924.2 206.187 921.676C169.221 915.889 149.298 900.795 138.758 884.447C131.71 873.243 127.897 860.293 127.742 847.039C127.423 827.42 121.965 808.231 111.917 791.404L111.649 790.957C87.8961 752.177 64.9744 748.388 40.39 720.765C1.10842 676.436 -0.464728 617.58 0.069716 598.13C0.98391 568.307 8.93087 539.127 23.2581 512.992C8.92588 486.869 0.978428 457.699 0.069716 427.884C-0.464728 408.434 1.10842 349.578 40.39 305.219C64.8557 277.596 87.8961 273.658 111.649 235.027L111.917 234.58C121.965 217.764 127.424 198.585 127.742 178.975C127.901 165.713 131.714 152.754 138.758 141.537C149.298 125.189 169.221 110.125 206.187 104.308C223.074 101.811 239.255 95.7959 253.693 86.6476C256.959 84.5595 260.284 82.2028 263.61 79.5777C314.56 39.3357 310.047 -22.8917 455.386 -24.1148C475.249 -24.1148 505 -22.3844 542.5 -0.45867C579.971 -22.3844 609.751 -24.3236 629.585 -24.1148C775.073 -22.8917 770.44 39.3357 821.391 79.5777C824.716 82.2028 828.042 84.5595 831.308 86.6476C845.745 95.7959 861.927 101.811 878.814 104.308C915.78 110.274 935.702 125.189 946.213 141.537C953.276 152.747 957.1 165.708 957.258 178.975C957.581 198.58 963.028 217.757 973.054 234.58L973.351 235.027C996.926 273.807 1020.03 277.596 1044.61 305.219C1083.86 349.578 1085.47 408.434 1084.93 427.884C1084.01 457.696 1076.06 486.864 1061.74 512.992Z" fill="#DAA49A"/>
<path opacity="0.4" d="M457.375 -12.375C476.615 -12.375 502.981 -9.86916 536.414 9.67039L542.352 13.1608L548.29 9.67039C581.723 -9.86916 608.088 -12.375 627.328 -12.375H629.318C729.882 -11.5398 753.665 18.9182 778.813 51.1361C788.76 63.874 799.063 77.0595 813.879 88.7832C817.293 91.468 820.827 94.0036 824.717 96.5094C840.555 106.566 858.316 113.171 876.854 115.9C905.447 120.404 925.37 131.144 936.237 147.849C942.113 157.203 945.271 168.022 945.352 179.083C945.748 200.794 951.798 222.023 962.899 240.655L963.196 241.102C978.577 266.28 993.868 277.914 1008.65 289.161C1018.43 296.159 1027.45 304.157 1035.58 313.026C1070.95 352.97 1073.47 406.338 1072.91 427.429C1072.02 455.359 1064.57 482.682 1051.17 507.168L1048.05 512.866L1051.17 518.594C1064.6 543.033 1072.09 570.314 1073.02 598.214C1073.59 619.304 1071.06 672.792 1035.7 712.647C1027.55 721.499 1018.53 729.495 1008.77 736.512C993.927 747.758 978.695 759.392 963.226 784.689L963.018 785.047C951.909 803.665 945.858 824.886 945.471 846.589C945.39 857.651 942.232 868.469 936.355 877.823C925.577 894.528 905.655 905.268 876.973 909.743C858.436 912.495 840.677 919.109 824.835 929.162C821.096 931.554 817.479 934.133 813.998 936.889C799.152 948.613 788.879 961.768 778.932 974.536C753.784 1006.75 730.001 1037.18 629.437 1038.05H627.447C608.207 1038.05 581.842 1035.54 548.409 1016L542.471 1012.48L536.533 1016C503.1 1035.54 476.734 1038.05 457.494 1038.05H455.505C354.941 1037.21 331.158 1006.75 306.009 974.536C296.062 961.768 285.76 948.613 270.944 936.889C267.559 934.204 263.907 931.609 260.106 929.162C244.256 919.104 226.486 912.489 207.939 909.743C179.375 905.268 159.423 894.499 148.556 877.823C142.679 868.469 139.523 857.651 139.441 846.589C139.054 824.886 133.003 803.665 121.893 785.047L121.686 784.719C106.306 759.542 91.0146 747.907 76.2283 736.661C66.4629 729.652 57.4388 721.655 49.2981 712.796C13.9358 672.852 11.4118 619.454 11.9462 598.363C12.8589 570.443 20.3157 543.133 33.7102 518.653L36.8279 512.926L33.7102 507.228C20.3122 482.739 12.8553 455.419 11.9462 427.489C11.4118 406.398 13.9358 352.91 49.2981 313.085C57.4225 304.209 66.4484 296.211 76.2283 289.22C91.074 277.974 106.306 266.34 121.686 241.132L121.893 240.804C132.999 222.185 139.05 200.965 139.441 179.262C139.523 168.201 142.679 157.382 148.556 148.028C159.304 131.323 179.257 120.584 207.939 116.079C226.487 113.356 244.26 106.75 260.106 96.6886C263.907 94.2126 267.559 91.6174 270.944 88.9624C285.79 77.2387 296.062 64.0532 306.009 51.3152C331.158 19.0973 354.941 -11.3308 455.505 -12.1959H457.494M457.494 -24.1284H455.386C309.899 -22.9053 314.56 39.3229 263.61 79.5654C260.284 82.1906 256.959 84.5473 253.693 86.6355C239.256 95.7838 223.074 101.799 206.187 104.296C169.222 110.262 149.299 125.178 138.758 141.525C131.714 152.742 127.901 165.701 127.742 178.963C127.423 198.574 121.965 217.754 111.917 234.569L111.65 235.017C87.8968 273.797 64.9751 277.586 40.3907 305.21C1.10913 349.569 -0.46474 408.426 0.0697038 427.876C0.978415 457.691 8.92659 486.863 23.2588 512.985C8.93158 539.121 0.983897 568.3 0.0697038 598.124C-0.46474 617.574 1.10913 676.431 40.3907 720.761C64.8564 748.384 87.8968 752.322 111.65 790.954L111.917 791.401C121.965 808.228 127.423 827.417 127.742 847.037C127.897 860.291 131.711 873.241 138.758 884.445C149.299 900.793 169.222 915.888 206.187 921.675C223.067 924.199 239.243 930.212 253.693 939.335C256.959 941.453 260.284 943.78 263.61 946.405C314.56 986.677 310.047 1048.91 455.386 1050.13H457.494C477.298 1050.13 506.307 1047.62 542.501 1026.44C578.694 1047.62 607.673 1050.13 627.506 1050.13H629.585C775.072 1048.91 770.44 986.677 821.391 946.405C824.716 943.78 828.042 941.453 831.308 939.335C845.758 930.212 861.934 924.199 878.814 921.675C915.78 915.888 935.702 900.793 946.213 884.445C953.281 873.248 957.106 860.295 957.258 847.037C957.581 827.422 963.028 808.236 973.054 791.401L973.351 790.954C996.926 752.173 1020.03 748.384 1044.61 720.761C1083.86 676.431 1085.47 617.574 1084.93 598.124C1084 568.303 1076.06 539.127 1061.74 512.985C1076.06 486.857 1084.01 457.689 1084.93 427.876C1085.47 408.426 1083.86 349.569 1044.61 305.21C1020.14 277.586 997.104 273.648 973.351 235.017L973.054 234.569C963.028 217.746 957.581 198.569 957.258 178.963C957.1 165.697 953.276 152.735 946.213 141.525C935.702 125.178 915.78 110.113 878.814 104.296C861.927 101.799 845.745 95.7838 831.308 86.6355C828.042 84.5473 824.716 82.1906 821.391 79.5654C770.44 39.3229 774.953 -22.9053 629.585 -24.1284H627.506C607.673 -24.1284 578.694 -21.6224 542.501 -0.471987C506.307 -21.6224 477.179 -24.1284 457.494 -24.1284Z" fill="#D08B86"/>
<path opacity="0.4" d="M1015.46 512.985C1028.51 536.503 1035.75 562.755 1036.6 589.589C1037.08 607.094 1035.64 660.082 999.857 699.987C977.587 724.849 956.542 728.409 935.048 763.151L934.779 763.567C925.639 778.709 920.67 795.969 920.37 813.618C920.242 825.551 916.764 837.213 910.326 847.292C900.73 862.127 882.584 875.596 848.924 880.818C833.519 883.056 818.756 888.462 805.578 896.69C802.589 898.589 799.599 900.696 796.61 903.069C750.185 939.295 754.311 995.31 621.852 996.407C603.915 996.407 576.652 994.835 542.513 975.105C508.345 994.835 481.231 996.556 463.145 996.407C330.716 995.31 334.842 939.295 288.417 903.069C285.427 900.696 282.438 898.589 279.449 896.69C266.269 888.467 251.506 883.061 236.103 880.818C202.443 875.596 184.267 862.008 174.671 847.292C168.233 837.213 164.755 825.551 164.626 813.618C164.341 795.967 159.371 778.703 150.218 763.567L149.979 763.151C128.485 728.409 107.44 724.849 85.1695 699.987C49.297 660.082 47.9517 607.094 48.4001 589.589C49.2666 562.755 56.5193 536.505 69.5651 512.985C56.5109 489.468 49.2575 463.216 48.4001 436.38C47.9517 418.876 49.3867 365.917 85.1695 325.983C107.44 301.15 128.485 297.59 149.979 262.818L150.218 262.432C159.375 247.287 164.345 230.012 164.626 212.351C164.763 200.419 168.241 188.76 174.671 178.677C184.267 163.843 202.443 150.403 236.103 145.181C251.508 142.928 266.271 137.512 279.449 129.279C282.438 127.38 285.427 125.303 288.417 122.93C334.842 86.7043 330.716 30.6895 463.145 29.5918C481.231 29.5918 508.345 31.1644 542.513 50.8941C576.652 31.1644 603.796 29.4434 621.852 29.5918C754.311 30.6895 750.185 86.7043 796.61 122.93C799.599 125.303 802.589 127.38 805.578 129.279C818.754 137.516 833.518 142.933 848.924 145.181C882.584 150.403 900.73 163.961 910.326 178.677C916.762 188.768 920.239 200.439 920.37 212.381C920.67 230.03 925.639 247.29 934.779 262.432L935.048 262.818C956.542 297.59 977.587 301.15 999.857 325.983C1035.73 365.917 1037.08 418.876 1036.6 436.38C1035.76 463.215 1028.52 489.47 1015.46 512.985Z" fill="url(#paint0_radial_1138_3401)"/>
<path opacity="0.4" d="M619.788 41.4514H621.612C712.698 42.1932 734.192 69.4002 756.941 98.1793C765.909 109.721 775.475 121.618 789.077 132.24C792.066 134.672 795.533 137.016 799.031 139.271C813.558 148.399 829.852 154.402 846.861 156.895C872.569 160.9 890.476 170.394 900.102 185.14C905.347 193.374 908.163 202.902 908.233 212.643C908.571 232.365 914.128 251.652 924.346 268.57L924.644 269.044C938.754 291.89 952.774 302.422 966.495 312.599C975.329 318.843 983.493 325.972 990.859 333.872C1022.82 369.475 1025.09 417.212 1024.61 436.082C1023.78 461.025 1017.03 485.422 1004.91 507.288L1001.77 512.955L1004.91 518.652C1017.03 540.517 1023.78 564.914 1024.61 589.858C1025.09 608.698 1022.82 656.406 990.859 692.038C983.508 699.953 975.342 707.083 966.495 713.311C952.924 723.518 938.904 734.08 924.824 756.866L924.525 757.34C914.292 774.253 908.724 793.542 908.382 813.267C908.314 823.018 905.497 832.555 900.251 840.8C890.625 855.635 872.719 865.04 847.01 869.045C830.001 871.538 813.708 877.541 799.18 886.668C795.683 888.894 792.335 891.267 789.226 893.7C775.625 904.322 766.178 916.219 757.091 927.761C734.341 956.54 712.848 983.717 621.762 984.488H619.938C602.57 984.488 578.745 982.233 548.522 964.788L542.543 961.316L536.565 964.788C506.342 982.233 482.516 984.488 465.118 984.488H463.325C372.239 983.717 350.745 956.54 327.996 927.761C318.879 916.219 309.462 904.322 295.86 893.7C292.871 891.267 289.403 888.894 285.906 886.668C271.378 877.541 255.085 871.538 238.076 869.045C212.367 865.04 194.46 855.546 184.835 840.8C179.589 832.555 176.772 823.018 176.704 813.267C176.362 793.542 170.795 774.253 160.561 757.34L160.292 756.895C146.152 734.05 132.162 723.518 118.441 713.311C109.594 707.083 101.429 699.953 94.0778 692.038C62.1214 656.435 59.8194 608.698 60.3276 589.858C61.1563 564.914 67.9062 540.517 80.0279 518.652L83.0172 512.955L80.0279 507.288C67.9062 485.422 61.1563 461.025 60.3276 436.082C59.8194 417.212 62.1214 369.534 94.0778 333.872C101.436 325.964 109.601 318.835 118.441 312.599C132.013 302.422 146.003 291.83 160.292 269.044L160.561 268.599C170.798 251.677 176.366 232.378 176.704 212.643C176.773 202.902 179.59 193.374 184.835 185.14C194.46 170.305 212.367 160.9 238.076 156.895C255.085 154.402 271.378 148.399 285.906 139.271C289.403 137.016 292.751 134.672 295.86 132.24C309.462 121.618 318.879 109.721 327.996 98.1793C350.745 69.4002 372.239 42.1932 463.325 41.4514H465.118C482.516 41.4514 506.342 43.6767 536.565 61.1518L542.543 64.6233L548.522 61.1518C578.745 43.6767 602.57 41.4514 619.938 41.4514M465.058 29.5837H463.145C330.716 30.6815 334.842 86.6973 288.417 122.923C285.427 125.297 282.438 127.374 279.449 129.273C266.271 137.506 251.508 142.922 236.103 145.175C202.443 150.397 184.267 163.956 174.671 178.672C168.241 188.754 164.763 200.414 164.626 212.346C164.345 230.007 159.375 247.282 150.218 262.428L149.979 262.814C128.485 297.586 107.44 301.146 85.1695 325.979C49.297 365.914 47.9517 418.874 48.4001 436.379C49.2575 463.215 56.5109 489.468 69.5651 512.985C56.5193 536.505 49.2666 562.755 48.4001 589.59C47.9517 607.095 49.3867 660.085 85.1695 699.99C107.44 724.853 128.485 728.413 149.979 763.155C150.07 763.287 150.15 763.426 150.218 763.571C159.371 778.708 164.341 795.972 164.626 813.623C164.755 825.556 168.233 837.218 174.671 847.298C184.267 862.132 202.443 875.602 236.103 880.824C251.506 883.067 266.269 888.473 279.449 896.697C282.438 898.596 285.427 900.702 288.417 903.076C334.842 939.302 330.716 995.318 463.145 996.415H465.058C482.995 996.415 509.541 994.16 542.513 975.113C575.397 994.16 601.912 996.415 619.938 996.415H621.852C754.311 995.318 750.185 939.302 796.61 903.076C799.599 900.702 802.589 898.596 805.578 896.697C818.756 888.468 833.519 883.062 848.924 880.824C882.584 875.602 900.73 862.014 910.326 847.298C916.764 837.218 920.242 825.556 920.37 813.623C920.678 795.975 925.646 778.716 934.779 763.571L935.047 763.155C956.541 728.413 977.587 724.853 999.857 699.99C1035.73 660.085 1037.08 607.125 1036.6 589.59C1035.75 562.756 1028.51 536.503 1015.46 512.985C1028.52 489.47 1035.76 463.215 1036.6 436.379C1037.08 418.874 1035.64 365.914 999.857 325.979C977.587 301.146 956.541 297.586 935.047 262.814L934.779 262.428C925.648 247.271 920.68 230.003 920.37 212.346C920.234 200.414 916.756 188.754 910.326 178.672C900.73 163.837 882.584 150.397 848.924 145.175C833.518 142.927 818.754 137.51 805.578 129.273C802.589 127.374 799.599 125.297 796.61 122.923C750.185 86.6973 754.311 30.6815 621.852 29.5837H619.938C602.002 29.5837 575.486 31.8388 542.513 50.8864C509.63 31.8388 483.114 29.5837 465.058 29.5837Z" fill="#D08B86"/>
<path opacity="0.4" d="M542.496 856.762C732.35 856.762 886.258 704.057 886.258 515.686C886.258 327.314 732.35 174.609 542.496 174.609C352.641 174.609 198.733 327.314 198.733 515.686C198.733 704.057 352.641 856.762 542.496 856.762Z" fill="#DAA49A"/>
<path opacity="0.4" d="M542.541 186.499C586.131 186.383 629.311 194.842 669.584 211.389C709.857 227.935 746.424 252.24 777.169 282.897C808.082 313.391 832.589 349.666 849.273 389.623C865.957 429.579 874.485 472.422 874.363 515.671C874.485 558.92 865.957 601.763 849.273 641.719C832.589 681.675 808.082 717.951 777.169 748.446C746.432 779.114 709.867 803.429 669.592 819.981C629.318 836.533 586.134 844.993 542.541 844.872C498.948 844.993 455.763 836.533 415.488 819.981C375.214 803.429 338.65 779.114 307.913 748.446C277 717.951 252.491 681.675 235.808 641.719C219.124 601.763 210.596 558.92 210.718 515.671C210.596 472.422 219.124 429.579 235.808 389.623C252.491 349.666 277 313.391 307.913 282.897C338.657 252.24 375.224 227.935 415.497 211.389C455.77 194.842 498.951 186.383 542.541 186.499ZM542.541 174.609C451.363 174.609 363.918 210.541 299.443 274.502C234.967 338.463 198.741 425.213 198.733 515.671C198.733 606.134 234.955 692.892 299.432 756.859C363.908 820.826 451.357 856.762 542.541 856.762C633.708 856.739 721.134 820.792 785.591 756.827C850.048 692.863 886.258 606.119 886.258 515.671C886.25 425.213 850.024 338.463 785.549 274.502C721.073 210.541 633.629 174.609 542.451 174.609H542.541Z" fill="#D08B86"/>
<defs>
<radialGradient id="paint0_radial_1138_3401" cx="0" cy="0" r="1" gradientUnits="userSpaceOnUse" gradientTransform="translate(542.454 512.985) scale(490.646 486.953)">
<stop stop-color="#F7EBE9"/>
<stop offset="1" stop-color="#DAA49A"/>
</radialGradient>
</defs>
</svg>
