<?xml version="1.0" encoding="utf-8"?>
<!-- Generator: Adobe Illustrator 27.0.0, SVG Export Plug-In . SVG Version: 6.00 Build 0)  -->
<svg version="1.1" id="Calque_1" xmlns="http://www.w3.org/2000/svg" xmlns:xlink="http://www.w3.org/1999/xlink" x="0px" y="0px"
	 viewBox="0 0 24 24" style="enable-background:new 0 0 24 24;" xml:space="preserve">
<style type="text/css">
	.st0{fill:#D08B86;stroke:#D08B86;}
	.st1{fill:#F7EBE9;}
</style>
<circle class="st0" cx="12" cy="12" r="11.5"/>
<path class="st1" d="M12.6,12l3.3-3.3C16,8.6,16,8.5,16,8.4s0-0.2-0.1-0.3c-0.1,0-0.2-0.1-0.3-0.1c-0.1,0-0.2,0-0.3,0.1L12,11.4
	L8.7,8.1C8.6,8,8.5,8,8.4,8C8.3,8,8.2,8,8.1,8.1S8,8.3,8,8.4c0,0.1,0,0.2,0.1,0.3l3.3,3.3l-3.3,3.3L8,15.4c0,0,0,0.1,0,0.2
	c0,0.1,0,0.1,0,0.2s0.1,0.1,0.1,0.1L8.2,16c0.1,0,0.1,0,0.2,0c0.1,0,0.1,0,0.2,0l0.1-0.1l3.3-3.3l3.3,3.3c0.1,0.1,0.2,0.1,0.3,0.1
	s0.2,0,0.3-0.1s0.1-0.2,0.1-0.3s0-0.2-0.1-0.3L12.6,12z"/>
</svg>
