<?xml version="1.0" encoding="UTF-8"?><svg id="a" xmlns="http://www.w3.org/2000/svg" viewBox="0 0 24 24"><defs><style>.b{fill:none;stroke:#70a098;}.c{fill:#1b2322;}</style></defs><circle class="b" cx="12" cy="12" r="11.5"/><path class="c" d="M12.59,11.99l3.32-3.31c.07-.08,.1-.17,.1-.27s-.05-.2-.12-.27c-.07-.07-.17-.11-.27-.12-.1,0-.2,.03-.28,.1l-3.32,3.31-3.32-3.31c-.08-.08-.18-.12-.28-.12s-.21,.04-.28,.12-.12,.18-.12,.28,.04,.21,.12,.28l3.32,3.31-3.32,3.31s-.08,.08-.1,.13c-.02,.05-.04,.1-.04,.16,0,.05,0,.11,.03,.16s.05,.1,.09,.14c.04,.04,.09,.07,.14,.09,.05,.02,.11,.03,.16,.03,.06,0,.11-.02,.16-.04,.05-.02,.09-.06,.13-.1l3.32-3.31,3.32,3.31c.08,.07,.18,.1,.28,.1,.1,0,.2-.05,.27-.12,.07-.07,.11-.17,.12-.27,0-.1-.03-.2-.1-.27l-3.32-3.31Z"/></svg>