<?xml version="1.0" encoding="utf-8"?>
<!-- Generator: Adobe Illustrator 26.4.1, SVG Export Plug-In . SVG Version: 6.00 Build 0)  -->
<svg version="1.1" id="Calque_1" xmlns="http://www.w3.org/2000/svg" xmlns:xlink="http://www.w3.org/1999/xlink" x="0px" y="0px"
	 viewBox="0 0 18 18" style="enable-background:new 0 0 18 18;" xml:space="preserve">
<style type="text/css">
	.st0{fill:none;stroke:#F7EBE9;stroke-width:2;stroke-linecap:round;stroke-linejoin:round;}
</style>
<path class="st0" d="M7.8,4.4L5.1,1.3c-0.3-0.4-0.9-0.4-1.2,0L1.7,3.5C1,4.2,0.8,5.2,1.2,5.9c2.3,4.7,6.1,8.6,10.8,10.9
	c0.8,0.4,1.8,0.2,2.4-0.5l2.2-2.3c0.4-0.4,0.4-0.9,0-1.3l-3.1-2.7c-0.3-0.3-0.8-0.2-1.2,0.1l-1.1,1.1c-0.1,0.1-0.1,0.1-0.2,0.1
	c-0.1,0-0.2,0-0.2,0c-1.8-1-3.3-2.5-4.3-4.3c0-0.1-0.1-0.2,0-0.2c0-0.1,0.1-0.2,0.1-0.2l1.1-1.1C8.1,5.2,8.1,4.7,7.8,4.4L7.8,4.4z"
	/>
</svg>
