<svg width="34" height="15" viewBox="0 0 34 15" fill="none" xmlns="http://www.w3.org/2000/svg">
<path d="M1.01639 6.00013C0.464181 5.99108 0.00918698 6.4314 0.000134349 6.98361C-0.00891828 7.53582 0.431398 7.99081 0.983609 7.99987L1.01639 6.00013ZM33.6911 8.24312C34.088 7.85905 34.0984 7.22597 33.7143 6.8291L27.4555 0.361679C27.0714 -0.0351941 26.4384 -0.0455725 26.0415 0.338498C25.6446 0.722569 25.6342 1.35565 26.0183 1.75252L31.5817 7.50134L25.8329 13.0647C25.436 13.4488 25.4256 14.0819 25.8097 14.4787C26.1937 14.8756 26.8268 14.886 27.2237 14.5019L33.6911 8.24312ZM0.983609 7.99987L32.9793 8.52439L33.0121 6.52465L1.01639 6.00013L0.983609 7.99987Z" fill="#F7EBE9"/>
</svg>
