<?xml version="1.0" encoding="utf-8"?>
<!-- Generator: Adobe Illustrator 26.4.1, SVG Export Plug-In . SVG Version: 6.00 Build 0)  -->
<svg version="1.1" id="Calque_1" xmlns="http://www.w3.org/2000/svg" xmlns:xlink="http://www.w3.org/1999/xlink" x="0px" y="0px"
	 viewBox="0 0 34 15" style="enable-background:new 0 0 34 15;" xml:space="preserve">
<style type="text/css">
	.st0{fill:#302C2C;}
</style>
<path class="st0" d="M1,6C0.5,6,0,6.4,0,7s0.4,1,1,1L1,6z M33.7,8.2c0.4-0.4,0.4-1,0-1.4l-6.3-6.5c-0.4-0.4-1-0.4-1.4,0
	c-0.4,0.4-0.4,1,0,1.4l5.6,5.7l-5.7,5.6c-0.4,0.4-0.4,1,0,1.4c0.4,0.4,1,0.4,1.4,0L33.7,8.2z M1,8l32,0.5l0-2L1,6L1,8z"/>
</svg>
